<?xml version="1.0" standalone="no"?>
<!DOCTYPE svg PUBLIC "-//W3C//DTD SVG 1.1//EN" "http://www.w3.org/Graphics/SVG/1.1/DTD/svg11.dtd" >
<svg>
<metadata>
Created by FontForge 20090622 at Sun Sep  8 03:47:22 2019
 By deploy user
Copyright (c) 1996 Monib Mahdavi, MonibDesign. All Rights Reserved. 
</metadata>
<defs>
<font id="Flux" horiz-adv-x="500" >
  <font-face 
    font-family="Flux"
    font-weight="500"
    font-stretch="normal"
    units-per-em="1000"
    panose-1="0 0 0 0 0 0 0 0 0 0"
    ascent="800"
    descent="-200"
    x-height="438"
    cap-height="642"
    bbox="-53 -254 1011 862.034"
    underline-thickness="23"
    underline-position="-147"
    unicode-range="U+0020-U+FB02"
  />
<missing-glyph horiz-adv-x="595" 
 />
    <glyph glyph-name=".notdef" horiz-adv-x="595" 
 />
    <glyph glyph-name=".null" horiz-adv-x="0" 
 />
    <glyph glyph-name="nonmarkingreturn" horiz-adv-x="333" 
 />
    <glyph glyph-name="space" unicode=" " horiz-adv-x="296" 
 />
    <glyph glyph-name="exclam" unicode="!" horiz-adv-x="237" 
d="M156 715h-74v-525l74 -25v550zM119 -9h1q-22 0 -37 15t-15 36q0 22 14.5 37.5t34.5 15.5q22 0 37 -15.5t16 -37.5q0 -21 -15 -36t-36 -15z" />
    <glyph glyph-name="quotedbl" unicode="&#x22;" horiz-adv-x="361" 
d="M244 477l-31 231h76v-213zM103 477l-31 231h77v-213z" />
    <glyph glyph-name="numbersign" unicode="#" horiz-adv-x="594" 
d="M439 377l-20 -136h96v-66h-107l-27 -170l-73 -25l29 195h-119l-30 -163l-71 -31l29 194h-97v66h108l18 136h-96v67h107l27 165l74 27l-30 -192h120l22 158l78 33l-28 -191h96v-67h-106zM248 377l-19 -136h118l20 136h-119z" />
    <glyph glyph-name="dollar" unicode="$" horiz-adv-x="462" 
d="M263 275v-212q21 5 43 21q47 36 47 87q0 37 -21.5 61.5t-68.5 42.5zM200 390v188q-83 -17 -85 -99q-1 -31 19.5 -52t65.5 -37zM263 -90l-63 -22l1 106q-51 3 -101 25t-82 52l33 53q25 -23 67 -43t82 -23v238l-18 6q-80 26 -113 60q-37 40 -37 102q0 73 45.5 121t122.5 57
v76l63 22l-1 -97q65 -7 132 -57l-33 -50q-50 37 -98 44v-211l29 -10q76 -24 113 -68q35 -39 35 -108q0 -91 -86 -152q-42 -27 -91 -34v-87z" />
    <glyph glyph-name="percent" unicode="%" horiz-adv-x="710" 
d="M553 681l-334 -681h-72l334 681h72zM541 -12l-1 -1q-67 1 -103 51.5t-36 121.5q0 67 38.5 115t102.5 48q64 -1 101.5 -48.5t37.5 -115.5q0 -70 -36.5 -121t-103.5 -50zM162 352q-67 1 -103 51.5t-36 120.5q0 67 38.5 115t101.5 48q64 -1 101.5 -48.5t37.5 -115.5
q0 -70 -36.5 -121t-103.5 -50zM540 273q-74 -5 -74 -115q0 -52 17.5 -88.5t56.5 -36.5q76 2 74 126q0 47 -17.5 79.5t-56.5 34.5zM162 639q-74 -5 -74 -116q0 -52 17.5 -88.5t56.5 -35.5q75 2 75 125q0 47 -17.5 79.5t-57.5 35.5z" />
    <glyph glyph-name="ampersand" unicode="&#x26;" horiz-adv-x="579" 
d="M578 343h-107v-343h-229q-81 5 -137.5 59.5t-55.5 133.5q3 142 134 189q-62 37 -63 107q-1 66 44 103t108 37q74 0 129 -35l-21 -39q-57 27 -106 24q-36 0 -58.5 -26.5t-21.5 -60.5q0 -36 23.5 -66.5t65.5 -30.5h115v81l73 25v-106h107v-52zM398 49v294l-117 1
q-74 3 -111.5 -44t-35.5 -111q1 -56 32.5 -95t87.5 -45q24 -3 52.5 -3t56 1.5t35.5 1.5z" />
    <glyph glyph-name="quotesingle" unicode="'" horiz-adv-x="271" 
d="M119 477l-19 231h71v-213z" />
    <glyph glyph-name="parenleft" unicode="(" horiz-adv-x="350" 
d="M111 157v1q18 -134 91 -221q39 -48 106 -102l35 32q-96 89 -117 144q-29 67 -39 128t-10 155q-1 94 9 155t40 128q22 55 118 144l-36 33q-67 -54 -106 -101q-73 -88 -91 -221q-9 -62 -9 -138q-1 -76 9 -137z" />
    <glyph glyph-name="parenright" unicode=")" horiz-adv-x="350" 
d="M239 157v1q-18 -134 -91 -221q-39 -48 -106 -102l-35 32q96 89 117 144q29 67 39 128t10 155q1 94 -9 155t-40 128q-22 55 -118 144l36 33q67 -54 106 -101q73 -88 91 -221q9 -61 9 -138q1 -76 -9 -137z" />
    <glyph glyph-name="asterisk" unicode="*" horiz-adv-x="357" 
d="M204 500l2 -114h-59l3 114l-95 -59l-30 51l99 55l-99 49l28 54l97 -55l-3 111h59l-2 -111l97 58l31 -50l-101 -56l99 -54l-29 -52z" />
    <glyph glyph-name="plus" unicode="+" horiz-adv-x="455" 
d="M260 216v-147l-69 -28v175h-143l-1 68h144v147l69 27v-174h147v-68h-147z" />
    <glyph glyph-name="comma" unicode="," horiz-adv-x="258" 
d="M122 -70v1q-13 -14 -35 -28l-16 22q17 11 29 29t16 30t3 13q-22 0 -37 15t-15 35q0 22 14.5 37.5t35.5 15.5q20 0 34.5 -13t16.5 -33q6 -71 -46 -124z" />
    <glyph glyph-name="hyphen" unicode="-" horiz-adv-x="331" 
d="M68 229v76h30h161v-76h-191z" />
    <glyph glyph-name="period" unicode="." horiz-adv-x="229" 
d="M115 -9h1q-22 0 -37 15t-16 36q0 22 14.5 37.5t35.5 15.5q22 0 37 -15.5t15 -37.5q0 -21 -15 -36t-35 -15z" />
    <glyph glyph-name="slash" unicode="/" horiz-adv-x="263" 
d="M27 -154l-63 22l271 900l64 -22z" />
    <glyph glyph-name="zero" unicode="0" horiz-adv-x="449" 
d="M31 227h-1q0 92 52.5 156.5t139.5 65.5q86 -1 137.5 -65.5t51.5 -156.5q0 -98 -49.5 -166.5t-140.5 -69.5q-92 1 -141 69.5t-49 166.5zM105 227h1q0 -47 9.5 -86.5t36 -70t68.5 -30.5q115 4 115 187q0 69 -27.5 119t-88.5 53q-114 -7 -114 -172z" />
    <glyph glyph-name="one" unicode="1" horiz-adv-x="261" 
d="M113 0v367l-71 -15l-17 44l161 54v-450h-73z" />
    <glyph glyph-name="two" unicode="2" horiz-adv-x="406" 
d="M280 329v-1q9 -43 -13 -73t-83 -75q-42 -31 -166 -114q5 -13 17 -35.5t15 -30.5h324v68h-259q7 5 66 42.5t88 59.5q60 46 78 83.5t11 84.5q-9 58 -56 84.5t-112 27.5q-32 1 -69.5 -10.5t-64.5 -28.5l22 -39q59 28 102 30q85 -3 100 -73z" />
    <glyph glyph-name="three" unicode="3" horiz-adv-x="416" 
d="M321 321l-1 -1q2 63 -52 101q-47 31 -112 27t-118 -37l18 -36q61 28 102 26q34 -2 59.5 -19.5t30.5 -53.5q10 -78 -105 -111q-25 -6 -84 -8l-1 -47q107 0 126 -2q58 -5 93.5 -45t35.5 -96q0 -46 -16.5 -79.5t-50 -56.5t-69.5 -37t-91 -29l17 -43q41 9 68.5 16.5t72.5 27
t72.5 43.5t50 66t23.5 95q2 65 -38 116.5t-109 69.5q76 40 78 113z" />
    <glyph glyph-name="four" unicode="4" horiz-adv-x="449" 
d="M421 0h-80v-203l-73 -24v227h-264l262 425l75 24v-398h80v-51zM268 331l-173 -280h173v280z" />
    <glyph glyph-name="five" unicode="5" horiz-adv-x="431" 
d="M396 20h1q-1 -30 -8 -56.5t-17 -46.5t-28 -38t-32.5 -30t-39.5 -24t-40 -18t-42.5 -14t-39 -10.5t-36.5 -8.5l-18 43q112 31 167.5 73.5t56.5 129.5q1 57 -33.5 100.5t-91.5 48.5q-9 1 -149 1v271h290l-26 -51h-193v-164h82q92 -1 145.5 -63t51.5 -143z" />
    <glyph glyph-name="six" unicode="6" horiz-adv-x="473" 
d="M330 669l18 -43q-79 -14 -119 -37q-86 -45 -104 -140q-9 -46 -11 -85q30 22 70.5 36.5t79.5 11.5q91 -1 139 -64.5t43 -151.5q-11 -202 -214 -205q-64 -1 -110 32.5t-67 96.5q-25 73 -19 197q5 87 25 153q37 117 146 168q50 23 123 31zM112 303q-9 -126 25 -195.5
t97 -71.5q64 -2 101 46.5t38 111.5q0 28 -5.5 53.5t-18 51.5t-38 41.5t-59.5 16.5q-30 3 -65 -10.5t-55 -28.5z" />
    <glyph glyph-name="seven" unicode="7" horiz-adv-x="388" 
d="M104 -227l-48 18l236 575h-282l36 75h333z" />
    <glyph glyph-name="eight" unicode="8" horiz-adv-x="462" 
d="M423 186q0 -80 -48.5 -137.5t-147.5 -57.5t-146.5 57.5t-47.5 137.5q0 61 32.5 110.5t97.5 70.5q-44 15 -67.5 53t-23.5 77q0 64 45 105t111 41t112 -41t46 -104q0 -40 -23.5 -78t-67.5 -53q64 -21 96 -70t32 -111zM323 501q0 39 -27 71.5t-67 33.5q-40 0 -67 -32.5
t-27 -71.5q0 -42 26 -77.5t68 -35.5t68 35.5t26 76.5zM346 188v-1q1 55 -29.5 103.5t-87.5 48.5t-88.5 -49t-30.5 -103q1 -39 9.5 -70.5t36 -57t71.5 -25.5t72 25.5t37 57.5t10 71z" />
    <glyph glyph-name="nine" unicode="9" horiz-adv-x="485" 
d="M152 -231l-18 43q77 14 120 36q86 45 103 140q10 46 11 86q-30 -22 -70.5 -36.5t-79.5 -11.5q-83 0 -134.5 65.5t-46.5 150.5q11 203 213 204q64 1 110 -32.5t67 -96.5q24 -72 20 -196q-5 -87 -25 -153q-37 -117 -146 -168q-50 -23 -124 -31zM370 134l1 1q9 126 -25 195
t-98 71t-101 -46.5t-37 -110.5q0 -38 9 -72t37.5 -62.5t73.5 -29.5q30 -3 65 10.5t55 28.5z" />
    <glyph glyph-name="colon" unicode=":" horiz-adv-x="246" 
d="M126 303h1q-22 0 -37 15t-16 36q0 22 14.5 37.5t35.5 15.5q22 0 37 -15.5t15 -37.5q0 -21 -15 -36t-35 -15zM127 -1h1q-22 0 -37 15t-16 36q0 22 14.5 37.5t35.5 15.5q22 0 37 -15.5t15 -37.5q0 -21 -15 -36t-35 -15z" />
    <glyph glyph-name="semicolon" unicode=";" horiz-adv-x="252" 
d="M131 292q-22 0 -37.5 15.5t-16.5 37.5q0 22 15.5 37.5t37.5 15.5t37.5 -15.5t16.5 -37.5q0 -22 -15.5 -37.5t-37.5 -15.5zM134 -70l-1 1q-13 -14 -34 -28l-17 22q16 11 28.5 29.5t16.5 29.5t4 13q-22 0 -37 15t-16 35q0 22 14.5 37.5t36.5 15.5q20 0 34.5 -13t16.5 -33
q6 -71 -46 -124z" />
    <glyph glyph-name="less" unicode="&#x3c;" horiz-adv-x="340" 
d="M240 46l-196 254l196 254l56 -36l-168 -218l168 -218z" />
    <glyph glyph-name="equal" unicode="=" horiz-adv-x="665" 
d="M572 360h-497l-26 53h523v-53zM72 186v53h497l26 -53h-523z" />
    <glyph glyph-name="greater" unicode="&#x3e;" horiz-adv-x="340" 
d="M101 46l195 254l-195 254l-57 -36l168 -218l-168 -218z" />
    <glyph glyph-name="question" unicode="?" horiz-adv-x="404" 
d="M254 328v1q-41 -13 -72 -14v-125l-76 -26v208h48q49 -3 85.5 24t48.5 67.5t7.5 83t-36 75.5t-82.5 40q-75 11 -146 -42l-31 38q94 67 194 57q82 -9 137.5 -60t56.5 -136q3 -137 -134 -191zM146 -8q-22 0 -37 15t-15 36q0 22 14.5 37.5t35.5 15.5q22 0 37 -15.5t15 -37.5
q0 -21 -15 -36t-35 -15z" />
    <glyph glyph-name="at" unicode="@" horiz-adv-x="772" 
d="M593 217q-40 -5 -71 10q-8 4 -11 6q-64 -60 -155 -59q-49 1 -84 35.5t-34 82.5q1 51 36.5 82t87.5 31h94v31q0 28 -22 47t-51 19q-42 0 -95 -25l-16 37q59 32 124 32q48 0 84 -29t36 -77v-153q8 -10 25.5 -18t33.5 -6q84 9 87 126q4 58 -26.5 114t-72.5 84
q-74 49 -164 50q-121 0 -206.5 -86t-84.5 -207q0 -121 86.5 -207t207.5 -86q67 0 129.5 30.5t104.5 82.5q5 -5 18.5 -15t20.5 -16q-50 -64 -122 -101t-154 -38q-145 0 -247 102.5t-102 247.5t102 247.5t247 101.5q110 0 201 -62q82 -57 111 -157t-15 -181q-34 -62 -103 -76z
M454 362h-75q-34 0 -55 -18t-20 -50q0 -30 22 -53t55 -23q45 0 73 28v116z" />
    <glyph glyph-name="A" unicode="A" horiz-adv-x="517" 
d="M438 0l-67 196h-243l-72 -196h-55l228 620l71 23l216 -643h-78zM256 542l-110 -299h210z" />
    <glyph glyph-name="B" unicode="B" horiz-adv-x="530" 
d="M488 193q1 -78 -55.5 -134t-136.5 -64q-37 -4 -74.5 3t-64 19.5t-48 26t-31.5 22.5l-11 10v554h197q64 0 109.5 -37.5t44.5 -104.5q-1 -70 -63 -107q132 -52 133 -188zM344 491q0 35 -26 61t-63 28h-115l-1 -190l129 1q37 0 56.5 31.5t19.5 68.5zM405 190l-1 -1
q0 59 -37 108t-109 46h-118l-1 -251q22 -20 62.5 -36.5t78.5 -11.5q57 8 91 49.5t34 96.5z" />
    <glyph glyph-name="C" unicode="C" horiz-adv-x="544" 
d="M289 -6h-1q-77 0 -136.5 53.5t-87 128t-25.5 149.5q2 58 18.5 113.5t47.5 102.5t81 75t111 27q115 -3 183 -53l-26 -44q-65 43 -146 41q-48 0 -83.5 -25t-54.5 -66t-28 -84t-10 -88q-1 -41 8.5 -86t29 -87.5t54.5 -70t80 -27.5q34 0 65.5 9t49.5 18.5l68 37.5l28 -44
q-102 -80 -226 -80z" />
    <glyph glyph-name="D" unicode="D" horiz-adv-x="556" 
d="M514 305q0 -123 -70.5 -217.5t-180.5 -94.5q-103 0 -199 78v560l202 -1q62 0 111 -28.5t78 -76t44 -103.5t15 -117zM431 297q0 278 -214 283h-79v-492q48 -44 110 -44q86 0 134.5 78t48.5 175z" />
    <glyph glyph-name="E" unicode="E" horiz-adv-x="453" 
d="M420 631l-25 -51h-253v-216h210l-26 -50h-184v-264h272v-50h-344l-1 630z" />
    <glyph glyph-name="F" unicode="F" horiz-adv-x="409" 
d="M71 630h350l-26 -51h-252v-215h211l-27 -50h-183v-314h-73v630z" />
    <glyph glyph-name="G" unicode="G" horiz-adv-x="558" 
d="M331 341l-24 -49h125v-201q-64 -39 -127 -39q-59 0 -100.5 48t-57.5 107.5t-15 116.5q1 45 10 88t28 84t54.5 66t83.5 25q82 0 146 -42l26 44q-45 29 -86 40t-98 13q-61 1 -111 -27t-80.5 -74.5t-47 -102.5t-17.5 -114q-2 -75 25.5 -149t87 -127.5t136.5 -53.5
q61 0 111 19t105 63v264z" />
    <glyph glyph-name="H" unicode="H" horiz-adv-x="571" 
d="M140 351v291l-74 -25v-617h74v299h299v-299h74v630h-74v-279h-299z" />
    <glyph glyph-name="I" unicode="I" horiz-adv-x="225" 
d="M152 0h-74v617l74 25v-642z" />
    <glyph glyph-name="J" unicode="J" horiz-adv-x="346" 
d="M286 207q0 -109 -51 -162t-142 -53q-38 0 -79 19l16 46l15 -5q15 -5 21 -6q38 -5 66 2.5t43 23t23.5 40.5t11 46.5t2.5 48.5v411l74 25v-436z" />
    <glyph glyph-name="K" unicode="K" horiz-adv-x="498" 
d="M486 0h-88l-215 321l-46 -50v-271h-73v618l73 25v-295l267 295l41 -34l-210 -231z" />
    <glyph glyph-name="L" unicode="L" horiz-adv-x="400" 
d="M373 0l-27 52h-206v590l-73 -24v-618h306z" />
    <glyph glyph-name="M" unicode="M" horiz-adv-x="736" 
d="M677 0h-73v520l-199 -507l-62 -22l-206 511v-502h-51v618l73 24l226 -538l207 526h85v-630z" />
    <glyph glyph-name="N" unicode="N" horiz-adv-x="608" 
d="M541 0h-72l-353 516v-516h-51v623l58 20l368 -538v525h50v-630z" />
    <glyph glyph-name="O" unicode="O" horiz-adv-x="626" 
d="M574 325h-1q0 -81 -30 -155.5t-93.5 -126.5t-147.5 -52t-147.5 52t-93.5 126.5t-30 155.5q0 127 74 223t197 96q83 0 146.5 -47t94.5 -119t31 -153zM489 325q0 64 -19.5 122.5t-63.5 99.5t-104 41t-104.5 -41t-64 -99.5t-20.5 -122.5q0 -109 51 -193t137 -84t137 84
t51 193z" />
    <glyph glyph-name="P" unicode="P" horiz-adv-x="455" 
d="M134 295v-295h-73v631q119 0 199 1q76 -1 127 -50t52 -120q0 -72 -48 -119.5t-120 -47.5h-137zM365 464q0 45 -34 80t-80 35h-117v-234h115q52 0 84 33t32 86z" />
    <glyph glyph-name="Q" unicode="Q" horiz-adv-x="609" 
d="M458 -77h32l-31 -62q-66 -5 -118 33t-62 98q-114 10 -181 110.5t-67 222.5q0 127 74 223t197 96q83 0 146.5 -47t94.5 -119t31 -153q0 -117 -63.5 -216t-171.5 -115q8 -35 41 -53t78 -18zM490 325q0 64 -19.5 122.5t-63.5 99.5t-104 41t-104.5 -41t-64 -99.5
t-20.5 -122.5q0 -109 51 -193t137 -84t137 84t51 193z" />
    <glyph glyph-name="R" unicode="R" horiz-adv-x="492" 
d="M443 0h-88l-167 295h-53v-295h-73v631h199q75 0 126.5 -49.5t52.5 -120.5q0 -72 -48 -119t-120 -47zM366 463q0 45 -34 80.5t-80 35.5h-117v-234l116 1q51 0 83 33.5t32 83.5z" />
    <glyph glyph-name="S" unicode="S" horiz-adv-x="462" 
d="M353 32v-1q-60 -38 -140 -38q-53 0 -107 22.5t-88 54.5l31 51q31 -26 76.5 -46t88.5 -19q57 0 94 26q47 36 47 89q0 41 -26.5 67t-83.5 44l-63 21q-80 26 -113 60q-37 38 -37 101q0 80 55.5 130t146.5 50q81 0 159 -57l-31 -48q-60 44 -124 45q-58 0 -91 -28t-34 -76
q-1 -35 25 -57.5t83 -41.5l71 -23q76 -24 113 -68q35 -39 35 -108q0 -91 -87 -150z" />
    <glyph glyph-name="T" unicode="T" horiz-adv-x="417" 
d="M422 581h-185v-581h-74v581h-188l23 49l424 1v-50z" />
    <glyph glyph-name="U" unicode="U" horiz-adv-x="572" 
d="M463 630h57v-416q0 -98 -65.5 -161t-164.5 -62q-96 0 -160.5 62t-64.5 160v405l74 25l1 -418q0 -83 39 -129t117 -45q78 0 122 48t45 128v403z" />
    <glyph glyph-name="V" unicode="V" horiz-adv-x="494" 
d="M284 11l-55 -20l-223 625l72 27l187 -521l186 520l47 -17z" />
    <glyph glyph-name="W" unicode="W" horiz-adv-x="747" 
d="M751 634l-165 -623l-56 -20l-154 543l-137 -523l-57 -20l-176 626l71 25l141 -509l134 484l72 25l141 -509l143 510z" />
    <glyph glyph-name="X" unicode="X" horiz-adv-x="642" 
d="M495 0l-173 274l-181 -274h-61l212 320l-190 299l74 24l160 -255l167 254l50 -19l-187 -282l216 -341h-87z" />
    <glyph glyph-name="Y" unicode="Y" horiz-adv-x="424" 
d="M250 284v-284h-73v293l-184 324l70 26l165 -292l162 292l47 -19z" />
    <glyph glyph-name="Z" unicode="Z" horiz-adv-x="545" 
d="M531 51h-1l1 -51h-496l349 580h-329l25 50h420l-348 -579h379z" />
    <glyph glyph-name="bracketleft" unicode="[" horiz-adv-x="256" 
d="M121 697h80l23 51h-175v-888l165 1v51h-93v785z" />
    <glyph glyph-name="backslash" unicode="\" horiz-adv-x="349" 
d="M279 -154l64 22l-272 900l-64 -22z" />
    <glyph glyph-name="bracketright" unicode="]" horiz-adv-x="256" 
d="M135 697h-80l-24 51h176v-888l-165 1v51h93v785z" />
    <glyph glyph-name="asciicircum" unicode="^" horiz-adv-x="652" 
d="M509 345l-183 284l-183 -284l-61 23l214 345h60l214 -346z" />
    <glyph glyph-name="underscore" unicode="_" 
d="M22 -125l-18 50h496v-50h-478z" />
    <glyph glyph-name="grave" unicode="`" horiz-adv-x="338" 
d="M258 507l35 36l-198 118l-29 -59z" />
    <glyph glyph-name="a" unicode="a" horiz-adv-x="433" 
d="M379 67q-76 -76 -197 -75q-60 2 -101.5 44t-40.5 101q1 62 44 99.5t107 36.5h119v43q0 36 -28.5 60t-66.5 24q-55 0 -115 -31l-18 42q71 38 152 38q58 0 101.5 -35.5t43.5 -93.5v-253zM308 77v150q-60 0 -96 -1q-43 0 -70.5 -23.5t-27.5 -63.5q0 -39 29 -68.5t71 -29.5
q28 -1 55 11t39 25z" />
    <glyph glyph-name="b" unicode="b" horiz-adv-x="485" 
d="M263 -9v1q-41 1 -77 9.5t-58 19.5t-38.5 22t-23.5 18l-6 7v605l71 24v-287q66 40 132 39q85 -3 130.5 -66.5t45.5 -153.5q-1 -101 -48 -170.5t-128 -67.5zM248 399q-54 4 -117 -33l1 -289q9 -12 44.5 -25t75.5 -11q30 1 52 19.5t33 48t16 58.5t5 59q0 166 -110 173z" />
    <glyph glyph-name="c" unicode="c" horiz-adv-x="402" 
d="M219 -9q-80 1 -129 68t-49 155q0 63 25 118.5t70 86.5q46 31 108.5 29.5t114.5 -33.5l-21 -39q-57 27 -105 24q-55 -3 -86.5 -60t-31.5 -126q0 -66 33.5 -119.5t91.5 -54.5q45 -1 121 35l19 -38q-71 -46 -161 -46z" />
    <glyph glyph-name="d" unicode="d" horiz-adv-x="492" 
d="M428 69q-98 -77 -210 -77q-57 0 -97.5 36t-58 86.5t-17.5 105.5q0 56 19 107t62 86.5t100 35.5q64 0 131 -32v257l70 24zM357 77v284q-63 39 -113 40q-43 0 -71.5 -32.5t-38.5 -72t-10 -81.5q0 -40 9.5 -78t37.5 -69.5t69 -31.5q56 0 117 41z" />
    <glyph glyph-name="e" unicode="e" horiz-adv-x="434" 
d="M390 40q-40 -26 -75 -37q-45 -16 -103 -11t-94 36t-56.5 80t-20.5 104q1 62 17 112.5t57 86t102 35.5q166 0 169 -219h-268q-6 -85 32 -137.5t100 -50.5q51 1 123 36zM312 270l1 -1q0 53 -24 92.5t-69 39.5q-48 0 -72 -38t-28 -93h192z" />
    <glyph glyph-name="f" unicode="f" horiz-adv-x="270" 
d="M264 703h-1q-91 0 -141.5 -53t-50.5 -163v-50h-47v-51h47v-386h73v386h101v51h-101l1 55q0 27 2 48.5t11 47t24 40.5t43 23t67 1l9 -3l16 44q-28 10 -53 10z" />
    <glyph glyph-name="g" unicode="g" horiz-adv-x="473" 
d="M423 368l-1 -336q0 -114 -25 -159q-25 -48 -87.5 -73t-127.5 -27l-11 46q89 13 122 31q30 16 44 42q16 30 16 115v31q-71 -47 -142 -46q-57 0 -97.5 35t-58 85t-17.5 106q0 85 46 157.5t126 72.5q121 0 213 -80zM350 86v273q-63 39 -113 39q-43 0 -71 -31.5t-38 -70
t-10 -80.5q0 -40 9.5 -77t37 -67.5t67.5 -30.5q21 0 43.5 7.5t35.5 14.5t39 23z" />
    <glyph glyph-name="h" unicode="h" horiz-adv-x="470" 
d="M421 0h-74v282q0 43 -21.5 76t-62.5 33q-50 0 -125 -53v-338h-73v674l73 23v-307q70 51 153 51q58 0 94 -39t36 -97v-305z" />
    <glyph glyph-name="i" unicode="i" horiz-adv-x="223" 
d="M80 0v425l72 24v-449h-72zM68 590v1q0 20 14 33.5t34 13.5t33.5 -14t13.5 -34t-14 -33.5t-34 -13.5q-19 0 -33 13.5t-14 33.5z" />
    <glyph glyph-name="j" unicode="j" horiz-adv-x="290" 
d="M218 450l-73 -26l-1 -465q0 -27 -2.5 -48t-11 -46t-23.5 -39.5t-42.5 -22.5t-65.5 -3q-15 3 -36 12l-16 -48q42 -18 79 -18q91 0 141.5 53.5t50.5 162.5v488zM134 590v1q0 20 14 33.5t34 13.5t33.5 -14t13.5 -34t-14 -33.5t-34 -13.5q-19 0 -33 13.5t-14 33.5z" />
    <glyph glyph-name="k" unicode="k" horiz-adv-x="408" 
d="M413 0h-86l-153 235l-41 -37v-198h-73v672l73 25v-432l205 186l36 -34l-145 -131z" />
    <glyph glyph-name="l" unicode="l" horiz-adv-x="232" 
d="M220 -7q-72 -7 -112.5 23t-40.5 87v571l71 23v-592q0 -41 20 -56.5t62 -17.5v-38z" />
    <glyph glyph-name="m" unicode="m" horiz-adv-x="689" 
d="M627 330v-330h-73l-1 298q0 106 -105 102q-34 -1 -74 -32q4 -12 4 -33v-335h-73v298q0 108 -107 101q-18 -1 -38 -11t-30 -21v-367h-73v376q54 40 91.5 56t94.5 17q66 0 106 -43q68 42 143 43q53 0 94 -33.5t41 -85.5z" />
    <glyph glyph-name="n" unicode="n" horiz-adv-x="459" 
d="M405 0h-73v298q0 49 -29.5 76.5t-78.5 26.5q-52 -1 -99 -34v-367h-73v376q63 46 116 60q78 22 137 8q43 -10 71.5 -38.5t28.5 -70.5v-335z" />
    <glyph glyph-name="o" unicode="o" horiz-adv-x="488" 
d="M39 227q0 92 54.5 156.5t145.5 65.5q91 -1 145.5 -65.5t55.5 -156.5q0 -98 -52.5 -166.5t-149.5 -69.5q-96 1 -147.5 69.5t-51.5 166.5zM118 227h1q0 -76 28.5 -133t92.5 -58q120 4 120 191q0 44 -10 79.5t-39 63t-73 29.5q-120 -7 -120 -172z" />
    <glyph glyph-name="p" unicode="p" 
d="M269 448l-1 1q-41 -1 -77.5 -9t-59 -19t-38.5 -22.5t-23 -19t-6 -7.5l-1 -575l72 -26v259q66 -40 132 -40q85 3 130.5 66.5t45.5 154.5q-1 103 -45 170.5t-129 66.5zM251 42q-51 -3 -117 38v285q12 12 46.5 25t75.5 10q103 -5 103 -184q0 -167 -108 -174z" />
    <glyph glyph-name="q" unicode="q" horiz-adv-x="496" 
d="M222 -9v1q-57 0 -97.5 35.5t-58 85t-17.5 104.5q0 92 48.5 161.5t135.5 69.5q53 0 109 -22t92 -59v-568l-73 -28v267q-38 -25 -66.5 -35.5t-72.5 -11.5zM361 361q-54 39 -113 40q-43 0 -70.5 -32t-36.5 -70.5t-9 -80.5q0 -29 5.5 -58t17.5 -57t35 -45.5t54 -17.5
q21 0 43.5 8t34.5 15t39 24v274z" />
    <glyph glyph-name="r" unicode="r" horiz-adv-x="326" 
d="M242 394h-1q-60 0 -107 -40v-354h-73v364q42 47 104 68q76 28 147 15q-25 -50 -29 -59q-28 6 -41 6z" />
    <glyph glyph-name="s" unicode="s" horiz-adv-x="376" 
d="M173 -12q-76 0 -140 49l26 42q49 -37 113 -39q41 0 72.5 19.5t30.5 57.5q0 20 -13.5 34.5t-24 19.5t-35.5 15q-33 13 -41 15q-56 21 -78 38q-42 30 -42 83q0 60 45.5 95t107.5 35q60 0 127 -37l-27 -43q-48 27 -96 29q-35 0 -61.5 -18t-27.5 -51q0 -32 38 -49
q25 -12 80 -33q59 -24 78 -39q42 -33 42 -85q-1 -66 -53 -102t-121 -36z" />
    <glyph glyph-name="t" unicode="t" horiz-adv-x="278" 
d="M79 391h-50v47h50v122l73 26v-148h82v-47h-82v-285q0 -41 20 -56.5t62 -17.5v-38q-72 -7 -113.5 23t-41.5 87v287z" />
    <glyph glyph-name="u" unicode="u" horiz-adv-x="465" 
d="M54 424l75 25v-306q0 -49 32 -77t81 -27q48 1 99 35v367h73v-377q-100 -72 -218 -72q-56 0 -99 32.5t-43 93.5v306z" />
    <glyph glyph-name="v" unicode="v" horiz-adv-x="448" 
d="M267 10l-65 -21l-181 440l67 28l153 -368l139 362l45 -22z" />
    <glyph glyph-name="w" unicode="w" horiz-adv-x="616" 
d="M485 13l-60 -21l-115 349l-94 -328l-60 -21l-141 433l67 24l112 -341l89 317l67 24l113 -341l96 341l45 -16z" />
    <glyph glyph-name="x" unicode="x" horiz-adv-x="441" 
d="M408 0h-87l-111 165l-113 -165l-64 1l145 212l-139 205l70 23l111 -167l111 164l54 -18l-133 -193z" />
    <glyph glyph-name="y" unicode="y" horiz-adv-x="485" 
d="M137 142v1q0 -49 31.5 -75.5t81.5 -25.5t107 39v357h73v-397q0 -122 -24 -168q-25 -48 -87.5 -73t-127.5 -27l-12 46q89 13 122 31q30 16 44 42q16 30 16 115q0 3 0.5 9t-0.5 10q-75 -34 -157 -34q-54 0 -97.5 35.5t-43.5 92.5v304l74 25v-307z" />
    <glyph glyph-name="z" unicode="z" horiz-adv-x="436" 
d="M387 0h-356l228 388h-220l25 50h305l-228 -388h246v-50z" />
    <glyph glyph-name="braceleft" unicode="{" horiz-adv-x="331" 
d="M293 -173q-81 24 -134 90q-36 45 -36 106l1 127q0 97 -101 123l-1 66q101 26 101 123l1 127q0 65 36 106q51 64 133 90l24 -47q-56 -21 -90.5 -61.5t-30.5 -85.5v-144q0 -96 -97 -141q97 -45 97 -141v-144q-4 -45 30 -85t90 -61z" />
    <glyph glyph-name="bar" unicode="|" horiz-adv-x="233" 
d="M154 -14l-74 -24v757l74 24v-757z" />
    <glyph glyph-name="braceright" unicode="}" horiz-adv-x="331" 
d="M208 150v-128q0 -61 -36 -106q-52 -65 -133 -89l-24 47q56 21 90 61t30 85v145q0 96 97 141q-97 45 -97 141v144q4 45 -30 85t-90 61l24 48q81 -24 133 -90q36 -45 36 -106v-127q0 -97 101 -123v-66q-101 -26 -101 -123z" />
    <glyph glyph-name="asciitilde" unicode="~" horiz-adv-x="409" 
d="M141 258h-1q-29 0 -66 -30l-26 37q49 49 111 49q23 0 56 -16.5t55 -16.5q30 0 65 30l27 -37q-49 -49 -111 -49q-23 0 -56 16.5t-54 16.5z" />
    <glyph glyph-name="nbspace" unicode="&#xa0;" horiz-adv-x="296" 
 />
    <glyph glyph-name="exclamdown" unicode="&#xa1;" horiz-adv-x="237" 
d="M81 0h74v516l-74 25v-541zM118 716l-1 -1q22 0 37 -15t15 -35q0 -22 -14.5 -37.5t-34.5 -16.5q-22 0 -37 15.5t-16 37.5q0 21 15 36t36 16z" />
    <glyph glyph-name="cent" unicode="&#xa2;" horiz-adv-x="402" 
d="M201 -94v86q-73 9 -116.5 74.5t-43.5 147.5q0 63 25 118.5t70 87.5q29 20 65 26v75l62 22l1 -95q52 -6 95 -33l-21 -39q-57 27 -105 24q-55 -3 -86.5 -60t-31.5 -126q0 -66 33.5 -119.5t91.5 -54.5q45 -1 121 35l19 -38q-54 -35 -117 -43l1 -66z" />
    <glyph glyph-name="sterling" unicode="&#xa3;" horiz-adv-x="538" 
d="M196 70h-166v-72h483l-24 72h-220v242h165l23 70h-188v128q0 27 2.5 48t11 46t23.5 39.5t42.5 22.5t65.5 3q13 -2 37 -12l15 47q-42 18 -78 19q-91 0 -141.5 -53.5t-50.5 -163.5v-124h-143v-70h143v-242z" />
    <glyph glyph-name="currency" unicode="&#xa4;" horiz-adv-x="492" 
d="M149 271q0 -61 23 -107.5t75 -46.5q96 2 98 153q0 56 -23.5 96.5t-75.5 43.5q-97 -6 -97 -139zM414 71l-48 -34l-45 63q-32 -19 -75 -20q-42 0 -75 19l-44 -62l-48 34l46 68q-40 52 -40 132q0 72 41 122l-47 67l48 35l44 -64q35 19 76 19q39 0 75 -18l43 63l49 -35
l-47 -65q40 -49 42 -125q0 -80 -42 -132z" />
    <glyph glyph-name="yen" unicode="&#xa5;" horiz-adv-x="424" 
d="M-25 180v48h202v65l-17 29h-183l-24 48h180l-140 247l70 26l165 -292l162 292l47 -19l-139 -254h172l-1 -48h-198l-21 -38v-56h217l25 -48h-242v-180h-73v180h-202z" />
    <glyph glyph-name="brokenbar" unicode="&#xa6;" horiz-adv-x="261" 
d="M161 756l-59 -26v-311h59v337zM159 -35l-59 26v313l59 1v-340z" />
    <glyph glyph-name="section" unicode="&#xa7;" horiz-adv-x="376" 
d="M394 335v1q0 -43 -24 -80t-51 -53q28 -32 27 -78q-1 -66 -52.5 -101.5t-120.5 -34.5q-77 0 -140 49l27 44q47 -39 113 -39q41 0 71 19t29 56q0 19 -13 33.5t-24.5 20t-34.5 13.5q-35 13 -40 15q-56 21 -78 38q-42 30 -42 83q0 44 22.5 83.5t49.5 55.5q-25 27 -25 68
q0 61 45.5 96t108.5 36q59 0 127 -39l-28 -44q-49 28 -97 28q-34 0 -59.5 -17t-25.5 -49t36 -48q35 -16 80 -33q57 -23 78 -39q42 -33 41 -84zM321 331h1q-1 12 -8.5 22.5t-14 15.5t-7.5 4q-17 10 -34.5 18t-27.5 11.5t-32.5 10.5t-30.5 10q-25 -13 -40 -40t-15 -50
q0 -32 36 -48l79 -33l2 -1q14 -5 37 -12q29 14 42 40t13 52z" />
    <glyph glyph-name="dieresis" unicode="&#xa8;" horiz-adv-x="465" 
d="M140 509h1q-21 0 -36.5 15t-16.5 36q0 22 15 37.5t35 15.5q22 0 37.5 -15.5t15.5 -37.5q0 -21 -15 -36t-36 -15zM337 509h1q-22 0 -37 15t-15 36q0 22 14.5 37.5t34.5 15.5q22 0 37 -15.5t16 -37.5q0 -21 -15 -36t-36 -15z" />
    <glyph glyph-name="copyright" unicode="&#xa9;" horiz-adv-x="813" 
d="M552 185q-71 -46 -161 -45q-80 1 -129 68t-49 155q0 63 25 118.5t70 86.5q46 31 108.5 29.5t114.5 -34.5l-21 -39q-57 27 -105 24q-55 -3 -86.5 -59.5t-31.5 -125.5q0 -66 33.5 -120t91.5 -55q47 -1 121 36zM404 -15v1q-152 0 -257 111t-104 270q0 160 105 271t256 112
q151 0 256.5 -111.5t105.5 -271.5q0 -159 -105.5 -270.5t-256.5 -111.5zM404 693q-126 0 -209.5 -95t-83.5 -230t83.5 -230t209.5 -95q125 0 209 95t84 230t-84 230t-209 95z" />
    <glyph glyph-name="ordfeminine" unicode="&#xaa;" horiz-adv-x="433" 
d="M342 396l-1 -1q-57 -57 -147 -54q-45 1 -76.5 32t-30.5 75q1 47 33.5 75t80.5 28h89v31q0 28 -21.5 46t-49.5 18q-42 0 -86 -23l-14 32q52 28 114 28q44 0 76.5 -26.5t32.5 -70.5v-190zM287 403l1 112h-73q-32 0 -52.5 -17.5t-19.5 -47.5q0 -29 21.5 -51.5t52.5 -23.5
q22 0 42 9t28 19zM390 241l-26 52h-309v-52h335z" />
    <glyph glyph-name="guillemotleft" unicode="&#xab;" horiz-adv-x="547" 
d="M416 52l-168 238l168 237l56 -35l-140 -202l140 -203zM242 52l-167 238l167 237l56 -35l-140 -202l140 -203z" />
    <glyph glyph-name="logicalnot" unicode="&#xac;" 
 />
    <glyph glyph-name="registered" unicode="&#xae;" horiz-adv-x="813" 
d="M765 354q0 -160 -105.5 -271t-256.5 -111t-256.5 111t-105.5 271t105.5 271t256.5 111t256.5 -111t105.5 -271zM707 354q0 139 -87 237.5t-217 98.5q-131 0 -217.5 -98.5t-86.5 -237.5t86.5 -237.5t217.5 -98.5q130 0 217 98.5t87 237.5zM494 124l-127 224h-38v-224h-58
v483h151q58 0 97.5 -38t40.5 -94q0 -55 -36 -90.5t-90 -36.5l129 -224h-69zM416 564h-87v-175h85q38 0 62.5 25.5t25.5 62.5q0 34 -25.5 60.5t-60.5 26.5z" />
    <glyph glyph-name="macron" unicode="&#xaf;" horiz-adv-x="424" 
d="M391 510l-26 52h-309v-52h335z" />
    <glyph glyph-name="degree" unicode="&#xb0;" horiz-adv-x="433" 
d="M223 509h-1q-38 0 -65.5 28t-27.5 68q0 39 28.5 67t67.5 28q38 0 65.5 -28t27.5 -68q0 -39 -28 -67t-67 -28zM224 661v-1q-24 0 -41 -16.5t-17 -39.5t17 -39.5t39 -15.5q23 0 39.5 17t15.5 39q0 23 -15.5 39.5t-37.5 16.5z" />
    <glyph glyph-name="plusminus" unicode="&#xb1;" 
 />
    <glyph glyph-name="twosuperior" unicode="&#xb2;" 
 />
    <glyph glyph-name="threesuperior" unicode="&#xb3;" 
 />
    <glyph glyph-name="acute" unicode="&#xb4;" horiz-adv-x="465" 
d="M148 507l-35 36l198 118l29 -59z" />
    <glyph glyph-name="mu" unicode="&#xb5;" horiz-adv-x="465" 
d="M54 -227v651l75 25v-306q0 -49 32 -77t81 -27q48 1 99 35v367h73v-377q-100 -72 -218 -72q-36 0 -69 15v-234h-73z" />
    <glyph glyph-name="paragraph" unicode="&#xb6;" horiz-adv-x="493" 
d="M361 -90v675h-77v-699l-72 24v371q-72 1 -122.5 52t-50.5 122q0 72 50.5 123t122.5 52h221v-744z" />
    <glyph glyph-name="periodcentered" unicode="&#xb7;" horiz-adv-x="246" 
d="M126 214h1q-22 0 -37 15t-16 36q0 22 14.5 37.5t35.5 15.5q22 0 37 -15.5t15 -37.5q0 -21 -15 -36t-35 -15z" />
    <glyph glyph-name="cedilla" unicode="&#xb8;" horiz-adv-x="351" 
d="M178 -27l-1 1q22 -3 22 -5q64 -9 64 -73q0 -31 -26 -56.5t-71 -25.5q-33 0 -79 21l16 36q32 -15 62 -16q18 0 32.5 12t14.5 31t-15.5 28t-33.5 9h-32v84h47v-46z" />
    <glyph glyph-name="onesuperior" unicode="&#xb9;" 
 />
    <glyph glyph-name="ordmasculine" unicode="&#xba;" horiz-adv-x="488" 
d="M89 515v1q0 69 41.5 117t109.5 48q68 -1 108.5 -49t40.5 -117q0 -73 -39 -124.5t-111 -52.5q-72 1 -111 52t-39 125zM148 516q0 -57 22 -100t70 -43q90 2 90 143q0 52 -21.5 89t-70.5 40q-90 -6 -90 -129zM414 243l-26 52h-309v-52h335z" />
    <glyph glyph-name="guillemotright" unicode="&#xbb;" horiz-adv-x="547" 
d="M131 52l167 238l-167 237l-56 -35l140 -202l-140 -203zM305 52l167 238l-167 237l-57 -35l140 -202l-140 -203z" />
    <glyph glyph-name="onequarter" unicode="&#xbc;" 
 />
    <glyph glyph-name="onehalf" unicode="&#xbd;" horiz-adv-x="435" 
 />
    <glyph glyph-name="threequarters" unicode="&#xbe;" 
 />
    <glyph glyph-name="questiondown" unicode="&#xbf;" horiz-adv-x="404" 
d="M150 377q41 13 72 14v125l76 25v-207h-48q-49 3 -85.5 -24t-48.5 -67.5t-7.5 -83t36 -76t82.5 -40.5q75 -11 147 43l31 -38q-94 -67 -195 -57q-82 9 -137.5 60t-56.5 135q-3 137 134 191zM258 715q22 0 37 -15t15 -36q0 -22 -14.5 -37.5t-35.5 -15.5q-22 0 -37 15.5
t-15 37.5q0 21 15 36t35 15z" />
    <glyph glyph-name="Agrave" unicode="&#xc0;" horiz-adv-x="517" 
d="M329 685l35 36l-198 118l-29 -59zM438 0l-67 196h-243l-72 -196h-55l228 620l71 23l216 -643h-78zM255 542h1l-110 -299h210z" />
    <glyph glyph-name="Aacute" unicode="&#xc1;" horiz-adv-x="517" 
d="M438 0l-67 196h-243l-72 -196h-55l228 620l71 23l216 -643h-78zM256 542l-110 -299h210zM172 685l-35 36l198 118l29 -59z" />
    <glyph glyph-name="Acircumflex" unicode="&#xc2;" horiz-adv-x="517" 
d="M403 682l-140 78l-136 -78l-29 41l165 119l174 -119zM438 0l-67 196h-243l-72 -196h-55l228 620l71 23l216 -643h-78zM255 542h1l-110 -299h210z" />
    <glyph glyph-name="Atilde" unicode="&#xc3;" horiz-adv-x="517" 
d="M215 718h-1q-29 0 -66 -30l-26 38q49 49 111 48q23 0 56 -16.5t55 -16.5q30 0 65 30l27 -37q-49 -49 -111 -49q-23 0 -56 16.5t-54 16.5zM437 0l-67 196h-243l-72 -196h-55l228 620l71 23l216 -643h-78zM254 542h1l-110 -299h210z" />
    <glyph glyph-name="Adieresis" unicode="&#xc4;" horiz-adv-x="517" 
d="M171 685h1q-21 0 -36.5 15t-16.5 36q0 22 15 37.5t35 15.5q22 0 37.5 -15.5t15.5 -37.5q0 -21 -15 -36t-36 -15zM368 685h1q-22 0 -37 15t-15 36q0 22 14.5 37.5t35.5 15.5q22 0 37 -15.5t15 -37.5q0 -21 -15 -36t-36 -15zM440 0l-67 196h-243l-72 -196h-55l228 620
l71 23l216 -643h-78zM257 542h1l-110 -299h210z" />
    <glyph glyph-name="Aring" unicode="&#xc5;" horiz-adv-x="517" 
d="M263 671v1q-38 0 -65.5 28t-27.5 68q0 39 28.5 67t67.5 27q38 0 65.5 -28t27.5 -68q0 -39 -28 -67t-68 -28zM266 824q-24 0 -41 -16.5t-17 -39.5q0 -22 17 -39t39 -17q23 0 39.5 17t15.5 39q0 23 -15.5 39.5t-37.5 16.5zM438 1l-67 196h-243l-72 -196h-55l228 620l71 23
l216 -643h-78zM255 543h1l-110 -299h210z" />
    <glyph glyph-name="AE" unicode="&#xc6;" horiz-adv-x="790" 
d="M406 243v283l-171 -283h171zM757 631l-26 -51h-252v-216h210l-26 -50h-184v-264h272v-50h-345v196h-198l-121 -196h-65l384 630z" />
    <glyph glyph-name="Ccedilla" unicode="&#xc7;" horiz-adv-x="544" 
d="M305 -27l-1 1q21 -3 23 -5q64 -9 64 -73q0 -31 -26.5 -56.5t-71.5 -25.5q-34 0 -78 21l16 36q32 -15 61 -16q18 0 32.5 12t15.5 31q0 19 -16 28t-34 9h-31l-1 61q-101 16 -161.5 117.5t-57.5 211.5q2 58 18.5 113.5t47.5 102.5t81 75t111 27q115 -3 183 -53l-26 -44
q-65 43 -146 41q-48 0 -83.5 -25t-54.5 -66t-28 -84t-10 -88q-1 -41 8.5 -86t29 -87.5t54.5 -70t80 -27.5q34 0 65.5 9t49.5 18.5l68 37.5l28 -43q-97 -76 -209 -80z" />
    <glyph glyph-name="Egrave" unicode="&#xc8;" horiz-adv-x="453" 
d="M420 631l-25 -51h-253v-216h210l-26 -50h-184v-264h272v-50h-344l-1 630zM317 685l36 36l-199 118l-28 -59z" />
    <glyph glyph-name="Eacute" unicode="&#xc9;" horiz-adv-x="453" 
d="M420 630l-25 -50h-253v-216h210l-26 -50h-184v-264h272v-50h-345v630h351zM172 685l-35 36l198 118l29 -59z" />
    <glyph glyph-name="Ecircumflex" unicode="&#xca;" horiz-adv-x="453" 
d="M420 631l-25 -51h-253v-216h210l-26 -50h-184v-264h272v-50h-344l-1 630zM384 682l-140 78l-136 -78l-29 41l165 119l174 -119z" />
    <glyph glyph-name="Edieresis" unicode="&#xcb;" horiz-adv-x="453" 
d="M420 631l-25 -51h-253v-216h210l-26 -50h-184v-264h272v-50h-344l-1 630zM146 685h1q-21 0 -36.5 15t-15.5 36q0 22 14.5 37.5t34.5 15.5q22 0 37.5 -15.5t16.5 -37.5q0 -21 -15 -36t-37 -15zM344 685q-22 0 -37 15t-15 36q0 22 14.5 37.5t35.5 15.5q22 0 37 -15.5
t15 -37.5q0 -21 -15 -36t-35 -15z" />
    <glyph glyph-name="Igrave" unicode="&#xcc;" horiz-adv-x="225" 
d="M152 0h-74v617l74 25v-642zM177 685l35 36l-198 118l-29 -59z" />
    <glyph glyph-name="Iacute" unicode="&#xcd;" horiz-adv-x="225" 
d="M152 0h-74v617l74 25v-642zM72 685l-35 36l198 118l29 -59z" />
    <glyph glyph-name="Icircumflex" unicode="&#xce;" horiz-adv-x="225" 
d="M152 0h-74v617l74 25v-642zM252 682l-140 78l-137 -78l-28 41l165 119l174 -119z" />
    <glyph glyph-name="Idieresis" unicode="&#xcf;" horiz-adv-x="225" 
d="M152 0h-74v617l74 25v-642zM23 685h1q-21 0 -36.5 15t-15.5 36q0 22 14.5 37.5t34.5 15.5q22 0 37.5 -15.5t16.5 -37.5q0 -21 -15 -36t-37 -15zM221 685h1q-22 0 -37 15t-16 36q0 22 14.5 37.5t35.5 15.5q22 0 37 -15.5t15 -37.5q0 -21 -15 -36t-35 -15z" />
    <glyph glyph-name="Eth" unicode="&#xd0;" 
 />
    <glyph glyph-name="Ntilde" unicode="&#xd1;" horiz-adv-x="608" 
d="M541 0h-72l-353 516v-516h-51v623l58 20l368 -538v525h50v-630zM240 718h-1q-30 0 -65 -30l-27 38q49 49 111 48q23 0 56 -16.5t55 -16.5q30 0 65 30l27 -37q-49 -49 -111 -49q-23 0 -56 16.5t-54 16.5z" />
    <glyph glyph-name="Ograve" unicode="&#xd2;" horiz-adv-x="626" 
d="M574 325h-1q0 -81 -30 -155.5t-93.5 -126.5t-147.5 -52t-147.5 52t-93.5 126.5t-30 155.5q0 127 74 223t197 96q83 0 146.5 -47t94.5 -119t31 -153zM489 325q0 64 -19.5 122.5t-63.5 99.5t-104 41t-104.5 -41t-64 -99.5t-20.5 -122.5q0 -109 51 -193t137 -84t137 84
t51 193zM377 685l36 36l-198 118l-29 -59z" />
    <glyph glyph-name="Oacute" unicode="&#xd3;" horiz-adv-x="626" 
d="M574 325h-1q0 -81 -30 -155.5t-93.5 -126.5t-147.5 -52t-147.5 52t-93.5 126.5t-30 155.5q0 127 74 223t197 96q83 0 146.5 -47t94.5 -119t31 -153zM489 325q0 64 -19.5 122.5t-63.5 99.5t-104 41t-104.5 -41t-64 -99.5t-20.5 -122.5q0 -109 51 -193t137 -84t137 84
t51 193zM220 685l-35 36l198 118l29 -59z" />
    <glyph glyph-name="Ocircumflex" unicode="&#xd4;" horiz-adv-x="626" 
d="M574 325h-1q0 -81 -30 -155.5t-93.5 -126.5t-147.5 -52t-147.5 52t-93.5 126.5t-30 155.5q0 127 74 223t197 96q83 0 146.5 -47t94.5 -119t31 -153zM489 325q0 64 -19.5 122.5t-63.5 99.5t-104 41t-104.5 -41t-64 -99.5t-20.5 -122.5q0 -109 51 -193t137 -84t137 84
t51 193zM441 682l-141 78l-136 -78l-29 41l165 119l174 -119z" />
    <glyph glyph-name="Otilde" unicode="&#xd5;" horiz-adv-x="626" 
d="M574 325h-1q0 -81 -30 -155.5t-93.5 -126.5t-147.5 -52t-147.5 52t-93.5 126.5t-30 155.5q0 127 74 223t197 96q83 0 146.5 -47t94.5 -119t31 -153zM489 325q0 64 -19.5 122.5t-63.5 99.5t-104 41t-104.5 -41t-64 -99.5t-20.5 -122.5q0 -109 51 -193t137 -84t137 84
t51 193zM239 718h-1q-30 0 -65 -30l-27 38q49 49 111 48q23 0 56 -16.5t55 -16.5q30 0 65 30l27 -37q-49 -49 -111 -49q-23 0 -56 16.5t-54 16.5z" />
    <glyph glyph-name="Odieresis" unicode="&#xd6;" horiz-adv-x="626" 
d="M574 325h-1q0 -81 -30 -155.5t-93.5 -126.5t-147.5 -52t-147.5 52t-93.5 126.5t-30 155.5q0 127 74 223t197 96q83 0 146.5 -47t94.5 -119t31 -153zM489 325q0 64 -19.5 122.5t-63.5 99.5t-104 41t-104.5 -41t-64 -99.5t-20.5 -122.5q0 -109 51 -193t137 -84t137 84
t51 193zM202 685h1q-21 0 -36.5 15t-15.5 36q0 22 14.5 37.5t34.5 15.5q22 0 37.5 -15.5t16.5 -37.5q0 -21 -15 -36t-37 -15zM400 685q-22 0 -37 15t-15 36q0 22 14.5 37.5t35.5 15.5q22 0 37 -15.5t15 -37.5q0 -21 -15 -36t-35 -15z" />
    <glyph glyph-name="multiply" unicode="&#xd7;" horiz-adv-x="510" 
d="M371 75l-116 126l-116 -126l-48 45l119 130l-119 129l48 46l116 -126l116 126l50 -45l-121 -130l120 -129z" />
    <glyph glyph-name="Oslash" unicode="&#xd8;" horiz-adv-x="626" 
d="M412 543l-148 -490q20 -5 38 -5q86 0 137 84t52 193q0 62 -20.5 121t-58.5 97zM204 86l149 494q-24 8 -50 8q-60 0 -104.5 -41t-64 -99.5t-19.5 -122.5q0 -71 23.5 -136.5t65.5 -102.5zM202 -154l-64 22l47 154q-73 42 -113.5 126.5t-40.5 176.5q0 81 31 153t94.5 119
t146.5 47q35 0 67 -9l40 133l64 -22l-41 -137q67 -41 104 -118.5t36 -165.5q0 -81 -30 -155.5t-93.5 -126.5t-147.5 -52q-28 0 -55 6z" />
    <glyph glyph-name="Ugrave" unicode="&#xd9;" horiz-adv-x="572" 
d="M463 630h57v-416q0 -98 -65.5 -161t-164.5 -62q-96 0 -160.5 62t-64.5 160v405l74 25l1 -418q0 -83 39 -129t117 -45q78 0 122 48t45 128v403zM374 685l35 36l-198 118l-29 -59z" />
    <glyph glyph-name="Uacute" unicode="&#xda;" horiz-adv-x="572" 
d="M463 630h57v-416q0 -98 -65.5 -161t-164.5 -62q-96 0 -160.5 62t-64.5 160v405l74 25l1 -418q0 -83 39 -129t117 -45q78 0 122 48t45 128v403zM222 685l-35 36l198 118l29 -59z" />
    <glyph glyph-name="Ucircumflex" unicode="&#xdb;" horiz-adv-x="572" 
d="M463 630h57v-416q0 -98 -65.5 -161t-164.5 -62q-96 0 -160.5 62t-64.5 160v405l74 25l1 -418q0 -83 39 -129t117 -45q78 0 122 48t45 128v403zM437 682l-140 78l-137 -78l-28 41l165 119l174 -119z" />
    <glyph glyph-name="Udieresis" unicode="&#xdc;" horiz-adv-x="572" 
d="M463 630h57v-416q0 -98 -65.5 -161t-164.5 -62q-96 0 -160.5 62t-64.5 160v405l74 25l1 -418q0 -83 39 -129t117 -45q78 0 122 48t45 128v403zM199 685h1q-21 0 -36.5 15t-15.5 36q0 22 14.5 37.5t34.5 15.5q22 0 37.5 -15.5t16.5 -37.5q0 -21 -15 -36t-37 -15zM397 685
h1q-22 0 -37 15t-16 36q0 22 14.5 37.5t35.5 15.5q22 0 37 -15.5t15 -37.5q0 -21 -15 -36t-35 -15z" />
    <glyph glyph-name="Yacute" unicode="&#xdd;" horiz-adv-x="424" 
d="M250 284v-284h-73v293l-184 324l70 26l165 -292l162 292l47 -19zM143 685l-36 36l199 118l29 -59z" />
    <glyph glyph-name="Thorn" unicode="&#xde;" 
 />
    <glyph glyph-name="germandbls" unicode="&#xdf;" horiz-adv-x="544" 
d="M159 -105l-72 -24v505h-80v47h80l1 58q0 87 60 123q29 18 64.5 25t55.5 5l21 -2q62 -4 100.5 -34.5t37.5 -95.5q0 -3 -0.5 -8t-4.5 -18.5t-10 -25.5t-20 -26.5t-33 -23.5q-28 -13 -25 -31.5t36 -25.5q65 -19 98.5 -56.5t34.5 -103.5q1 -77 -55 -128.5t-137 -59.5
q-60 -7 -117 14l23 47q43 -16 77 -12q58 8 91.5 45t34.5 92q0 23 -4 40t-23 36.5t-53 30.5q-36 12 -53.5 29t-20.5 42q-5 42 41 72q41 26 45 71t-42 68q-29 8 -56.5 6t-45.5 -8q-49 -18 -49 -87v-586z" />
    <glyph glyph-name="agrave" unicode="&#xe0;" horiz-adv-x="433" 
d="M379 67q-76 -76 -197 -75q-60 2 -101.5 44t-40.5 101q1 62 44 99.5t107 36.5h119v43q0 36 -28.5 60t-66.5 24q-55 0 -115 -31l-18 42q71 38 152 38q58 0 101.5 -35.5t43.5 -93.5v-253zM308 77v150q-60 0 -96 -1q-43 0 -70.5 -23.5t-27.5 -63.5q0 -39 29 -68.5t71 -29.5
q28 -1 55 11t39 25zM302 507l35 36l-198 118l-29 -59z" />
    <glyph glyph-name="aacute" unicode="&#xe1;" horiz-adv-x="433" 
d="M379 67q-76 -76 -197 -75q-60 2 -101.5 44t-40.5 101q1 62 44 99.5t107 36.5h119v43q0 36 -28.5 60t-66.5 24q-55 0 -115 -31l-18 42q71 38 152 38q58 0 101.5 -35.5t43.5 -93.5v-253zM308 77v150q-60 0 -96 -1q-43 0 -70.5 -23.5t-27.5 -63.5q0 -39 29 -68.5t71 -29.5
q28 -1 55 11t39 25zM138 507l-35 36l198 118l29 -59z" />
    <glyph glyph-name="acircumflex" unicode="&#xe2;" horiz-adv-x="433" 
d="M379 67q-76 -76 -197 -75q-60 2 -101.5 44t-40.5 101q1 62 44 99.5t107 36.5h119v43q0 36 -28.5 60t-66.5 24q-55 0 -115 -31l-18 42q71 38 152 38q58 0 101.5 -35.5t43.5 -93.5v-253zM308 77v150q-60 0 -96 -1q-43 0 -70.5 -23.5t-27.5 -63.5q0 -39 29 -68.5t71 -29.5
q28 -1 55 11t39 25zM364 513l-140 79l-137 -79l-28 42l165 118l174 -118z" />
    <glyph glyph-name="atilde" unicode="&#xe3;" horiz-adv-x="433" 
d="M379 67q-76 -76 -197 -75q-60 2 -101.5 44t-40.5 101q1 62 44 99.5t107 36.5h119v43q0 36 -28.5 60t-66.5 24q-55 0 -115 -31l-18 42q71 38 152 38q58 0 101.5 -35.5t43.5 -93.5v-253zM308 77v149h-96q-43 0 -70.5 -23.5t-27.5 -63.5q0 -39 29 -68.5t71 -29.5
q28 -1 55 11t39 25zM155 540q-14 0 -26 -4.5t-19 -9t-21 -15.5l-27 37q49 49 112 49q23 0 56 -16.5t54 -16.5q14 0 26 4.5t19 9t21 15.5l26 -37q-49 -49 -111 -49q-23 0 -56 16.5t-54 16.5z" />
    <glyph glyph-name="adieresis" unicode="&#xe4;" horiz-adv-x="433" 
d="M379 67q-76 -76 -197 -75q-60 2 -101.5 44t-40.5 101q1 62 44 99.5t107 36.5h119v43q0 36 -28.5 60t-66.5 24q-55 0 -115 -31l-18 42q71 38 152 38q58 0 101.5 -35.5t43.5 -93.5v-253zM308 77v149h-96q-43 0 -70.5 -23.5t-27.5 -63.5q0 -39 29 -68.5t71 -29.5
q28 -1 55 11t39 25zM125 509q-21 0 -36.5 15t-15.5 36q0 22 15 37.5t35 15.5q22 0 37.5 -15.5t15.5 -37.5q0 -21 -15 -36t-36 -15zM321 509h1q-22 0 -37 15t-15 36q0 22 14.5 37.5t34.5 15.5q22 0 37 -15.5t16 -37.5q0 -21 -15 -36t-36 -15z" />
    <glyph glyph-name="aring" unicode="&#xe5;" horiz-adv-x="433" 
d="M379 67q-76 -76 -197 -75q-60 2 -101.5 44t-40.5 101q1 62 44 99.5t107 36.5h119v43q0 36 -28.5 60t-66.5 24q-55 0 -115 -31l-18 42q71 38 152 38q58 0 101.5 -35.5t43.5 -93.5v-253zM308 77v150q-60 0 -96 -1q-43 0 -70.5 -23.5t-27.5 -63.5q0 -39 29 -68.5t71 -29.5
q28 -1 55 11t39 25zM223 509h-1q-38 0 -65.5 28t-27.5 68q0 39 28.5 67t67.5 28q38 0 65.5 -28t27.5 -68q0 -39 -28 -67t-67 -28zM224 661v-1q-24 0 -41 -16.5t-17 -39.5t17 -39.5t39 -15.5q23 0 39.5 17t15.5 39q0 23 -15.5 39.5t-37.5 16.5z" />
    <glyph glyph-name="ae" unicode="&#xe6;" horiz-adv-x="701" 
d="M310 77v149h-96q-43 0 -70.5 -23.5t-27.5 -63.5q0 -39 29 -68.5t71 -29.5q28 -1 55 11t39 25zM664 40h-1q-40 -26 -75 -37q-45 -16 -103 -10.5t-94 37.5q-13 10 -24 24q-74 -63 -183 -62q-60 2 -101.5 44t-40.5 101q1 62 44 99.5t107 36.5h119v43q0 36 -28.5 60t-66.5 24
q-55 0 -115 -31l-18 42q71 38 152 38q39 0 73.5 -17t53.5 -47q46 61 127 61q166 0 169 -219h-268q-6 -85 32 -137.5t100 -50.5q51 1 123 36zM585 270l1 -1q0 54 -24 93t-70 39q-48 0 -72 -38t-27 -93h192z" />
    <glyph glyph-name="ccedilla" unicode="&#xe7;" horiz-adv-x="402" 
d="M380 36v1q-62 -41 -140 -45l-1 -18q22 -3 22 -5q64 -9 64 -73q0 -31 -26.5 -56.5t-71.5 -25.5q-34 0 -78 21l16 36q32 -15 62 -16q18 0 32.5 12t14.5 31t-16 28t-34 9h-31v59q-69 12 -110.5 76t-41.5 144q0 63 25 118.5t70 86.5q46 31 108.5 29.5t114.5 -33.5l-21 -39
q-57 27 -105 24q-55 -3 -86.5 -60t-31.5 -126q0 -66 33.5 -119.5t91.5 -54.5q45 -1 121 35z" />
    <glyph glyph-name="egrave" unicode="&#xe8;" horiz-adv-x="434" 
d="M390 40q-40 -26 -75 -37q-45 -16 -103 -11t-94 36t-56.5 80t-20.5 104q1 62 17 112.5t57 86t102 35.5q166 0 169 -219h-268q-6 -85 32 -137.5t100 -50.5q51 1 123 36zM312 270l1 -1q0 53 -24 92.5t-69 39.5q-48 0 -72 -38t-28 -93h192zM292 506l36 36l-199 118l-28 -59z
" />
    <glyph glyph-name="eacute" unicode="&#xe9;" horiz-adv-x="434" 
d="M390 40q-40 -26 -75 -37q-45 -16 -103 -11t-94 36t-56.5 80t-20.5 104q1 62 17 112.5t57 86t102 35.5q166 0 169 -219h-268q-6 -85 32 -137.5t100 -50.5q51 1 123 36zM312 270l1 -1q0 53 -24 92.5t-69 39.5q-48 0 -72 -38t-28 -93h192zM139 506l-35 36l198 118l29 -59z
" />
    <glyph glyph-name="ecircumflex" unicode="&#xea;" horiz-adv-x="434" 
d="M390 40q-40 -26 -75 -37q-45 -16 -103 -11t-94 36t-56.5 80t-20.5 104q1 62 17 112.5t57 86t102 35.5q166 0 169 -219h-268q-6 -85 32 -137.5t100 -50.5q51 1 123 36zM312 270l1 -1q0 53 -24 92.5t-69 39.5q-48 0 -72 -38t-28 -93h192zM357 512l-140 79l-137 -79l-28 42
l165 118l174 -118z" />
    <glyph glyph-name="edieresis" unicode="&#xeb;" horiz-adv-x="434" 
d="M390 40q-40 -26 -75 -37q-45 -16 -103 -11t-94 36t-56.5 80t-20.5 104q1 62 17 112.5t57 86t102 35.5q166 0 169 -219h-268q-6 -85 32 -137.5t100 -50.5q51 1 123 36zM312 270l1 -1q0 53 -24 92.5t-69 39.5q-48 0 -72 -38t-28 -93h192zM126 508q-21 0 -36.5 15t-15.5 36
q0 22 15 37.5t35 15.5q22 0 37.5 -15.5t15.5 -37.5q0 -21 -15 -36t-36 -15zM322 508h1q-22 0 -37 15t-15 36q0 22 14.5 37.5t34.5 15.5q22 0 37 -15.5t16 -37.5q0 -21 -15 -36t-36 -15z" />
    <glyph glyph-name="igrave" unicode="&#xec;" horiz-adv-x="223" 
d="M80 0v425l72 24v-449h-72zM180 507l35 36l-198 118l-29 -59z" />
    <glyph glyph-name="iacute" unicode="&#xed;" horiz-adv-x="223" 
d="M80 0v425l72 24v-449h-72zM57 507l-35 36l198 118l29 -59z" />
    <glyph glyph-name="icircumflex" unicode="&#xee;" horiz-adv-x="223" 
d="M80 0v425l72 24v-449h-72zM252 509l-140 79l-137 -79l-28 42l165 118l174 -118z" />
    <glyph glyph-name="idieresis" unicode="&#xef;" horiz-adv-x="223" 
d="M80 0v425l72 24v-449h-72zM13 509q-21 0 -36.5 15t-15.5 36q0 22 15 37.5t35 15.5q22 0 37.5 -15.5t15.5 -37.5q0 -21 -15 -36t-36 -15zM209 509h1q-22 0 -37 15t-16 36q0 22 14.5 37.5t35.5 15.5q22 0 37 -15.5t15 -37.5q0 -21 -15 -36t-35 -15z" />
    <glyph glyph-name="eth" unicode="&#xf0;" 
 />
    <glyph glyph-name="ntilde" unicode="&#xf1;" horiz-adv-x="459" 
d="M405 0h-73v298q0 49 -29.5 76.5t-78.5 26.5q-52 -1 -99 -34v-367h-73v376q63 46 116 60q78 22 137 8q43 -10 71.5 -38.5t28.5 -70.5v-335zM168 540h-1q-29 0 -65 -29l-27 37q49 49 111 49q23 0 56 -16.5t55 -16.5q29 0 65 29l27 -37q-49 -49 -111 -49q-23 0 -56 16.5
t-54 16.5z" />
    <glyph glyph-name="ograve" unicode="&#xf2;" horiz-adv-x="488" 
d="M39 227q0 92 54.5 156.5t145.5 65.5q91 -1 145.5 -65.5t55.5 -156.5q0 -98 -52.5 -166.5t-149.5 -69.5q-96 1 -147.5 69.5t-51.5 166.5zM118 227h1q0 -76 28.5 -133t92.5 -58q120 4 120 191q0 44 -10 79.5t-39 63t-73 29.5q-120 -7 -120 -172zM328 507l35 36l-198 118
l-29 -59z" />
    <glyph glyph-name="oacute" unicode="&#xf3;" horiz-adv-x="488" 
d="M39 227q0 92 54.5 156.5t145.5 65.5q91 -1 145.5 -65.5t55.5 -156.5q0 -98 -52.5 -166.5t-149.5 -69.5q-96 1 -147.5 69.5t-51.5 166.5zM118 227h1q0 -76 28.5 -133t92.5 -58q120 4 120 191q0 44 -10 79.5t-39 63t-73 29.5q-120 -7 -120 -172zM165 507l-35 36l198 118
l29 -59z" />
    <glyph glyph-name="ocircumflex" unicode="&#xf4;" horiz-adv-x="488" 
d="M439 227h1q0 -98 -52.5 -166.5t-149.5 -69.5q-96 1 -147.5 69.5t-51.5 166.5q0 92 54.5 156.5t145.5 65.5q91 -1 145.5 -65.5t54.5 -156.5zM361 227q0 44 -10 79.5t-39 63t-73 29.5q-121 -7 -119 -172q0 -76 28.5 -133t92.5 -58q120 4 120 191zM383 509l-140 79l-136 -79
l-29 42l165 118l174 -118z" />
    <glyph glyph-name="otilde" unicode="&#xf5;" horiz-adv-x="488" 
d="M39 227q0 92 54.5 156.5t145.5 65.5q91 -1 145.5 -65.5t55.5 -156.5q0 -98 -52.5 -166.5t-149.5 -69.5q-96 1 -147.5 69.5t-51.5 166.5zM118 227h1q0 -76 28.5 -133t92.5 -58q120 4 120 191q0 44 -10 79.5t-39 63t-73 29.5q-120 -7 -120 -172zM181 540q-14 0 -26 -4.5
t-19 -9t-21 -15.5l-27 37q49 49 112 49q23 0 56 -16.5t54 -16.5q14 0 26 4.5t19 9t21 15.5l26 -37q-49 -49 -111 -49q-23 0 -56 16.5t-54 16.5z" />
    <glyph glyph-name="odieresis" unicode="&#xf6;" horiz-adv-x="488" 
d="M39 227q0 92 54.5 156.5t145.5 65.5q91 -1 145.5 -65.5t55.5 -156.5q0 -98 -52.5 -166.5t-149.5 -69.5q-96 1 -147.5 69.5t-51.5 166.5zM118 227h1q0 -76 28.5 -133t92.5 -58q120 4 120 191q0 44 -10 79.5t-39 63t-73 29.5q-120 -7 -120 -172zM142 509h1q-21 0 -36.5 15
t-15.5 36q0 22 14.5 37.5t34.5 15.5q22 0 37.5 -15.5t16.5 -37.5q0 -21 -15 -36t-37 -15zM340 509h1q-22 0 -37 15t-16 36q0 22 14.5 37.5t35.5 15.5q22 0 37 -15.5t15 -37.5q0 -21 -15 -36t-35 -15z" />
    <glyph glyph-name="divide" unicode="&#xf7;" horiz-adv-x="743" 
d="M401 386v-386h-73v386h-184v-386h-73v386h-47v51h47v50q0 110 50.5 163t141.5 53q26 0 54 -10l-16 -44q-8 2 -10 2q-38 7 -66 -0.5t-43 -22.5t-24 -41t-11 -46.5t-3 -49.5v-54h184v50q0 110 50.5 163t141.5 53q26 0 54 -10l-16 -44q-8 2 -11 2q-47 9 -78.5 -3t-45 -40.5
t-18 -54.5t-4.5 -62v-54h198l73 12v-449h-72v386h-199zM588 590v1q0 20 14 33.5t34 13.5t33.5 -14t13.5 -34t-14 -33.5t-34 -13.5q-19 0 -33 13.5t-14 33.5z" />
    <glyph glyph-name="oslash" unicode="&#xf8;" horiz-adv-x="488" 
d="M313 368l-99 -328q12 -3 26 -3q36 0 61.5 18t37.5 48.5t16.5 60t4.5 63.5q0 97 -47 141zM164 70l98 325q-16 4 -23 5q-65 0 -93 -51t-28 -121q0 -107 46 -158zM183 -64l-53 18l17 59q-54 29 -81 87.5t-27 126.5q0 92 55 157t145 65q19 0 39 -3l16 56l55 -18l-18 -56
q52 -28 80 -83t29 -118q0 -98 -53 -167t-148 -68q-20 0 -38 3z" />
    <glyph glyph-name="ugrave" unicode="&#xf9;" horiz-adv-x="465" 
d="M54 424l75 25v-306q0 -49 32 -77t81 -27q48 1 99 35v367h73v-377q-100 -72 -218 -72q-56 0 -99 32.5t-43 93.5v306zM304 507l35 36l-198 118l-29 -59z" />
    <glyph glyph-name="uacute" unicode="&#xfa;" horiz-adv-x="465" 
d="M54 424l75 25v-306q0 -49 32 -77t81 -27q48 1 99 35v367h73v-377q-100 -72 -218 -72q-56 0 -99 32.5t-43 93.5v306zM148 507l-35 36l198 118l29 -59z" />
    <glyph glyph-name="ucircumflex" unicode="&#xfb;" horiz-adv-x="465" 
d="M54 424l75 25v-306q0 -49 32 -77t81 -27q48 1 99 35v367h73v-377q-100 -72 -218 -72q-56 0 -99 32.5t-43 93.5v306zM376 509l-141 79l-136 -79l-29 42l165 118l174 -118z" />
    <glyph glyph-name="udieresis" unicode="&#xfc;" horiz-adv-x="465" 
d="M54 424l75 25v-306q0 -49 32 -77t81 -27q48 1 99 35v367h73v-377q-100 -72 -218 -72q-56 0 -99 32.5t-43 93.5v306zM140 509h1q-21 0 -36.5 15t-16.5 36q0 22 15 37.5t35 15.5q22 0 37.5 -15.5t15.5 -37.5q0 -21 -15 -36t-36 -15zM337 509h1q-22 0 -37 15t-15 36
q0 22 14.5 37.5t34.5 15.5q22 0 37 -15.5t16 -37.5q0 -21 -15 -36t-36 -15z" />
    <glyph glyph-name="yacute" unicode="&#xfd;" horiz-adv-x="485" 
d="M137 142v1q0 -49 31.5 -75.5t81.5 -25.5t107 39v357h73v-397q0 -122 -24 -168q-25 -48 -87.5 -73t-127.5 -27l-12 46q89 13 122 31q30 16 44 42q16 30 16 115q0 3 0.5 9t-0.5 10q-75 -34 -157 -34q-54 0 -97.5 35.5t-43.5 92.5v304l74 25v-307zM164 508l-35 36l198 118
l29 -59z" />
    <glyph glyph-name="thorn" unicode="&#xfe;" 
 />
    <glyph glyph-name="ydieresis" unicode="&#xff;" horiz-adv-x="485" 
d="M137 142v1q0 -49 31.5 -75.5t81.5 -25.5t107 39v357h73v-397q0 -122 -24 -168q-25 -48 -87.5 -73t-127.5 -27l-12 46q89 13 122 31q30 16 44 42q16 30 16 115q0 3 0.5 9t-0.5 10q-75 -34 -157 -34q-54 0 -97.5 35.5t-43.5 92.5v304l74 25v-307zM148 510h1q-21 0 -36.5 15
t-16.5 36q0 22 15 37.5t35 15.5q22 0 37.5 -15.5t15.5 -37.5q0 -21 -15 -36t-36 -15zM345 510h1q-22 0 -37 15t-15 36q0 22 14.5 37.5t34.5 15.5q22 0 37 -15.5t16 -37.5q0 -21 -15 -36t-36 -15z" />
    <glyph glyph-name="dotlessi" unicode="&#x131;" horiz-adv-x="223" 
d="M80 0v425l72 24v-449h-72z" />
    <glyph glyph-name="Lslash" unicode="&#x141;" horiz-adv-x="463" 
 />
    <glyph glyph-name="lslash" unicode="&#x142;" horiz-adv-x="308" 
 />
    <glyph glyph-name="OE" unicode="&#x152;" horiz-adv-x="790" 
d="M406 58v518h-98q-48 0 -83.5 -23.5t-54.5 -62t-28 -80t-10 -86.5q-1 -57 15 -115t57 -104.5t100 -46.5h102zM757 631l-26 -51h-252v-216h210l-26 -50h-184v-264h272v-50l-327 -1q-18 0 -60 0.5t-76 0.5q-77 0 -136.5 52t-87 125.5t-25.5 147.5q3 123 70.5 214.5
t186.5 91.5q77 0 110 -1z" />
    <glyph glyph-name="oe" unicode="&#x153;" horiz-adv-x="753" 
d="M632 270l1 -1q0 54 -24 93t-70 39q-48 0 -72 -38t-27 -93h192zM40 226q0 92 55 156.5t146 64.5q101 1 158 -81q47 79 138 79q166 0 169 -219h-266h1q0 -20 -3 -39q4 -69 41 -110t91 -39q57 1 130 36l17 -34q-35 -24 -82 -38q-45 -16 -103 -10.5t-94 36.5q-22 19 -39 47
q-55 -84 -160 -85q-96 1 -147.5 69.5t-51.5 166.5zM119 226h1q0 -76 28.5 -133t92.5 -58q120 4 120 191q0 44 -10 79.5t-39 63t-73 29.5q-120 -7 -120 -172z" />
    <glyph glyph-name="Scaron" unicode="&#x160;" horiz-adv-x="462" 
d="M440 182v1q0 -92 -87 -152q-61 -38 -140 -37q-54 0 -107.5 22.5t-87.5 54.5l33 54q28 -25 73.5 -46t88.5 -21q57 0 93 26q47 36 47 87q0 41 -25.5 66.5t-82.5 43.5l-63 21q-80 26 -113 60q-37 40 -37 102q0 80 56 130t147 50q79 0 159 -58l-32 -49q-61 44 -124 44
q-57 0 -89.5 -27t-33.5 -75q-1 -34 24.5 -56.5t81.5 -40.5l71 -23q76 -24 113 -68q35 -39 35 -109zM114 686h1q-21 0 -36.5 15t-15.5 36q0 22 15 37.5t35 15.5q22 0 37.5 -15.5t15.5 -37.5q0 -21 -15 -36t-37 -15zM312 686h1q-22 0 -37 15t-16 36q0 22 14.5 37.5t35.5 15.5
q22 0 37 -15.5t15 -37.5q0 -21 -15 -36t-35 -15z" />
    <glyph glyph-name="scaron" unicode="&#x161;" horiz-adv-x="376" 
d="M173 -12v1q-77 0 -140 49l27 44q47 -39 113 -39q41 0 71 19t29 56q0 19 -13 33.5t-24.5 20t-34.5 13.5q-35 13 -40 15q-56 21 -78 38q-42 30 -42 83q0 61 45.5 96t108.5 36q60 0 126 -39l-27 -44q-49 28 -97 28q-34 0 -59.5 -17t-25.5 -49t36 -48q35 -16 80 -33
q57 -23 77 -39q42 -33 41 -87q-1 -66 -52.5 -101.5t-120.5 -35.5zM321 674l-140 -78l-136 78l-29 -41l165 -119l174 119z" />
    <glyph glyph-name="Ydieresis" unicode="&#x178;" horiz-adv-x="424" 
d="M250 284v-284h-73v293l-184 324l70 26l165 -292l162 292l47 -19zM120 685h1q-21 0 -36.5 15t-15.5 36q0 22 14.5 37.5t34.5 15.5q22 0 37.5 -15.5t16.5 -37.5q0 -21 -15 -36t-37 -15zM318 685q-22 0 -37 15t-15 36q0 22 14.5 37.5t35.5 15.5q22 0 37 -15.5t15 -37.5
q0 -21 -15 -36t-35 -15z" />
    <glyph glyph-name="Zcaron" unicode="&#x17d;" horiz-adv-x="545" 
d="M531 51h-1l1 -51h-496l349 580h-329l25 50h420l-348 -579h379zM182 685h1q-21 0 -36.5 15t-15.5 36q0 22 14.5 37.5t34.5 15.5q22 0 37.5 -15.5t16.5 -37.5q0 -21 -15 -36t-37 -15zM380 685h1q-22 0 -37 15t-16 36q0 22 14.5 37.5t35.5 15.5q22 0 37 -15.5t15 -37.5
q0 -21 -15 -36t-35 -15z" />
    <glyph glyph-name="zcaron" unicode="&#x17e;" horiz-adv-x="436" 
d="M387 0h-356l228 388h-220l25 50h305l-228 -388h246v-50zM353 673l-141 -78l-136 78l-29 -41l165 -119l174 119z" />
    <glyph glyph-name="florin" unicode="&#x192;" horiz-adv-x="333" 
d="M352 703q-91 0 -152 -53t-82 -163l-10 -50h-57v-51h47l-102 -525l79 25l97 500h110l1 51h-101l10 55q5 27 11.5 48.5t20 47t31.5 40.5t48 23t67 1q6 -2 10 -3l24 44q-27 10 -52 10z" />
    <glyph glyph-name="circumflex" unicode="&#x2c6;" horiz-adv-x="414" 
d="M343 509l-140 79l-137 -79l-29 42l166 118l174 -118z" />
    <glyph glyph-name="caron" unicode="&#x2c7;" horiz-adv-x="778" 
 />
    <glyph glyph-name="breve" unicode="&#x2d8;" horiz-adv-x="414" 
d="M343 669l-140 -78l-137 78l-29 -41l166 -119l174 119z" />
    <glyph glyph-name="dotaccent" unicode="&#x2d9;" horiz-adv-x="257" 
d="M131 701q-23 0 -39.5 -16t-16.5 -38t16 -38t37 -16q22 0 38 16t16 38t-15 38t-36 16z" />
    <glyph glyph-name="ring" unicode="&#x2da;" horiz-adv-x="319" 
d="M65 604v1q0 39 28.5 67t68.5 28q38 0 65.5 -28t26.5 -68q0 -39 -28 -67t-68 -28q-38 0 -65.5 28t-27.5 67zM162 660v-1q-23 0 -39.5 -16t-16.5 -38t16 -38t37 -15q22 0 38 16t16 38t-15 38t-36 16z" />
    <glyph glyph-name="ogonek" unicode="&#x2db;" horiz-adv-x="351" 
d="M145 7l1 -1q-57 -50 -59 -110q0 -31 26.5 -56.5t71.5 -25.5q34 0 78 21l-16 36q-33 -15 -62 -15q-24 0 -38 20.5t-5 47.5q8 25 39 52l30 25l-37 31z" />
    <glyph glyph-name="tilde" unicode="&#x2dc;" horiz-adv-x="433" 
d="M155 540q-14 0 -26 -4.5t-19 -9t-21 -15.5l-27 37q49 49 112 49q23 0 56 -16.5t54 -16.5q14 0 26 4.5t19 9t21 15.5l26 -37q-49 -49 -111 -49q-23 0 -56 16.5t-54 16.5z" />
    <glyph glyph-name="hungarumlaut" unicode="&#x2dd;" horiz-adv-x="376" 
d="M73 506l-48 14l116 200l54 -39zM230 506l-49 14l116 200l54 -39z" />
    <glyph glyph-name="Delta" unicode="&#x394;" 
 />
    <glyph glyph-name="Omega" unicode="&#x3a9;" 
 />
    <glyph glyph-name="pi" unicode="&#x3c0;" 
 />
    <glyph glyph-name="endash" unicode="&#x2013;" horiz-adv-x="665" 
d="M72 186v53h497l26 -53h-523z" />
    <glyph glyph-name="emdash" unicode="&#x2014;" horiz-adv-x="959" 
d="M133 257v53h677l26 -53h-703z" />
    <glyph glyph-name="quoteleft" unicode="&#x2018;" horiz-adv-x="227" 
d="M65 533q10 38 45 73q13 15 34 27l17 -22q-17 -12 -29 -29.5t-16 -29.5l-4 -12q22 0 37 -15t16 -36q0 -22 -14.5 -37.5t-35.5 -15.5q-20 0 -35 13.5t-17 33.5q-3 31 2 50z" />
    <glyph glyph-name="quoteright" unicode="&#x2019;" horiz-adv-x="227" 
d="M162 536q-10 -38 -45 -73q-13 -15 -34 -27l-17 22q17 12 29 29.5t16 29.5l4 12q-22 0 -37 15t-16 36q0 22 14.5 37.5t35.5 16.5q20 0 35 -14t17 -34q3 -31 -2 -50z" />
    <glyph glyph-name="quotesinglbase" unicode="&#x201a;" horiz-adv-x="252" 
d="M178 3q-10 -39 -45 -72q-13 -14 -34 -28l-17 22q17 12 29 30t16 29t4 13q-22 0 -37 15t-16 35q0 22 14.5 37.5t35.5 16.5q20 0 35 -14t17 -34q3 -31 -2 -50z" />
    <glyph glyph-name="quotedblleft" unicode="&#x201c;" horiz-adv-x="377" 
d="M216 533h-1q10 38 45 73q14 15 35 27l16 -22q-17 -12 -29 -29.5t-16 -29.5t-3 -12q22 0 37 -15t15 -36q0 -22 -14.5 -37.5t-34.5 -15.5t-35 13.5t-17 33.5q-3 31 2 50zM64 533q10 38 45 73q13 15 34 27l17 -22q-17 -12 -29 -29.5t-16 -29.5l-4 -12q22 0 37 -15t16 -36
q0 -22 -14.5 -37.5t-35.5 -15.5q-20 0 -35 13.5t-17 33.5q-3 31 2 50z" />
    <glyph glyph-name="quotedblright" unicode="&#x201d;" horiz-adv-x="377" 
d="M162 536q-10 -38 -45 -73q-13 -15 -34 -27l-17 22q17 12 29 29.5t16 29.5l4 12q-22 0 -37 15t-16 36q0 22 14.5 37.5t35.5 16.5q20 0 35 -14t17 -34q3 -31 -2 -50zM312 536h1q-10 -38 -45 -73q-14 -15 -35 -27l-16 22q17 12 29 29.5t16 29.5t3 12q-22 0 -37 15t-15 36
q0 22 14.5 37.5t34.5 16.5q20 0 35 -14t17 -34q3 -31 -2 -50z" />
    <glyph glyph-name="quotedblbase" unicode="&#x201e;" horiz-adv-x="441" 
d="M178 3q-10 -39 -45 -72q-13 -14 -34 -28l-17 22q17 12 29 30t16 29t4 13q-22 0 -37 15t-16 35q0 22 14.5 37.5t35.5 16.5q20 0 35 -14t17 -34q3 -31 -2 -50zM372 3h1q-10 -39 -45 -72q-13 -14 -35 -28l-16 22q17 12 29 29.5t16 29.5t3 13q-22 0 -37 15t-15 35
q0 22 14.5 37.5t34.5 16.5q20 0 35 -14t17 -34q3 -31 -2 -50z" />
    <glyph glyph-name="dagger" unicode="&#x2020;" horiz-adv-x="534" 
d="M221 -138l72 25v532h171l25 52h-196v212h-72v-212h-176v-52h176v-557z" />
    <glyph glyph-name="daggerdbl" unicode="&#x2021;" horiz-adv-x="534" 
d="M221 -138l72 25v532h171l25 52h-196v212h-72v-212h-176v-52h176v-557z" />
    <glyph glyph-name="bullet" unicode="&#x2022;" horiz-adv-x="422" 
d="M63 307q0 61 43.5 104.5t104.5 43.5t104.5 -43t42.5 -104q0 -61 -43 -104.5t-104 -43.5t-104.5 43t-43.5 104z" />
    <glyph glyph-name="ellipsis" unicode="&#x2026;" horiz-adv-x="679" 
d="M565 -9h1q-22 0 -37 15t-16 36q0 22 14.5 37.5t35.5 15.5q22 0 37 -15.5t15 -37.5q0 -21 -15 -36t-35 -15zM341 -9h1q-22 0 -37 15t-16 36q0 22 14.5 37.5t35.5 15.5q22 0 37 -15.5t15 -37.5q0 -21 -15 -36t-35 -15zM117 -9h1q-22 0 -37 15t-16 36q0 22 14.5 37.5
t35.5 15.5q22 0 37 -15.5t15 -37.5q0 -21 -15 -36t-35 -15z" />
    <glyph glyph-name="perthousand" unicode="&#x2030;" horiz-adv-x="1041" 
d="M561 681l-335 -681h-72l334 681h73zM548 -12l-1 -1q-67 1 -103 51.5t-36 121.5q0 67 38.5 115t102.5 48q64 -1 101.5 -48.5t37.5 -115.5q0 -70 -36.5 -121t-103.5 -50zM169 352q-67 1 -103 51.5t-36 120.5q0 67 38.5 115t101.5 48q64 -1 101.5 -48.5t37.5 -115.5
q0 -70 -36.5 -121t-103.5 -50zM547 273q-74 -5 -74 -115q0 -52 17.5 -88.5t56.5 -36.5q76 2 74 126q0 47 -17.5 79.5t-56.5 34.5zM169 639q-74 -5 -74 -116q0 -52 17.5 -88.5t56.5 -35.5q75 2 75 125q0 47 -17.5 79.5t-57.5 35.5zM871 -13v-1q-67 1 -103 51.5t-36 121.5
q0 67 38.5 115t101.5 48q64 -1 101.5 -48.5t37.5 -115.5q0 -70 -36.5 -121t-103.5 -50zM871 272q-74 -5 -74 -115q0 -52 17.5 -88.5t56.5 -36.5q75 2 75 126q0 47 -18 79.5t-57 34.5z" />
    <glyph glyph-name="guilsinglleft" unicode="&#x2039;" horiz-adv-x="373" 
d="M242 52l-167 238l167 237l56 -35l-140 -202l140 -203z" />
    <glyph glyph-name="guilsinglright" unicode="&#x203a;" horiz-adv-x="373" 
d="M131 52l167 238l-167 237l-56 -35l140 -202l-140 -203z" />
    <glyph glyph-name="fraction" unicode="&#x2044;" horiz-adv-x="383" 
d="M37 -152l-61 21l471 897l61 -21z" />
    <glyph glyph-name="trademark" unicode="&#x2122;" horiz-adv-x="605" 
d="M499 452v204l-78 -198l-29 -10l-81 201v-197h-25v257l33 11l92 -218l83 212h39v-262h-34zM172 690v-238h-35v238h-79l12 24h178v-24h-76z" />
    <glyph glyph-name="partialdiff" unicode="&#x2202;" 
 />
    <glyph glyph-name="product" unicode="&#x220f;" 
 />
    <glyph glyph-name="summation" unicode="&#x2211;" 
 />
    <glyph glyph-name="minus" unicode="&#x2212;" horiz-adv-x="526" 
d="M472 333l-27 52h-404v-52h431z" />
    <glyph glyph-name="radical" unicode="&#x221a;" 
 />
    <glyph glyph-name="infinity" unicode="&#x221e;" 
 />
    <glyph glyph-name="integral" unicode="&#x222b;" 
 />
    <glyph glyph-name="approxequal" unicode="&#x2248;" horiz-adv-x="526" 
d="M401 386v-386h-73v385l-184 1v-386h-73v386l-47 -1v52h47v50q0 110 50.5 163t141.5 53q26 0 54 -10l-16 -44q-8 2 -10 2q-38 7 -66 -0.5t-43 -22.5t-24 -41t-11 -46.5t-3 -49.5v-54h184v50q0 110 50.5 163t141.5 53q26 0 54 -10l-16 -44q-8 2 -11 2q-47 9 -78.5 -3
t-45 -40.5t-18 -54.5t-4.5 -62v-54h102v-52z" />
    <glyph glyph-name="notequal" unicode="&#x2260;" horiz-adv-x="665" 
d="M224 1l-53 18l80 167h-179v53h204l58 121h-259l-26 53h311l80 168l54 -18l-72 -150h150v-53h-175l-59 -121h231l26 -53h-282z" />
    <glyph glyph-name="lessequal" unicode="&#x2264;" 
 />
    <glyph glyph-name="greaterequal" unicode="&#x2265;" 
 />
    <glyph glyph-name="lozenge" unicode="&#x25ca;" horiz-adv-x="789" 
d="M144 386v-386h-73v386h-47v51h47v50q0 110 50.5 163t141.5 53q26 0 54 -10l-16 -44q-8 2 -10 2q-38 7 -66 -0.5t-43 -22.5t-24 -41t-11 -46.5t-3 -49.5v-54h184v50q0 110 50.5 163t141.5 53q26 0 54 -10l-16 -44q-8 2 -11 2q-47 9 -78.5 -3t-45 -40.5t-18 -54.5t-4.5 -62
v-54h101v-51h-101v-386h-73v386h-184zM776 -7q-72 -7 -112.5 23t-40.5 87v571l71 23v-592q0 -41 20 -56.5t62 -17.5v-38z" />
    <glyph glyph-name="apple" unicode="&#xf8ff;" horiz-adv-x="913" 
d="M617 665h1q-46 0 -71.5 -22t-25.5 -60l-1 -235q37 92 140 92q53 0 95 -34q8 -6 13 -13t10.5 -16.5t9.5 -15.5q31 62 83 72v-103h-12q-33 0 -50.5 -32t-18.5 -75q-1 -9 -0.5 -111t0.5 -112h-141v253q0 24 -6.5 40.5t-17 23.5t-19 10t-16.5 3q-38 0 -54.5 -27.5
t-16.5 -66.5v-169q0 -35 -26.5 -59t-61.5 -24q-36 0 -62 24t-27 59v517l-272 -583v305l40 -72q24 41 126 271q7 13 18 37.5t17 36t17 30.5t19.5 28.5t23 21.5t29.5 17.5t36 9.5t46 4h192v-25h-17z" />
    <glyph glyph-name="fi" unicode="&#xfb01;" horiz-adv-x="486" 
d="M71 386v-386h73v386h199v-386h72v449l-72 -12h-199l1 55q0 35 4.5 61t18 55t45 40.5t78.5 3.5q6 -2 10 -3l16 44q-28 10 -54 10q-91 0 -141.5 -53t-50.5 -163v-50h-47v-51h47zM331 590v1q0 20 14 33.5t34 13.5t33.5 -14t13.5 -34t-14 -33.5t-34 -13.5t-33.5 13.5
t-13.5 33.5z" />
    <glyph glyph-name="fl" unicode="&#xfb02;" horiz-adv-x="532" 
d="M264 703h-1q-91 0 -141.5 -53t-50.5 -163v-50h-47v-51h47v-386h73v386h101v51h-101l1 55q0 27 2 48.5t11 47t24 40.5t43 23t67 1l9 -3l16 44q-28 10 -53 10zM518 -7q-72 -7 -112.5 23t-40.5 87v571l72 23v-592q0 -41 20 -56.5t61 -17.5v-38z" />
    <glyph glyph-name="NUL" 
 />
    <glyph glyph-name="HT" 
 />
    <glyph glyph-name="LF" 
 />
    <glyph glyph-name="CR" 
 />
    <glyph glyph-name="DLE" 
 />
    <glyph glyph-name="DC1" 
 />
    <glyph glyph-name="DC2" 
 />
    <glyph glyph-name="DC3" 
 />
    <glyph glyph-name="DC4" 
 />
    <glyph glyph-name="RS" 
 />
    <glyph glyph-name="US" 
 />
    <glyph glyph-name="DEL" 
 />
  </font>
</defs>
</svg>
