<?xml version="1.0" encoding="UTF-8" standalone="no"?>
<svg
   xmlns:dc="http://purl.org/dc/elements/1.1/"
   xmlns:cc="http://creativecommons.org/ns#"
   xmlns:rdf="http://www.w3.org/1999/02/22-rdf-syntax-ns#"
   xmlns:svg="http://www.w3.org/2000/svg"
   xmlns="http://www.w3.org/2000/svg"
   xmlns:sodipodi="http://sodipodi.sourceforge.net/DTD/sodipodi-0.dtd"
   xmlns:inkscape="http://www.inkscape.org/namespaces/inkscape"
   id="Layer_1"
   data-name="Layer 1"
   viewBox="0 0 530.9 401.46"
   version="1.1"
   sodipodi:docname="PythonSul2019-JardimBotanico.svg"
   inkscape:version="0.92.4 5da689c313, 2019-01-14">
  <metadata
     id="metadata103">
    <rdf:RDF>
      <cc:Work
         rdf:about="">
        <dc:format>image/svg+xml</dc:format>
        <dc:type
           rdf:resource="http://purl.org/dc/dcmitype/StillImage" />
      </cc:Work>
    </rdf:RDF>
  </metadata>
  <sodipodi:namedview
     pagecolor="#ffffff"
     bordercolor="#666666"
     borderopacity="1"
     objecttolerance="10"
     gridtolerance="10"
     guidetolerance="10"
     inkscape:pageopacity="0"
     inkscape:pageshadow="2"
     inkscape:window-width="1916"
     inkscape:window-height="1021"
     id="namedview101"
     showgrid="false"
     inkscape:zoom="1.8844256"
     inkscape:cx="285.70075"
     inkscape:cy="202.20099"
     inkscape:window-x="0"
     inkscape:window-y="28"
     inkscape:window-maximized="0"
     inkscape:current-layer="g75" />
  <defs
     id="defs4">
    <style
       id="style2">.cls-1{opacity:0.5;}.cls-2{fill:#cfd1d2;}.cls-3{fill:#e5e6e6;}.cls-4{fill:#f0c881;}.cls-5{fill:#102e46;}</style>
  </defs>
  <title
     id="title6">Python14-Logo Forte Reis Magos</title>
  <path
     class="cls-5"
     d="m 364.42,235.79 a 24.15,24.15 0 0 1 7.7,1 12,12 0 0 1 4.93,3 11.08,11.08 0 0 1 2.63,4.76 23.47,23.47 0 0 1 0.77,6.23 v 21.7 q -2.24,0.49 -6.23,1.15 a 59.92,59.92 0 0 1 -9.66,0.67 30.62,30.62 0 0 1 -6.47,-0.63 14,14 0 0 1 -5,-2.06 9.44,9.44 0 0 1 -3.22,-3.75 12.92,12.92 0 0 1 -1.12,-5.67 10.74,10.74 0 0 1 1.29,-5.46 10,10 0 0 1 3.46,-3.57 15.68,15.68 0 0 1 5,-1.92 27.93,27.93 0 0 1 5.81,-0.6 33.09,33.09 0 0 1 3.6,0.18 16.16,16.16 0 0 1 2.56,0.46 v -1 a 5.77,5.77 0 0 0 -1.61,-4.27 q -1.61,-1.61 -5.6,-1.61 a 35.75,35.75 0 0 0 -5.25,0.39 22.58,22.58 0 0 0 -4.48,1.08 l -1.33,-8.4 q 0.91,-0.28 2.28,-0.6 1.37,-0.32 3,-0.56 1.61,-0.24 3.4,-0.42 1.79,-0.18 3.54,-0.1 z m 0.84,30.52 q 1.54,0 2.94,-0.07 a 20.08,20.08 0 0 0 2.24,-0.21 v -7.91 q -0.63,-0.14 -1.89,-0.28 a 21.18,21.18 0 0 0 -2.31,-0.14 20.75,20.75 0 0 0 -2.77,0.18 7.23,7.23 0 0 0 -2.27,0.67 3.9,3.9 0 0 0 -1.54,1.33 3.7,3.7 0 0 0 -0.56,2.1 3.58,3.58 0 0 0 1.65,3.4 9.09,9.09 0 0 0 4.51,0.93 z"
     id="path30"
     inkscape:connector-curvature="0"
     style="fill:#102e46" />
  <path
     class="cls-5"
     d="m 370.88059,368.47196 h 1.61 v 25.14 h -1.61 z"
     id="path64"
     inkscape:connector-curvature="0"
     style="fill:#102e46" />
  <path
     id="rect98"
     style="fill:#f0c881;stroke-width:0.95960468"
     d="m 111.83008,357.60938 v 3.56054 h 49.80859 c 0.0318,-0.14495 0.0519,-0.27342 0.0879,-0.42383 0.0165,-0.0689 0.0604,-0.10396 0.1211,-0.11718 0.18218,-0.0397 0.51818,0.11608 0.73046,0.1289 1.6536,0.10104 3.14272,0.25134 4.71094,0.41211 H 461.75 v -3.56054 z" />
  <flowRoot
     xml:space="preserve"
     id="flowRoot40"
     style="fill:black;fill-opacity:1;stroke:none;font-family:'Ostrich Sans';font-style:normal;font-weight:bold;font-size:64px;line-height:1.25;letter-spacing:0px;word-spacing:0px;-inkscape-font-specification:'Ostrich Sans Bold';font-stretch:normal;font-variant:normal"><flowRegion
       id="flowRegion42"><rect
         id="rect44"
         width="394.36996"
         height="80.682724"
         x="67.380028"
         y="276.92725" /></flowRegion><flowPara
       id="flowPara46" /></flowRoot>  <text
     xml:space="preserve"
     style="font-style:normal;font-variant:normal;font-weight:bold;font-stretch:normal;font-size:64px;line-height:1.25;font-family:'DejaVu Sans Mono';-inkscape-font-specification:'DejaVu Sans Mono Bold';letter-spacing:0px;word-spacing:0px;fill:#000000;fill-opacity:1;stroke:none"
     x="174.11011"
     y="152.67764"
     id="text3744"><tspan
       sodipodi:role="line"
       id="tspan3742"
       x="174.11011"
       y="209.30264" /></text>
  <path
     id="path102"
     style="fill:#000000;stroke-width:1.96168733"
     d="m 188.39844,-62.484375 c -1.57352,0.383896 -3.14508,0.781534 -4.71485,1.191406 2.47062,-0.348094 1.98669,-0.374184 3.56055,-0.394531 0.0392,-0.01922 0.0762,-0.03029 0.11524,-0.04883 -0.0426,-0.0089 -0.0497,-0.03443 -0.006,-0.0918 0.19315,-0.224254 0.53463,-0.238555 0.86718,-0.267578 0.11994,-0.04306 0.23892,-0.07507 0.35742,-0.111328 -0.0571,-0.09337 -0.1206,-0.184738 -0.17968,-0.277344 z m 4.33008,0.488281 c 0.0856,0.04801 0.17817,0.09082 0.25781,0.144532 0.42221,-0.02461 0.84345,-0.04736 1.26562,-0.07227 -0.50739,-0.0308 -1.01517,-0.05465 -1.52343,-0.07227 z m 154.32031,28.011719 c -0.18045,0.01036 -0.36046,0.02418 -0.54102,0.0332 0.19638,0.03849 0.38996,0.07847 0.58594,0.117188 -0.0155,-0.05013 -0.0296,-0.100226 -0.0449,-0.150391 z m 64.93164,21.685547 c -0.0794,0.168251 -0.14215,0.295029 -0.2168,0.451172 0.41557,0.01859 0.85014,0.105319 1.29688,0.255859 -0.2276,-0.229785 -0.42373,-0.40806 -0.54883,-0.470703 -0.15702,-0.07859 -0.34718,-0.157111 -0.53125,-0.236328 z m -0.12109,10.9335936 c 0.58028,0.78557227 1.14555,1.58714342 1.71289,2.3867188 -0.16788,-0.34569933 -0.34948,-0.68397606 -0.54493,-1.01562502 -0.42666,-0.348151 -0.71088,-0.72390648 -0.76757,-1.12695318 -0.0455,-0.05955 -0.0867,-0.1225786 -0.13282,-0.1816406 -0.0897,-0.01967 -0.17829,-0.04031 -0.26757,-0.0625 z M 17.876953,5.1953125 c -0.238818,0.200345 -0.485536,0.3980014 -0.720703,0.5996094 0.24597,-0.19485 0.48715,-0.3943564 0.720703,-0.5996094 z M 330.14648,15.783203 c -0.0741,0.01873 -0.14909,0.03418 -0.22265,0.05469 0.003,0.01301 0.005,0.02606 0.008,0.03906 0.10246,-0.0116 0.20378,-0.02961 0.30664,-0.03906 -0.0328,-0.01931 -0.061,-0.0362 -0.0918,-0.05469 z m 15.9961,10.744141 c -0.19464,0.0133 -0.38934,0.02577 -0.58399,0.03906 0.0481,0.04035 0.0916,0.08544 0.13672,0.128906 0.14867,-0.05635 0.29075,-0.114084 0.44727,-0.167968 z M 334.61133,42.53125 c -0.46191,0.479225 -1.4441,1.496072 -2.11328,2.191406 -0.004,0.04259 -0.004,0.082 -0.008,0.125 0.69425,-0.757934 1.52024,-1.66068 2.1211,-2.316406 z m 66.89258,1.707031 c 0.11541,0.08086 0.2277,0.16606 0.34375,0.246094 0.0572,0.01364 0.20693,0.04898 0.26367,0.0625 -0.20267,-0.102979 -0.40682,-0.204259 -0.60742,-0.308594 z M 12.314453,44.798828 c -0.250757,0.105112 -0.489266,0.22467 -0.720703,0.351563 -0.0034,0.228305 0.0083,0.458049 0.01367,0.6875 0.222716,-0.362416 0.455591,-0.714389 0.707031,-1.039063 z M 334.625,90.710938 c -0.0349,0.02435 -0.069,0.04967 -0.10352,0.07422 0.18447,0.109789 0.30968,0.184964 0.47461,0.283203 -0.002,-0.03518 0.001,-0.07536 -0.002,-0.111328 -0.1196,-0.07924 -0.24394,-0.162194 -0.36914,-0.246093 z m -1.47852,1.216796 c -0.021,0.02 -0.0415,0.04053 -0.0625,0.06055 0.23118,0.105211 -0.0994,-0.04306 1.70704,0.771485 0.0245,-0.03257 0.0554,-0.0727 0.0801,-0.105469 -0.45231,-0.177882 -1.1242,-0.471131 -1.72461,-0.726563 z M 445.54297,118.5293 c -0.19622,0.35022 -0.4181,0.65901 -0.66016,0.92773 0.20524,0.2628 0.41253,0.52299 0.62696,0.7793 z m -3.58399,3.94726 -0.002,0.14844 c 0.12119,0.0944 0.24587,0.18494 0.36524,0.28125 -0.12077,-0.14321 -0.24461,-0.28503 -0.36329,-0.42969 z m -442.9648394,2.69727 -0.3359375,0.0117 c -0.05549,0.65073 -0.110115,1.30158 -0.15625,1.95312 0.249893,-0.63084 0.3913655,-1.29358 0.4921875,-1.96484 z m 197.6972694,14.0957 c -0.0136,0.001 -0.0293,0.003 -0.043,0.004 -0.0233,0.0469 -0.0471,0.0936 -0.0703,0.14062 0.0336,8.3e-4 0.0662,0.006 0.0996,0.008 0.004,-0.0509 0.009,-0.10162 0.0137,-0.15235 z m -0.0137,0.15235 c -0.001,0.0124 -0.003,0.0247 -0.004,0.0371 0.008,-0.0115 0.0154,-0.0239 0.0234,-0.0351 -0.007,-3.9e-4 -0.0129,-0.002 -0.0195,-0.002 z m -0.0996,-0.008 c -0.009,-2.1e-4 -0.0168,-0.002 -0.0254,-0.002 -0.0949,-0.002 -0.15638,0.0244 -0.21289,0.0547 -0.051,0.0749 -0.0992,0.15175 -0.15039,0.22656 -0.01,0.10248 0.0179,0.23392 0.0625,0.37695 0.008,-0.0115 0.0154,-0.0236 0.0234,-0.0352 0.10101,-0.20699 0.2008,-0.41464 0.30273,-0.6211 z M 17.109375,141.3457 c -0.210786,0.29292 -0.423765,0.58408 -0.601563,0.89453 -0.02684,0.0468 -0.01642,0.0861 0.0098,0.1211 l 0.554688,-0.60938 c 0.0174,-0.14384 0.02678,-0.27221 0.03906,-0.40625 z m 312.580075,0.19141 c -0.0349,0.0438 -0.0706,0.087 -0.10547,0.13086 0.051,-0.0238 0.10198,-0.0467 0.15235,-0.0703 -0.017,-0.0192 -0.0302,-0.0411 -0.0469,-0.0605 z m -207.66992,7.45898 c -0.0261,5.3e-4 -0.0232,-8e-5 -0.0488,0.002 -0.44819,0.41102 -0.89084,0.82849 -1.33008,1.25 0.0525,-0.006 0.12093,-0.0121 0.17383,-0.0176 0.1662,-0.16556 0.4818,-0.47684 1.20508,-1.23438 z m -124.8515612,8.64063 c -0.276458,0.0141 -0.3515084,0.20645 -0.3496094,0.46484 0.139372,-0.0799 0.2886445,-0.14013 0.4453125,-0.17773 -0.0045,-0.0916 -0.00517,-0.18797 -0.00977,-0.2793 -0.02752,-0.002 -0.061487,-0.009 -0.085937,-0.008 z m -0.1289063,6.02734 c -0.0133,0.28905 -0.014144,0.57749 0.041016,0.86133 0.02377,0.12373 0.176823,0.17279 0.3125,0.23438 -0.103824,-0.35725 -0.2208664,-0.72531 -0.3535156,-1.09571 z m 366.9218775,2.85742 c -0.0958,0.14054 -0.20047,0.27687 -0.32227,0.40235 0.10936,0.0606 0.2311,0.12766 0.34375,0.18945 -0.008,-0.19711 -0.019,-0.39456 -0.0215,-0.5918 z m -216.29492,3.91993 c 0.0439,0.0717 0.0801,0.14308 0.11328,0.21484 0.15321,0.02 0.32054,0.0379 0.47265,0.0586 -0.20053,-0.0971 -0.38715,-0.17815 -0.58593,-0.27343 z m 206.59179,0.80664 c -0.0654,0.11419 -0.13101,0.2281 -0.19726,0.34179 0.33135,0.0123 0.70687,0.0257 0.99218,0.0371 -0.26484,-0.1265 -0.52997,-0.25254 -0.79492,-0.3789 z m 90.09766,7.71679 c -0.0449,0.005 -0.0789,0.006 -0.125,0.0117 -0.21566,0.023 -0.0916,0.0947 0.12109,0.17969 z m -189.7207,13.2793 c 0.13895,0.0531 0.2687,0.0942 0.40234,0.14063 0.12717,0.0404 0.25212,0.0873 0.37891,0.1289 0.22433,0.0683 0.44075,0.12582 0.64648,0.16602 -0.0802,-0.1179 -0.18678,-0.2512 -0.34961,-0.41797 l -0.7832,-0.0117 c -0.14707,-0.002 -0.17938,-0.006 -0.29492,-0.006 z m 13.19726,2.51172 c -0.03,0.009 -0.062,0.014 -0.0918,0.0234 0.0514,0.0134 0.0798,0.0277 0.12696,0.041 -0.0122,-0.0215 -0.0233,-0.0431 -0.0352,-0.0644 z M 17.007812,198.4668 c -0.0011,0.0181 -0.0048,0.0367 -0.0059,0.0547 0.03048,0.0226 0.06083,0.0433 0.08789,0.0606 -0.02729,-0.0386 -0.05474,-0.0766 -0.08203,-0.11523 z m 84.769528,0.64648 c -0.94771,0.16214 -1.893616,0.34623 -2.837887,0.54102 1.195777,-0.0118 2.420577,-0.0181 3.628907,-0.0274 -0.007,-0.0146 -0.0194,-0.0226 -0.0254,-0.0391 -0.26835,-0.005 -0.53599,-0.0241 -0.80469,-0.0176 0.0187,-0.151 0.0237,-0.30524 0.0391,-0.45703 z m 9.99219,0.42188 c -1.83652,-0.0115 -3.67657,0.0188 -5.51367,0.0391 -0.0488,0.008 -0.0955,0.0129 -0.14453,0.0215 -0.0371,0.003 -0.0742,1.9e-4 -0.11133,0.004 1.96763,-0.0111 3.9441,-0.0209 5.94727,-0.0254 -0.0587,-0.0116 -0.11927,-0.0282 -0.17774,-0.0391 z m 284.07031,50.96093 c -0.0448,0.0152 -0.0899,0.0317 -0.13476,0.0469 0.0584,0.0219 0.1192,0.0443 0.17773,0.0664 -0.015,-0.0378 -0.0282,-0.0755 -0.043,-0.11329 z m 33.54883,25.69532 c -0.0247,0.0254 -0.0445,0.053 -0.0703,0.0781 -0.007,0.1647 -0.0149,0.32967 -0.0254,0.50195 -0.003,0.0485 -0.01,0.0841 -0.0137,0.13086 0.0914,-0.0356 0.17844,-0.0716 0.26758,-0.10742 -0.0509,-0.20151 -0.10173,-0.40346 -0.15821,-0.60351 z M 426.5,277.83594 c 0.005,0.0266 0.01,0.0534 0.0137,0.0781 0.0184,-0.006 0.0343,-0.0131 0.0527,-0.0195 -0.0227,-0.0208 -0.0436,-0.0374 -0.0664,-0.0586 z m -251.27539,2.24218 c -0.55776,0.10573 -0.98833,0.18759 -1.5957,0.30665 0.67507,-0.0125 1.35112,-0.0812 2.03711,-0.25782 -0.14726,-0.0139 -0.29384,-0.0337 -0.44141,-0.0488 z" />
  <text
     xml:space="preserve"
     style="font-style:normal;font-variant:normal;font-weight:normal;font-stretch:normal;font-size:64px;line-height:1.25;font-family:'Ostrich Sans';-inkscape-font-specification:'Ostrich Sans';letter-spacing:0px;word-spacing:0px;fill:#000000;fill-opacity:1;stroke:none;"
     x="24.765661"
     y="372.19147"
     id="text4136"><tspan
       sodipodi:role="line"
       id="tspan4134"
       x="24.765661"
       y="428.81647" /></text>
  <text
     xml:space="preserve"
     style="font-style:normal;font-variant:normal;font-weight:normal;font-stretch:normal;font-size:37.33333206px;line-height:1.25;font-family:'Ostrich Sans';-inkscape-font-specification:'Ostrich Sans';letter-spacing:0px;word-spacing:0px;fill:#000000;fill-opacity:1;stroke:none"
     x="273.13861"
     y="393.95526"
     id="text4195"><tspan
       sodipodi:role="line"
       id="tspan4193"
       x="273.13861"
       y="393.95526">CUritiBA</tspan></text>
  <text
     xml:space="preserve"
     style="font-style:normal;font-variant:normal;font-weight:normal;font-stretch:normal;font-size:37.33333206px;line-height:1.25;font-family:'Ostrich Sans';-inkscape-font-specification:'Ostrich Sans';letter-spacing:0px;word-spacing:0px;fill:#000000;fill-opacity:1;stroke:none"
     x="384.24301"
     y="393.45621"
     id="text4199"><tspan
       sodipodi:role="line"
       id="tspan4197"
       x="384.24301"
       y="393.45621">PARANÁ</tspan></text>
  <text
     xml:space="preserve"
     style="font-style:normal;font-variant:normal;font-weight:500;font-stretch:normal;font-size:85.33333588px;line-height:1.25;font-family:'Ostrich Sans';-inkscape-font-specification:'Ostrich Sans, Medium';font-variant-ligatures:normal;font-variant-caps:normal;font-variant-numeric:normal;font-feature-settings:normal;text-align:start;letter-spacing:0px;word-spacing:0px;writing-mode:lr-tb;text-anchor:start;fill:#000000;fill-opacity:1;stroke:none"
     x="211.7793"
     y="346.65625"
     id="text41"><tspan
       sodipodi:role="line"
       id="tspan39"
       x="211.7793"
       y="346.65625">DE AGOSTO</tspan></text>
  <g
     id="g75"
     transform="matrix(1.5175465,0,0,1.1739854,-252.19312,-345.99586)">
    <path
       style="fill:#060606;stroke-width:0.3962608"
       d="m 174.66108,479.54927 c -0.10618,-0.31811 -0.13776,-12.98148 -0.07,-28.14084 l 0.12309,-27.56246 1.02118,-3.82291 c 4.92548,-18.43911 17.83014,-31.93157 35.55434,-37.1738 1.82984,-0.54119 3.53494,-1.1668 3.78909,-1.3902 0.35889,-0.3155 0.46209,-5.19369 0.46209,-21.84442 0,-19.95364 0.0526,-21.73471 0.75933,-25.71971 1.56941,-8.84917 4.07941,-14.36764 9.22227,-20.27606 3.71405,-4.26693 5.86562,-5.94755 10.66927,-8.33392 12.05745,-5.98996 27.32937,-4.61896 38.31926,3.44 5.88633,4.31648 11.38392,13.172 13.13335,21.15523 0.72717,3.31829 1.49741,2.74399 3.04184,-2.268 0.72395,-2.3494 2.0263,-5.69753 2.89406,-7.44026 1.91771,-3.85131 5.87592,-8.87794 9.02258,-11.45804 13.82345,-11.33449 36.0545,-9.97982 48.1099,2.93164 4.29314,4.598 6.99528,9.77177 9.79354,18.75165 0.2912,0.93448 0.7548,1.69907 1.03022,1.69907 0.29743,0 0.90075,-1.37983 1.48581,-3.39813 4.15733,-14.34165 13.10038,-23.11791 26.63191,-26.13525 5.63291,-1.25605 9.29717,-1.43357 13.49286,-0.6536 9.89537,1.83949 16.53313,5.4512 22.03703,11.99072 4.91386,5.83847 7.56707,12.00038 8.9983,20.89799 0.46609,2.89754 0.57125,7.4372 0.57125,24.66151 0,16.24874 0.10646,21.26408 0.46208,21.77827 0.25415,0.36739 1.7097,1.00123 3.23459,1.40849 9.21277,2.46055 18.50915,8.27698 24.76771,15.49637 5.27249,6.08192 9.02303,13.31907 11.33921,21.88045 l 1.03424,3.82291 0.11246,28.14084 0.11248,28.14082 H 325.33536 c -126.62206,0 -150.51176,-0.0917 -150.67428,-0.57836 z m 149.2758,-2.11088 c 0.327,-0.59066 0.38706,-53.85807 0.0618,-54.83198 -0.63241,-1.89371 -5.23002,0.43413 -8.67645,4.39306 -2.79275,3.20801 -4.75132,6.98668 -6.2558,12.06929 -1.65871,5.60369 -1.89288,8.83863 -1.77258,24.4889 l 0.10939,14.22565 1.07476,0.21644 c 2.13879,0.43072 15.1717,-0.0426 15.45893,-0.56136 z M 193.94689,476.9485 c 0.12673,-0.5804 0.15451,-7.79614 0.0617,-16.03496 -0.18481,-16.39256 -0.44087,-18.97511 -2.53231,-25.54106 -4.40199,-13.81976 -11.37681,-10.49484 -14.60322,6.96141 -0.4499,2.43417 -0.63124,6.81789 -0.77695,18.78333 -0.10451,8.58446 -0.094,15.89576 0.0234,16.24734 0.18168,0.54406 1.50765,0.63925 8.90523,0.63925 h 8.69173 z m 52.83086,-14.44871 c 0,-14.84562 -0.0253,-15.38453 -0.86572,-18.47737 -1.28336,-4.7227 -3.19014,-8.57382 -5.93192,-11.98078 -3.13521,-3.89581 -6.84111,-6.67093 -11.00005,-8.2372 -2.89004,-1.08841 -3.79281,-1.23115 -7.70936,-1.21898 -5.14613,0.0161 -7.30608,0.6198 -11.82936,3.30695 -3.46854,2.06055 -8.14131,7.1403 -10.0996,10.97923 -1.5199,2.97948 -2.85823,7.33846 -3.36924,10.97368 -0.40926,2.91151 -0.55439,28.33351 -0.16833,29.48951 0.20337,0.60897 2.70089,0.66416 25.59946,0.5657 l 25.37412,-0.10919 z m 38.07574,-0.84952 c 0,-15.41096 -0.0377,-16.30399 -0.83483,-19.74036 -2.14739,-9.258 -6.42192,-16.10256 -11.91869,-19.08471 -1.69173,-0.91782 -2.56086,-1.10307 -5.17536,-1.10307 -2.75417,0 -3.44388,0.16428 -5.58581,1.33042 -5.64567,3.07376 -9.98752,10.61898 -12.03701,20.91782 -0.41519,2.08633 -0.61017,6.56599 -0.75479,17.34052 -0.1073,7.99013 -0.0881,15.01652 0.0423,15.61423 l 0.23737,1.08674 18.01338,-0.1103 18.01336,-0.11029 z m 20.33172,-4.67245 c 0,-22.84177 -0.1414,-24.84633 -2.07604,-29.43232 -1.59173,-3.77314 -3.23229,-4.97384 -6.79599,-4.97384 -3.55553,0 -5.19719,1.19881 -6.81119,4.97384 -2.1558,5.04227 -2.32245,6.97773 -2.50881,29.13864 -0.0929,11.05233 -0.0758,20.37408 0.038,20.71498 0.17503,0.52411 1.59276,0.60226 9.1805,0.50607 l 8.97351,-0.11382 z m 37.73545,19.98076 c 0.1256,-0.57487 0.14925,-7.59945 0.0527,-15.61019 -0.19377,-16.06473 -0.39992,-17.95536 -2.66025,-24.39638 -1.55173,-4.42186 -3.31299,-7.45845 -6.09359,-10.50601 -2.32765,-2.55113 -5.72445,-4.66436 -7.1291,-4.43518 l -0.83411,0.13614 -0.0959,27.39747 c -0.0527,15.06863 -0.0163,27.63644 0.0808,27.92847 0.13384,0.40252 2.14467,0.53095 8.31385,0.53095 h 8.13725 z m 20.34354,-0.0541 c 0.13203,-0.60465 0.1526,-9.44511 0.0455,-19.64549 -0.20579,-19.61825 -0.47503,-23.16635 -2.14773,-28.30342 -1.39172,-4.27413 -3.92774,-6.56711 -7.28507,-6.58689 -4.33999,-0.0255 -7.01623,3.22036 -8.41697,10.20868 -0.53556,2.67182 -0.66012,6.27879 -0.80334,23.2612 -0.0932,11.05448 -0.0679,20.56395 0.0562,21.13218 l 0.22567,1.03314 h 9.04276 9.04277 z m 38.02185,-14.82939 c -0.0147,-18.2555 -0.23222,-19.96697 -3.5246,-27.73687 -2.24627,-5.30107 -5.50506,-9.40608 -9.03142,-11.37661 -1.94843,-1.08878 -2.62235,-1.23941 -5.54501,-1.23941 -2.90856,0 -3.59657,0.15203 -5.47017,1.20924 -6.15433,3.47245 -11.19377,12.93758 -12.43298,23.35181 -0.4285,3.60105 -0.55513,30.97072 -0.14546,31.44144 0.13747,0.15797 8.33022,0.23759 18.20612,0.17699 l 17.95619,-0.11019 z m 52.98092,1.69906 c 0.0669,-8.86223 -0.0444,-15.02903 -0.30265,-16.76832 -1.59576,-10.74767 -8.51607,-19.89787 -17.54719,-23.20138 -6.38045,-2.33392 -12.72022,-1.72773 -19.03787,1.8203 -2.91593,1.6376 -4.02416,2.56737 -6.53113,5.47929 -2.43615,2.82967 -3.34606,4.27232 -4.71108,7.46939 -2.83022,6.62868 -2.90285,7.17891 -3.08234,23.35239 -0.11233,10.12085 -0.0369,14.5542 0.25849,15.18836 l 0.41713,0.89556 25.21541,-0.10918 25.21543,-0.10918 z m 19.48658,-2.3362 c 0,-14.24279 -0.0872,-16.8187 -0.67573,-19.9574 -1.07487,-5.73269 -2.63649,-9.89237 -4.66579,-12.42827 -1.55248,-1.94005 -1.94903,-2.21356 -3.20935,-2.21356 -1.81366,0 -3.02866,1.01953 -4.73064,3.96958 -1.54537,2.6786 -2.94799,7.49652 -3.76378,12.92843 -0.65255,4.34494 -1.01015,32.17163 -0.43091,33.53157 0.29439,0.69121 1.00416,0.74204 8.89805,0.63716 l 8.57815,-0.11398 z M 198.29231,435.58128 c 1.88345,-3.50627 4.41881,-6.62154 7.56559,-9.29612 1.48551,-1.2626 2.63376,-2.51906 2.55169,-2.79216 -0.19125,-0.63639 -11.68369,-0.42451 -12.36796,0.22803 -0.33471,0.31919 -0.46282,2.28857 -0.46282,7.11483 0,3.67041 0.11094,6.8009 0.24645,6.95664 0.59189,0.6801 1.21296,0.12345 2.46705,-2.21122 z m 48.58604,-5.69758 c 0.0871,-6.89005 0.0227,-8.00294 -0.47475,-8.22231 -0.31645,-0.13952 -3.48079,-0.11462 -7.03186,0.0554 -5.81573,0.2784 -6.45652,0.3833 -6.45652,1.05696 0,0.47351 0.90104,1.35284 2.45589,2.39676 3.06318,2.05658 6.87917,6.42406 8.81897,10.09352 2.35044,4.44624 2.56976,4.00732 2.68827,-5.38031 z m 158.83278,5.63168 c 2.04767,-3.81196 5.09676,-7.36328 8.59438,-10.00996 1.7145,-1.29739 3.05257,-2.5838 2.97347,-2.85869 -0.21468,-0.7461 -13.04431,-1.39686 -13.77632,-0.69879 -0.4369,0.41666 -0.54043,1.95652 -0.54043,8.03839 0,4.13764 0.11094,7.65043 0.24645,7.80617 0.59453,0.68316 1.2161,0.11752 2.50245,-2.27712 z m 48.63487,-4.63567 c 0,-3.95777 -0.12477,-7.28313 -0.27724,-7.38967 -0.1525,-0.10639 -2.98045,-0.33339 -6.28435,-0.50417 -5.83757,-0.30171 -6.0071,-0.28666 -6.0071,0.53327 0,0.55085 0.70134,1.37878 2.02049,2.38522 2.78088,2.12161 5.6171,5.4776 7.70116,9.11252 2.66845,4.65418 2.84704,4.39467 2.84704,-4.13717 z m -144.64129,1.80037 c 1.39915,-3.18609 3.93098,-6.7087 6.57947,-9.15418 3.43178,-3.16875 3.33103,-3.29044 -2.72413,-3.29044 -2.84471,0 -5.43535,0.11607 -5.75695,0.25783 -0.50189,0.22131 -0.58472,1.29455 -0.58472,7.57501 0,4.02446 0.1094,7.44296 0.24322,7.59669 0.40985,0.47093 1.16926,-0.53962 2.24311,-2.98491 z m -58.7076,0.37082 c 1.45016,-3.30096 3.38276,-6.23454 5.66953,-8.60608 1.38648,-1.43789 1.81459,-2.14583 1.63067,-2.69654 -0.22657,-0.67849 -0.64625,-0.719 -4.59063,-0.44307 -2.38769,0.16703 -4.54919,0.49593 -4.80335,0.7309 -0.48539,0.44876 -0.68969,11.46567 -0.2377,12.81909 0.43057,1.2893 1.25152,0.65398 2.33148,-1.8043 z m 34.04122,-4.73676 v -7.21296 l -0.97576,-0.2814 c -1.28275,-0.36994 -8.69035,0.15814 -9.11846,0.65015 -0.19736,0.22676 0.67919,1.47985 2.15334,3.07833 2.51236,2.72425 4.58565,5.869 6.04803,9.17355 0.43937,0.99291 1.04501,1.80527 1.34586,1.80527 0.4614,0 0.54699,-1.12864 0.54699,-7.21294 z m 57.95474,0.043 c 0.0697,-4.76228 -0.0316,-7.13149 -0.32252,-7.53422 -0.64486,-0.89281 -11.42381,-0.85515 -11.42381,0.0399 0,0.34506 0.45747,0.96067 1.0166,1.36804 3.39406,2.47294 6.22109,6.186 8.28251,10.8783 0.77339,1.76043 1.26755,2.43254 1.71582,2.33363 0.55738,-0.12296 0.64129,-0.93588 0.7314,-7.08565 z m 24.07487,5.15231 c 1.3396,-3.17929 3.94028,-7.11697 6.14512,-9.30419 2.20941,-2.19178 2.46209,-2.88631 1.19237,-3.27729 -1.56794,-0.48283 -8.60792,-0.29509 -9.07534,0.242 -0.47792,0.54916 -0.65995,13.54218 -0.19715,14.07394 0.57645,0.6624 1.1367,0.16023 1.935,-1.73446 z m 34.33333,-4.51404 c 0.0697,-4.29047 -0.0334,-6.49689 -0.32252,-6.89714 -0.50597,-0.70053 -9.0173,-0.85922 -9.38532,-0.17499 -0.12239,0.22744 0.99073,1.81066 2.47343,3.51829 1.77394,2.04301 3.26473,4.29694 4.35936,6.59089 2.43148,5.09554 2.7483,4.76086 2.87505,-3.03705 z m -223.29533,2.88815 c 1.14474,-2.30988 1.09201,-3.15274 -0.19724,-3.15274 -1.42564,0 -1.92226,0.71696 -1.92226,2.77515 0,2.90565 0.79633,3.04752 2.1195,0.37759 z m 15.76982,1.27256 c 0.12337,-0.36953 0.22438,-2.47812 0.22438,-4.68575 0,-4.63656 -0.17173,-4.87373 -2.92192,-4.03507 -2.63802,0.80445 -2.85943,1.28937 -1.4899,3.26322 0.6371,0.91818 1.49464,2.43403 1.90564,3.36852 1.2505,2.84312 1.84747,3.38965 2.2818,2.08908 z m 264.39383,-1.55814 c 0.53826,-1.22653 1.47255,-2.95057 2.07617,-3.83121 0.60361,-0.88064 1.01193,-1.85738 0.90734,-2.17049 -0.19152,-0.57352 -2.88695,-1.53793 -4.2983,-1.53793 -0.72071,0 -0.76046,0.24053 -0.76046,4.60164 0,6.038 0.44083,6.66211 2.07525,2.93799 z m 15.66878,-0.29822 c 0,-2.11424 -0.32867,-2.56897 -1.85675,-2.56897 -1.09899,0 -1.18452,0.69354 -0.32558,2.64022 1.3793,3.12597 2.18233,3.09975 2.18233,-0.0713 z m -0.38356,-4.67395 c 0.4649,-0.33789 0.47358,-0.76818 0.0619,-3.07307 -2.58269,-14.46051 -11.28674,-26.99438 -23.69225,-34.11698 -1.51692,-0.87093 -3.39546,-1.84193 -4.17453,-2.15777 -2.28373,-0.92585 -2.20491,0.21513 0.22302,3.22848 6.32626,7.85161 9.66966,16.66003 10.12949,26.68689 0.16005,3.49007 0.32291,4.44544 0.79356,4.65493 0.52682,0.23452 15.47356,5.05326 15.93335,5.13683 0.10175,0.0185 0.42811,-0.14321 0.72544,-0.35931 z m -288.02545,-2.36549 c 4.19528,-1.29065 7.72893,-2.4853 7.85255,-2.6548 0.12365,-0.16948 0.41659,-2.60191 0.65102,-5.40537 0.50139,-5.99567 1.37114,-9.74233 3.37821,-14.55228 1.8001,-4.31391 3.12194,-6.54751 6.41946,-10.84743 2.93593,-3.82839 2.9186,-4.6479 -0.0696,-3.2945 -11.54782,5.23019 -21.29737,16.25153 -25.3922,28.70456 -1.30086,3.95613 -2.40502,8.98481 -2.14425,9.76563 0.31949,0.95668 1.06422,0.81935 9.30481,-1.71581 z m 104.08432,-0.45074 c 2.07772,-2.72199 1.94782,-3.2646 -0.73469,-3.06887 l -1.8075,0.13181 -0.1101,2.65478 c -0.13958,3.3664 0.26518,3.40946 2.65225,0.28221 z m 73.56975,1.7007 c 0.38183,-1.14331 0.24744,-3.80415 -0.21922,-4.34035 -0.65162,-0.74875 -3.59649,-0.65778 -3.85595,0.11913 -0.22644,0.67803 2.70178,4.84113 3.42825,4.87403 0.23241,0.0113 0.52351,-0.28324 0.64692,-0.65279 z m -15.96127,-1.75454 c 0.97275,-1.10092 1.76862,-2.22735 1.76862,-2.50316 0,-1.00695 -2.41346,-1.38148 -3.72096,-0.57744 -0.55443,0.34094 -0.71505,0.89755 -0.71505,2.47782 0,3.23977 0.28129,3.30332 2.66739,0.60278 z m -41.85212,-0.71387 c 0,-2.47555 -0.2615,-2.80643 -2.21801,-2.80643 -1.26313,0 -2.218,0.38104 -2.218,0.8851 0,0.68062 3.13415,4.1316 3.78909,4.1721 0.54043,0.0333 0.64692,-0.33701 0.64692,-2.25077 z m -80.21783,-2.6101 c 11.08078,-0.34997 20.52116,-0.73209 20.97862,-0.84917 l 0.83175,-0.21287 v -18.00909 c 0,-14.01279 -0.10257,-18.05543 -0.46209,-18.21786 -0.58174,-0.26278 -27.87289,0.0945 -30.50034,0.39919 -2.27122,0.26347 -4.51884,1.84861 -8.63367,6.08892 -6.67328,6.87682 -11.05574,16.96384 -11.66662,26.85292 -0.31916,5.16669 -0.3563,5.13101 5.02266,4.82664 2.35556,-0.13325 13.3489,-0.52868 24.42969,-0.87864 z m 228.98254,0.41048 c 1.5484,-1.77919 -0.42784,-12.85924 -3.51819,-19.72521 -2.75597,-6.12307 -8.35019,-13.06474 -13.27526,-16.47284 l -1.66351,-1.15112 -15.87766,-0.35473 c -14.26448,-0.31868 -15.92099,-0.28662 -16.30421,0.31559 -0.66294,1.04176 -0.49149,35.4369 0.17902,35.91305 0.27142,0.19278 4.85509,0.4897 10.18589,0.65982 8.73726,0.27887 35.59778,1.27047 38.51801,1.42198 0.64626,0.0336 1.43643,-0.23941 1.75591,-0.60654 z m -177.7836,-1.80014 8.50234,-0.29335 0.0964,-18.17038 c 0.0795,-14.97775 0.008,-18.20922 -0.40486,-18.3914 -0.27568,-0.12154 -8.29781,-0.0339 -17.82695,0.19501 -15.8611,0.38085 -17.36593,0.4792 -17.80126,1.16332 -0.36913,0.58004 -0.47429,4.55555 -0.4699,17.76298 0.003,9.35864 0.12783,17.22596 0.27724,17.48298 0.14938,0.257 0.47798,0.5437 0.73024,0.63714 0.58173,0.21548 15.78267,-0.003 26.89674,-0.3863 z m 124.41737,0.32886 c 0.68932,-0.42391 0.71484,-1.06926 0.70938,-17.94643 -0.003,-9.62868 -0.14237,-17.7543 -0.30944,-18.05692 -0.42341,-0.76696 -34.99704,-1.63304 -35.76985,-0.89605 -0.74116,0.70678 -0.76209,35.29764 -0.0218,36.00362 0.32755,0.31237 6.00348,0.58915 17.09711,0.83372 9.13374,0.20134 16.82565,0.39662 17.09316,0.43394 0.26752,0.0373 0.80815,-0.13004 1.20143,-0.37188 z m -95.86057,-1.06918 c 0.3602,-0.12747 0.46209,-4.14977 0.46209,-18.24278 0,-15.48301 -0.0777,-18.11356 -0.54133,-18.31797 -0.29773,-0.13132 -4.4149,-0.0775 -9.14927,0.1196 l -8.60795,0.35823 -0.0966,18.02463 c -0.0757,14.14131 0.004,18.09613 0.36968,18.35637 0.44491,0.31661 16.60119,0.0425 17.56328,-0.298 z m 58.05626,0.14962 c 0.65426,-0.75175 0.63647,-35.31588 -0.0185,-35.91216 -0.72029,-0.65578 -17.21896,-1.12172 -17.86612,-0.50457 -0.74924,0.71449 -0.78609,35.29899 -0.0384,36.01204 0.28126,0.26823 2.58123,0.51978 5.4526,0.5964 2.73137,0.0729 6.55477,0.17425 8.49644,0.22527 2.35163,0.0618 3.67844,-0.0774 3.97393,-0.41698 z m -39.20322,-1.08209 c 0.352,-0.52896 0.46208,-4.76621 0.46208,-17.78594 0,-14.90087 -0.0738,-17.17627 -0.57531,-17.7526 -0.4972,-0.5713 -1.58893,-0.62827 -8.04027,-0.41946 -4.10572,0.13293 -7.67289,0.31512 -7.92704,0.405 -0.36015,0.1273 -0.46207,4.13277 -0.46207,18.15855 0,9.89733 0.12477,18.1452 0.27724,18.32859 0.15248,0.18338 3.7706,0.20448 8.04027,0.0468 6.55499,-0.24199 7.83492,-0.39466 8.2251,-0.98098 z m 18.87152,0.65733 c 0.65425,-0.75178 0.63646,-35.31645 -0.0185,-35.91079 -0.57292,-0.5199 -15.44257,-1.08381 -16.0846,-0.60997 -0.36558,0.26981 -0.44533,4.23246 -0.36966,18.36868 l 0.0966,18.02464 3.69667,0.23632 c 7.28692,0.46584 12.21629,0.4235 12.6796,-0.10885 z M 226.04996,380.91414 c 0.51064,-0.58675 0.58092,-2.94631 0.58092,-19.50456 0,-10.36038 -0.10102,-19.13941 -0.22439,-19.50895 -0.2524,-0.75578 -1.36136,-0.86168 -2.95504,-0.28219 -0.58947,0.21433 -2.27779,0.79327 -3.75184,1.28652 l -2.6801,0.89685 v 18.60672 c 0,10.23371 0.11094,18.73418 0.24645,18.88992 0.13553,0.15572 2.0367,0.28317 4.22478,0.28317 3.12377,0 4.1031,-0.14336 4.55922,-0.66748 z m 20.45053,-0.27416 c 0.65579,-0.61974 0.67364,-38.99825 0.0185,-39.75105 -0.46888,-0.53878 -16.65533,-0.76752 -17.82469,-0.25189 -0.52169,0.23002 -0.58475,2.40325 -0.58475,20.15533 0,16.79373 0.0823,19.95049 0.52759,20.23719 0.77312,0.49777 17.30595,0.13726 17.86336,-0.38958 z m 175.26817,0.28759 c 0.42675,-0.48979 0.46964,-38.79057 0.0444,-39.70344 -0.37587,-0.807 -0.78785,-0.84492 -9.17861,-0.84492 -6.33995,0 -8.90854,0.14191 -9.22868,0.50972 -0.55427,0.63687 -0.63325,38.41524 -0.0824,39.4184 0.50428,0.91838 17.68217,1.49599 18.44525,0.62024 z m 11.09537,0.074 c 0.30116,-0.41698 0.39184,-5.69951 0.32251,-18.79033 l -0.0964,-18.21029 -0.92417,-0.50618 c -1.67075,-0.9151 -7.2275,-2.43008 -7.87156,-2.14611 -0.58192,0.25658 -0.63078,1.78663 -0.63078,19.74581 0,14.57518 0.11149,19.59577 0.4436,19.97739 0.65874,0.75695 8.20308,0.69637 8.75682,-0.0703 z m -164.17494,-0.44199 c 3.42594,-0.10695 5.46778,-0.34712 5.82227,-0.68517 0.46632,-0.44473 0.54595,-3.24273 0.54595,-19.18631 0,-12.05442 -0.13552,-18.95669 -0.38268,-19.4873 -0.36679,-0.78751 -0.90311,-0.8216 -12.92535,-0.8216 -12.02226,0 -12.55857,0.034 -12.92535,0.8216 -0.24734,0.53105 -0.38267,7.50558 -0.38267,19.72135 0,16.06384 0.0816,18.99343 0.54352,19.52427 0.55771,0.64083 2.43775,0.65163 19.70431,0.11318 z m 132.17385,0.0662 c 0.57996,-0.48902 0.62204,-2.09104 0.53274,-20.28264 l -0.097,-19.75167 h -12.93835 -12.93837 l -0.0962,19.51371 c -0.0612,12.42582 0.0364,19.66604 0.26875,19.93306 0.21377,0.24564 5.15333,0.53376 11.92555,0.69558 6.35834,0.15187 11.81993,0.30925 12.13688,0.34959 0.31693,0.0403 0.85962,-0.1656 1.20595,-0.45763 z m -113.72876,-0.88506 c 0.37021,-0.42706 0.41729,-35.34148 0.0482,-35.7654 -0.14234,-0.16346 -2.31864,-0.92163 -4.83622,-1.68482 -3.16253,-0.95869 -4.76798,-1.2651 -5.19383,-0.99126 -0.56109,0.3608 -0.61639,2.10287 -0.61639,19.41899 0,10.46244 0.12309,19.16401 0.27343,19.33682 0.36915,0.42416 9.93709,0.13292 10.32477,-0.31433 z m 13.71117,-0.0917 c 0.36758,-0.13262 0.44554,-4.26854 0.36966,-19.61279 l -0.0962,-19.4448 -1.40351,-0.13309 c -1.60791,-0.15235 -8.5939,2.18639 -9.5941,3.21191 -0.5961,0.61119 -0.64691,2.0239 -0.64691,17.98259 0,14.59999 0.0845,17.41644 0.53851,17.93805 0.43592,0.50093 1.47452,0.58137 5.45259,0.42242 2.70275,-0.10807 5.1237,-0.27198 5.3799,-0.36436 z m 72.40304,0.1509 c 0.34335,-0.63837 0.53876,-26.3887 0.25321,-33.3679 -0.2112,-5.16209 -0.22003,-5.2034 -1.11242,-5.2034 -1.08416,0 -8.10601,2.0103 -9.05042,2.59107 -0.6307,0.38785 -0.67027,1.45101 -0.67027,18.00399 0,16.30598 0.0472,17.62343 0.64692,18.02474 0.9456,0.63285 9.58921,0.59065 9.93298,-0.0485 z m -49.4874,-0.87583 c 0.3576,-0.32501 0.46208,-4.81418 0.46208,-19.85524 0,-16.44984 -0.0823,-19.5137 -0.53542,-19.94587 -0.41784,-0.39845 -2.66203,-0.36059 -10.21805,0.17238 -5.32546,0.37563 -9.8255,0.78442 -10.00011,0.90843 -0.1746,0.12393 -0.31746,8.99091 -0.31746,19.70428 0,15.18144 0.10195,19.52782 0.46208,19.7009 0.81946,0.39382 19.66485,-0.24681 20.14688,-0.68488 z m 22.99878,0.13677 c 0.61379,-1.3178 0.51894,-38.02301 -0.0998,-38.61304 -0.53686,-0.51196 -19.13342,-2.01128 -20.03205,-1.61504 -0.49615,0.21876 -0.55226,2.65752 -0.46773,20.33056 l 0.096,20.08199 6.46919,0.22763 c 13.86861,0.48799 13.61161,0.49553 14.03434,-0.4121 z m 13.6023,-17.32389 0.0964,-17.93313 -1.02058,-0.60492 c -2.17216,-1.28747 -7.38113,-2.87434 -8.99899,-2.7415 l -1.63296,0.13406 -0.0963,19.06569 c -0.0702,13.92968 0.0187,19.22484 0.33047,19.65648 0.33629,0.46563 1.57083,0.56597 5.8261,0.47362 l 5.39936,-0.1172 z m -73.33216,-23.4942 c -0.0782,-5.96838 -2.46042,-13.84135 -5.82967,-19.26671 -2.04385,-3.29111 -5.93445,-7.50768 -8.46756,-9.17699 -3.24117,-2.1359 -3.62184,-1.57763 -1.58042,2.31782 2.74869,5.24499 5.37212,16.36052 5.37983,22.79438 0.003,2.10182 0.16935,3.39773 0.47494,3.68915 0.56165,0.5356 8.71394,3.02185 9.50997,2.9003 0.44114,-0.0675 0.54599,-0.7334 0.51291,-3.25795 z m 82.47743,1.72893 3.69666,-1.12138 0.27302,-4.22665 c 0.51893,-8.0331 2.49645,-16.35029 5.26218,-22.13188 2.12435,-4.44087 1.67774,-4.9969 -1.87363,-2.33265 -7.8615,5.89777 -12.99431,16.12583 -14.06698,28.03097 -0.35439,3.93323 -0.37027,3.929 6.70875,1.78159 z m -147.20004,0.17071 c 1.86967,-0.59741 3.60735,-1.39852 3.86149,-1.78027 0.27971,-0.42013 0.46209,-2.01868 0.46209,-4.05047 0,-6.13147 1.9379,-14.69 4.71223,-20.81106 0.71771,-1.5835 1.20644,-2.99225 1.08607,-3.13058 -0.90077,-1.03502 -5.84928,3.4163 -8.68615,7.81342 -3.56485,5.52547 -6.03201,12.98362 -6.57574,19.8783 l -0.24976,3.16684 h 0.9952 c 0.54734,0 2.52491,-0.48878 4.39457,-1.08618 z m 137.73171,0.32638 c 0.2341,-0.5026 0.18035,-1.90892 -0.15878,-4.15441 -1.80337,-11.94079 -6.74809,-21.17559 -14.4195,-26.93 -4.17689,-3.13312 -5.57341,-2.67381 -2.97077,0.9771 3.39052,4.75613 5.55034,12.20205 6.21443,21.42409 0.42011,5.83371 0.48429,6.15237 1.31228,6.51409 0.47882,0.20918 1.32474,0.38033 1.87982,0.38033 0.5551,0 2.4157,0.55905 4.1347,1.24233 3.78938,1.50622 3.57447,1.47693 4.00782,0.54647 z m 72.93283,-1.95766 c -0.26572,-5.62821 -2.78228,-13.99296 -5.66715,-18.83698 -3.15378,-5.29556 -9.55576,-11.33146 -9.55576,-9.00934 0,0.24434 0.74264,2.20357 1.65033,4.35387 2.19861,5.20852 3.8791,12.75264 4.15912,18.67113 0.14106,2.98157 0.38426,4.72748 0.70055,5.02911 0.74584,0.71125 6.47513,2.4792 7.72219,2.38292 l 1.10901,-0.0855 z m -138.84212,1.4179 c 1.20091,-0.48112 3.26473,-1.10428 4.5863,-1.38478 l 2.40284,-0.50999 0.23743,-5.51769 c 0.40803,-9.48225 2.31547,-16.33222 6.20032,-22.26651 0.83055,-1.2687 1.51009,-2.46337 1.51009,-2.6548 0,-1.5709 -5.21121,1.77054 -8.63337,5.53574 -5.64407,6.20986 -9.62468,15.73592 -10.45418,25.01804 l -0.23725,2.65479 h 1.10219 c 0.60619,0 2.08473,-0.39365 3.28563,-0.8748 z m -47.61074,-1.75876 c 0.69733,-0.80127 0.6309,-33.18902 -0.0694,-33.8569 -0.37205,-0.35479 -0.97497,-0.3703 -2.19385,-0.0565 -6.00189,1.54553 -9.03807,4.44907 -12.01808,11.49301 -1.03607,2.44896 -2.31436,6.36411 -2.84062,8.70033 -1.13602,5.04288 -1.64936,12.57963 -0.92514,13.58234 0.39429,0.5459 1.81051,0.64737 9.03555,0.64737 6.17111,0 8.69208,-0.14256 9.01159,-0.50972 z m 27.73461,0.13967 c 1.88092,-1.37025 -0.29925,-15.29163 -3.6436,-23.26619 -2.67466,-6.37766 -6.31333,-9.82603 -11.59308,-10.98679 -3.92613,-0.86315 -9.18158,-1.00143 -9.96105,-0.26207 -0.55375,0.52524 -0.6146,2.215 -0.6146,17.06654 0,14.41871 0.0728,16.56719 0.58089,17.15106 0.50465,0.57987 2.16697,0.66664 12.66112,0.661 6.6441,-0.003 12.30075,-0.16718 12.57032,-0.36355 z m 126.51493,-0.0697 c 0.68843,-0.42335 0.71484,-1.05963 0.70938,-17.09688 -0.003,-9.16145 -0.12783,-16.86508 -0.27724,-17.1192 -0.4972,-0.84582 -2.04055,-0.99163 -5.96899,-0.56392 -6.85859,0.74671 -9.03024,1.70482 -12.12809,5.35078 -2.52798,2.97526 -5.23831,9.33553 -6.5739,15.42685 -1.15277,5.25745 -1.66029,12.7839 -0.93021,13.79472 0.40132,0.55562 2.16709,0.64735 12.4608,0.64735 7.5603,0 12.25751,-0.16251 12.70825,-0.4397 z m 20.83551,-0.22778 c 0.6843,-0.7863 0.72518,-2.32685 0.18102,-6.82236 -1.45806,-12.04551 -5.86963,-21.98277 -11.11499,-25.03698 -2.51836,-1.46634 -6.51118,-2.49168 -7.18835,-1.84591 -0.42966,0.40971 -0.51948,3.30905 -0.51948,16.76658 0,14.22563 0.073,16.3551 0.5809,16.93867 0.4942,0.56787 1.84195,0.66748 9.03045,0.66748 7.18851,0 8.53625,-0.0995 9.03045,-0.66748 z m -106.99231,-0.61601 c 3.35473,-0.22639 6.62828,-0.41249 7.27452,-0.41358 2.3823,-0.003 2.33683,0.33035 2.33683,-17.18337 0,-13.60156 -0.0789,-15.92169 -0.55719,-16.37778 -0.40216,-0.38352 -1.30217,-0.44756 -3.23459,-0.23019 -3.61281,0.40638 -6.37363,2.10768 -9.77008,6.02057 -4.09412,4.71665 -6.52703,11.11912 -7.50077,19.7391 -0.4997,4.42354 -0.46587,8.18369 0.0792,8.81008 0.31643,0.3636 1.19917,0.45176 2.86493,0.28613 1.32416,-0.13164 5.15235,-0.42458 8.50709,-0.65096 z m 31.96254,0.28563 c 0.62024,-0.52114 0.66176,-1.03166 0.45779,-5.62817 -0.50253,-11.32516 -3.96321,-20.17028 -9.89559,-25.29219 -3.32829,-2.8736 -4.53534,-3.4069 -7.88166,-3.48227 l -2.99855,-0.0676 -0.0968,16.46835 -0.0968,16.46834 0.83611,0.36058 c 0.45985,0.19833 4.74532,0.59994 9.52327,0.89248 4.77796,0.29255 8.75651,0.60427 8.84122,0.69271 0.27061,0.28257 0.61156,0.17535 1.31095,-0.41228 z"
       id="path77"
       inkscape:connector-curvature="0" />
  </g>
  <text
     xml:space="preserve"
     style="font-style:normal;font-variant:normal;font-weight:bold;font-stretch:normal;font-size:64px;line-height:1.25;font-family:Ubuntu;-inkscape-font-specification:'Ubuntu, Bold';font-variant-ligatures:normal;font-variant-caps:normal;font-variant-numeric:normal;font-feature-settings:normal;text-align:start;letter-spacing:0px;word-spacing:0px;writing-mode:lr-tb;text-anchor:start;fill:#f0c881;fill-opacity:1;stroke:none"
     x="-371.10574"
     y="522.50238"
     id="text229"
     transform="rotate(-90.444634)"><tspan
       sodipodi:role="line"
       id="tspan227"
       x="-371.10574"
       y="522.50238">2019</tspan></text>
  <text
     xml:space="preserve"
     style="font-style:normal;font-variant:normal;font-weight:bold;font-stretch:normal;font-size:64px;line-height:1.25;font-family:Ubuntu;-inkscape-font-specification:'Ubuntu Bold';font-variant-ligatures:normal;font-variant-caps:normal;font-variant-numeric:normal;font-feature-settings:normal;text-align:start;letter-spacing:0px;word-spacing:0px;writing-mode:lr-tb;text-anchor:start;fill:#000000;fill-opacity:1;stroke:none"
     x="262.90613"
     y="274.10034"
     id="text233"><tspan
       sodipodi:role="line"
       id="tspan231"
       x="262.90613"
       y="274.10034">29</tspan></text>
  <path
     style="fill:#102e46;fill-opacity:1;fill-rule:nonzero;stroke:none;stroke-width:0.75047463"
     d="m 266.69783,269.76305 c 0.63923,-5.39726 2.17638,-7.84824 9.90933,-15.80032 3.81317,-3.92123 7.31305,-7.86716 7.7775,-8.76874 1.30092,-2.52524 1.00645,-5.3283 -0.74359,-7.07834 -2.08435,-2.08435 -7.65244,-1.66714 -11.169,0.83688 l -2.44219,1.73899 -1.42742,-1.80723 c -2.9847,-3.77889 -3.03629,-4.22444 -0.68314,-5.90003 3.37252,-2.40144 8.04997,-3.78719 12.78328,-3.78719 10.80785,0 16.46329,8.48085 11.91744,17.87131 -0.88813,1.83464 -4.77184,6.57066 -8.63046,10.5245 -3.85862,3.95383 -7.01567,7.62509 -7.01567,8.15835 0,0.74073 2.2141,0.96957 9.38094,0.96957 h 9.38093 v 3.37714 3.37713 H 280.99699 266.2582 Z"
     id="path235"
     inkscape:connector-curvature="0" />
  <path
     style="fill:#102e46;fill-opacity:1;fill-rule:nonzero;stroke:none;stroke-width:0.75047463"
     d="m 305.30433,273.05385 c -0.30957,-0.31868 -0.56286,-1.83507 -0.56286,-3.36976 v -2.79035 l 4.06138,-0.50743 c 5.30881,-0.66329 10.14391,-3.16584 12.25539,-6.34315 2.11421,-3.1814 2.14096,-4.07181 0.10288,-3.42495 -0.87546,0.27786 -3.60977,0.47679 -6.07625,0.44207 -8.6484,-0.12174 -13.34529,-4.72065 -13.34529,-13.0669 0,-9.64901 5.99334,-15.22071 15.77782,-14.66784 6.43896,0.36383 10.29992,2.7368 12.83691,7.88961 1.53519,3.11808 1.77688,4.69609 1.76046,11.49426 -0.0159,6.56432 -0.30552,8.51994 -1.73495,11.71295 -3.37144,7.53105 -10.54412,12.23523 -19.62246,12.86933 -2.68959,0.18787 -5.14346,0.0808 -5.45303,-0.23784 z m 17.63615,-23.36159 c 0.92427,-0.52705 0.63793,-6.1048 -0.4466,-8.69932 -1.39829,-3.34514 -3.16263,-4.59797 -6.34808,-4.50768 -6.96988,0.19757 -8.30843,11.21535 -1.63935,13.49374 2.3033,0.78689 6.82059,0.63331 8.43403,-0.28674 z"
     id="path237"
     inkscape:connector-curvature="0" />
  <path
     style="fill:#102e46;fill-opacity:1;fill-rule:nonzero;stroke:none;stroke-width:0.75047463"
     d="m 266.89397,269.91032 c 0.75028,-5.15651 1.7753,-6.77356 10.48179,-16.5358 6.45323,-7.23574 7.84286,-9.21497 7.8476,-11.17729 0.009,-3.59872 -3.10287,-5.78024 -7.40876,-5.19426 -1.80781,0.24602 -4.34794,1.10305 -5.64472,1.9045 l -2.35779,1.4572 -1.77759,-2.59421 c -1.70482,-2.48803 -1.72343,-2.65405 -0.45479,-4.05588 3.63714,-4.019 15.60602,-5.51246 20.70542,-2.5836 3.58845,2.06104 6.14854,7.24344 5.53247,11.1994 -0.60698,3.89757 -2.68664,7.02872 -10.53278,15.85819 -4.79481,5.39572 -6.17998,7.4029 -5.4348,7.87529 0.55005,0.34867 4.79936,0.63913 9.44292,0.64545 l 8.44284,0.0115 v 3.37714 3.37713 H 281.05554 266.3753 Z"
     id="path239"
     inkscape:connector-curvature="0" />
  <text
     xml:space="preserve"
     style="font-style:normal;font-variant:normal;font-weight:bold;font-stretch:normal;font-size:64px;line-height:1.25;font-family:Ubuntu;-inkscape-font-specification:'Ubuntu, Bold';font-variant-ligatures:normal;font-variant-caps:normal;font-variant-numeric:normal;font-feature-settings:normal;text-align:start;letter-spacing:0px;word-spacing:0px;writing-mode:lr-tb;text-anchor:start;fill:#000000;fill-opacity:1;stroke:none"
     x="395.54272"
     y="274.61459"
     id="text243"><tspan
       sodipodi:role="line"
       id="tspan241"
       x="395.54272"
       y="274.61459">31</tspan></text>
  <path
     style="fill:#102e46;fill-opacity:1;fill-rule:nonzero;stroke:none;stroke-width:0.75047463"
     d="m 401.5527,274.09911 c -3.68883,-1.0414 -3.97238,-1.52281 -3.00749,-5.10613 0.75055,-2.78732 1.05301,-3.10787 2.49368,-2.64281 3.28195,1.05945 11.78395,1.29781 13.97148,0.3917 4.12435,-1.70836 4.7897,-7.85409 1.11124,-10.2643 -0.96645,-0.63325 -3.79554,-1.33619 -6.28686,-1.56209 l -4.52968,-0.41074 v -3.17997 -3.17997 l 4.11598,-0.34133 c 4.96423,-0.41167 7.14114,-2.0801 7.14114,-5.47309 0,-3.5093 -2.31251,-5.27943 -6.72031,-5.1441 -1.95672,0.0601 -4.61333,0.65512 -5.90358,1.32234 l -2.3459,1.21311 -1.5208,-2.98101 c -0.83644,-1.63955 -1.5208,-3.12173 -1.5208,-3.29373 0,-0.17199 1.66675,-1.02973 3.70388,-1.90608 5.19473,-2.23471 12.82066,-2.19271 17.28248,0.0952 7.16176,3.67236 8.17894,12.82714 1.98829,17.89481 -1.42593,1.16726 -1.40589,1.22986 0.81329,2.54076 3.35723,1.98317 5.0544,5.34459 4.99247,9.8881 -0.11523,8.45336 -6.20769,13.0512 -17.14805,12.94123 -3.30209,-0.0332 -7.1858,-0.39405 -8.63046,-0.8019 z"
     id="path245"
     inkscape:connector-curvature="0" />
  <path
     style="fill:#102e46;fill-opacity:1;fill-rule:nonzero;stroke:none;stroke-width:0.75047463"
     d="m 448.8326,258.46558 c 0,-8.66798 -0.2207,-15.75997 -0.49044,-15.75997 -0.26974,0 -2.32752,0.86908 -4.57283,1.93128 -2.24532,1.06221 -4.16484,1.82206 -4.2656,1.68857 -0.10077,-0.13349 -0.74054,-1.67442 -1.42171,-3.42428 l -1.2385,-3.18156 3.93074,-1.97661 c 2.1619,-1.08714 5.49569,-3.117 7.40841,-4.5108 2.42929,-1.77023 4.29577,-2.53419 6.19142,-2.53419 h 2.71373 v 21.76376 21.76377 h -4.12761 -4.12761 z"
     id="path247"
     inkscape:connector-curvature="0" />
</svg>
