<?xml version="1.0" encoding="UTF-8" standalone="no"?>
<!-- Created with Inkscape (http://www.inkscape.org/) -->

<svg
   xmlns:dc="http://purl.org/dc/elements/1.1/"
   xmlns:cc="http://creativecommons.org/ns#"
   xmlns:rdf="http://www.w3.org/1999/02/22-rdf-syntax-ns#"
   xmlns:svg="http://www.w3.org/2000/svg"
   xmlns="http://www.w3.org/2000/svg"
   xmlns:sodipodi="http://sodipodi.sourceforge.net/DTD/sodipodi-0.dtd"
   xmlns:inkscape="http://www.inkscape.org/namespaces/inkscape"
   version="1.1"
   id="svg2"
   width="1023.8892"
   height="1022.5537"
   viewBox="0 0 1023.8892 1022.5537"
   sodipodi:docname="logo-python.svg"
   inkscape:version="0.92.3 (2405546, 2018-03-11)">
  <metadata
     id="metadata8">
    <rdf:RDF>
      <cc:Work
         rdf:about="">
        <dc:format>image/svg+xml</dc:format>
        <dc:type
           rdf:resource="http://purl.org/dc/dcmitype/StillImage" />
        <dc:title></dc:title>
      </cc:Work>
    </rdf:RDF>
  </metadata>
  <defs
     id="defs6" />
  <sodipodi:namedview
     pagecolor="#ffffff"
     bordercolor="#666666"
     borderopacity="1"
     objecttolerance="10"
     gridtolerance="10"
     guidetolerance="10"
     inkscape:pageopacity="0"
     inkscape:pageshadow="2"
     inkscape:window-width="1920"
     inkscape:window-height="1022"
     id="namedview4"
     showgrid="false"
     fit-margin-top="0"
     fit-margin-left="0"
     fit-margin-right="0"
     fit-margin-bottom="0"
     inkscape:zoom="0.23046875"
     inkscape:cx="503.30976"
     inkscape:cy="497.66917"
     inkscape:window-x="0"
     inkscape:window-y="32"
     inkscape:window-maximized="1"
     inkscape:current-layer="svg2" />
  <g
     id="g817"
     transform="translate(-0.01225891,-0.13243932)">
    <path
       style="fill:#fee79e"
       d="m 477,1021.9475 c -48.88152,-1.8069 -95.75948,-11.349 -130.50016,-26.56353 -43.00882,-18.83553 -69.15462,-46.1061 -79.28686,-82.69771 C 265.63572,906.99014 265.5,896.08119 265.5,775 c 0,-123.33103 0.11456,-132.15228 1.84407,-142 6.04765,-34.43478 21.83491,-60.73043 47.41099,-78.96892 C 332.0852,541.67284 351.56365,533.7231 378,528.21892 c 6.50088,-1.35351 26.61653,-1.65225 151,-2.24254 154.20936,-0.73182 147.90726,-0.5108 169,-5.92714 48.1041,-12.35249 80.43589,-48.77304 92.71218,-104.4368 L 793.3835,403.5 l 0.35797,-71.45744 c 0.24494,-48.89572 0.69666,-71.86555 1.43069,-72.75 1.71782,-2.06984 93.70368,-1.84329 104.78111,0.25806 49.50125,9.39023 88.85949,49.85705 109.46373,112.54696 5.714,17.38514 10.7321,37.8591 12.7212,51.90242 1.7595,12.42246 2.4448,147.57219 0.8266,163 -2.1474,20.47168 -8.633,46.08684 -16.9629,66.99517 -22.65965,56.87689 -63.84023,93.15574 -115.85127,102.0615 C 879.19531,757.93253 872.46823,758 696.40063,758 H 514 v 16.5 16.5 h 123.37756 c 104.26053,0 123.55675,0.21593 124.5341,1.39356 0.85617,1.03162 1.08276,18.62762 0.87244,67.75 L 762.5,926.5 l -3.52999,9.03457 c -7.83262,20.04664 -23.30908,36.76821 -47.16338,50.95777 -26.43169,15.72266 -66.77026,27.18346 -116.30663,33.04446 -25.03556,2.9621 -75.69945,3.9928 -118.5,2.4107 z m 187.91337,-80.48878 c 8.80762,-2.07609 15.0882,-5.73115 21.62635,-12.58572 24.32177,-25.49882 10.1502,-67.13804 -24.89281,-73.14066 -13.18578,-2.25863 -28.08021,2.60572 -37.82901,12.35452 -5.86823,5.86823 -10.55008,15.30215 -12.1081,24.39782 -3.04812,17.79483 7.15652,37.40564 23.69816,45.54203 10.07699,4.95661 18.75505,5.96602 29.50541,3.43201 z M 132.5,763.8915 c -10.61334,-1.52941 -23.71861,-5.79797 -35,-11.39997 C 48.930663,728.37349 17.371411,673.89015 4.9099483,592.64568 2.17165,574.79291 0.02022542,538.9279 0.01229124,511 -0.00719398,442.41303 8.7794877,394.58528 28.947424,353.5 51.773762,306.99914 84.698147,279.31788 131,267.69905 c 8.48564,-2.12936 8.81597,-2.13387 195.5,-2.66601 L 513.5,264.5 V 248 231.5 l -124,-0.5 -124,-0.5 -0.25737,-64.3124 C 264.96095,95.801328 264.97224,95.633667 270.86711,82.632819 289.01935,42.598908 342.25841,14.993647 421.5,4.5273818 454.18624,0.21016775 516.58391,-1.1619284 560.5,1.4708355 671.6874,8.1365058 743.56211,46.477564 760.20114,108 L 762.5,116.5 V 248 c 0,144.22288 0.23909,137.87347 -6.00262,159.41228 -9.12468,31.48738 -30.34497,56.48403 -61.13178,72.01079 -11.61506,5.85784 -30.13953,12.00271 -44.44296,14.74245 -11.31231,2.16681 -12.81352,2.19425 -155.42264,2.8403 -124.8982,0.56582 -144.99489,0.85944 -151.5,2.2135 -32.18933,6.70029 -52.18667,16.9118 -70.69711,36.10102 -18.36365,19.03705 -29.97639,42.38169 -36.46349,73.30109 -2.21988,10.58061 -2.29687,12.83695 -2.8109,82.37857 -0.29067,39.325 -0.89256,72.0625 -1.33752,72.75 -0.63007,0.97351 -11.13655,1.22303 -47.5,1.12806 C 159.51094,764.81099 135.8,764.36704 132.5,763.8915 Z m 254,-598.5935 c 10.635,-3.25515 21.5406,-12.77641 26.13923,-22.82116 10.16606,-22.20559 0.67996,-48.326506 -21.33762,-58.755226 C 384.8619,80.671416 383.88553,80.5 372.95158,80.5 c -11.33366,0 -11.68992,0.06991 -19.15805,3.759181 -12.00076,5.928413 -19.97285,15.65316 -23.29829,28.420419 -3.90051,14.97504 0.099,29.80146 11.16999,41.40828 11.53515,12.0934 28.27468,16.27881 44.83477,11.21012 z"
       id="path831"
       inkscape:connector-curvature="0" />
    <path
       style="fill:#94b4cf"
       d="m 481,1020.8892 c -20.67411,-1.0168 -49.0979,-4.1936 -66.87226,-7.4742 C 330.4773,997.97587 279.2422,961.49693 268.58823,909.79216 267.187,902.99186 267,887.41579 267,777.50274 c 0,-124.84257 0.23564,-134.72442 3.60721,-151.27013 9.16592,-44.98113 41.19726,-77.96412 88.89279,-91.53378 22.28307,-6.33967 11.54625,-5.90885 167.5,-6.72088 153.01009,-0.79669 149.68256,-0.67967 170.23528,-5.98669 30.94182,-7.98964 55.9434,-25.57225 72.96569,-51.31384 10.394,-15.71811 17.55023,-33.54526 22.50408,-56.06077 l 2.6659,-12.11665 0.36936,-71.25 0.36936,-71.25 49.19517,0.0216 c 44.54798,0.0196 50.00413,0.20057 57.75893,1.91574 52.27144,11.56119 91.64054,57.73704 110.46393,129.56262 3.0458,11.62229 7.3011,32.17774 9.5227,46 1.0581,6.58377 1.0696,139.68376 0.013,145.5 -9.2787,51.05221 -19.8379,80.57338 -39.19561,109.58249 -8.65674,12.97284 -26.46295,31.325 -38.0411,39.20748 -10.36573,7.05707 -25.302,14.36286 -36.89276,18.04542 -20.66736,6.56631 -9.17546,6.22979 -211.0611,6.18061 -135.36362,-0.033 -183.49022,0.25191 -184.50263,1.09214 -1.05381,0.87459 -1.3697,4.77966 -1.3697,16.93252 0,8.68767 0.27314,16.50757 0.60699,17.37755 C 513.15596,792.8488 525.04181,793 636.95442,793 h 123.74044 l 0.71751,61.75 c 0.64323,55.35626 0.54628,62.57834 -0.93635,69.75 -7.98651,38.63193 -47.1715,68.32211 -110.82174,83.9688 C 605.4855,1019.3265 542.91795,1023.9342 481,1020.8892 Z m 193,-80.99461 c 16.55729,-7.88032 26,-22.68276 26,-40.75771 0,-23.16526 -15.64847,-41.48633 -38.56079,-45.14659 -18.77862,-2.9999 -38.95135,7.72386 -47.2532,25.11964 -11.85383,24.83866 0.21346,53.59861 26.36333,62.83167 4.83436,1.70693 7.82658,2.04681 15.95066,1.81182 9.08616,-0.26282 10.68538,-0.61545 17.5,-3.85883 z M 132.5,763.8915 c -10.61334,-1.52941 -23.71861,-5.79797 -35,-11.39997 C 48.930663,728.37349 17.371411,673.89015 4.9099483,592.64568 2.17165,574.79291 0.02022542,538.9279 0.01229124,511 -0.00719398,442.41303 8.7794877,394.58528 28.947424,353.5 51.773762,306.99914 84.698147,279.31788 131,267.69905 c 8.48564,-2.12936 8.81597,-2.13387 195.5,-2.66601 L 513.5,264.5 V 248 231.5 l -124,-0.5 -124,-0.5 -0.25737,-64.3124 C 264.96095,95.801328 264.97224,95.633667 270.86711,82.632819 289.01935,42.598908 342.25841,14.993647 421.5,4.5273818 454.18624,0.21016775 516.58391,-1.1619284 560.5,1.4708355 671.6874,8.1365058 743.56211,46.477564 760.20114,108 L 762.5,116.5 V 248 c 0,144.22288 0.23909,137.87347 -6.00262,159.41228 -9.12468,31.48738 -30.34497,56.48403 -61.13178,72.01079 -11.61506,5.85784 -30.13953,12.00271 -44.44296,14.74245 -11.31231,2.16681 -12.81352,2.19425 -155.42264,2.8403 -124.8982,0.56582 -144.99489,0.85944 -151.5,2.2135 -32.18933,6.70029 -52.18667,16.9118 -70.69711,36.10102 -18.36365,19.03705 -29.97639,42.38169 -36.46349,73.30109 -2.21988,10.58061 -2.29687,12.83695 -2.8109,82.37857 -0.29067,39.325 -0.89256,72.0625 -1.33752,72.75 -0.63007,0.97351 -11.13655,1.22303 -47.5,1.12806 C 159.51094,764.81099 135.8,764.36704 132.5,763.8915 Z m 254,-598.5935 c 10.635,-3.25515 21.5406,-12.77641 26.13923,-22.82116 10.16606,-22.20559 0.67996,-48.326506 -21.33762,-58.755226 C 384.8619,80.671416 383.88553,80.5 372.95158,80.5 c -11.33366,0 -11.68992,0.06991 -19.15805,3.759181 -12.00076,5.928413 -19.97285,15.65316 -23.29829,28.420419 -3.90051,14.97504 0.099,29.80146 11.16999,41.40828 11.53515,12.0934 28.27468,16.27881 44.83477,11.21012 z"
       id="path829"
       inkscape:connector-curvature="0" />
    <path
       style="fill:#fed445"
       d="m 481,1020.8892 c -20.67411,-1.0168 -49.0979,-4.1936 -66.87226,-7.4742 C 330.4773,997.97587 279.2422,961.49693 268.58823,909.79216 267.187,902.99186 267,887.41579 267,777.50274 c 0,-124.84257 0.23564,-134.72442 3.60721,-151.27013 9.16592,-44.98113 41.19726,-77.96412 88.89279,-91.53378 22.28307,-6.33967 11.54625,-5.90885 167.5,-6.72088 153.01009,-0.79669 149.68256,-0.67967 170.23528,-5.98669 30.94182,-7.98964 55.9434,-25.57225 72.96569,-51.31384 10.394,-15.71811 17.55023,-33.54526 22.50408,-56.06077 l 2.6659,-12.11665 0.36936,-71.25 0.36936,-71.25 49.19517,0.0216 c 44.54798,0.0196 50.00413,0.20057 57.75893,1.91574 52.27144,11.56119 91.64054,57.73704 110.46393,129.56262 3.0458,11.62229 7.3011,32.17774 9.5227,46 1.0581,6.58377 1.0696,139.68376 0.013,145.5 -9.2787,51.05221 -19.8379,80.57338 -39.19561,109.58249 -8.65674,12.97284 -26.46295,31.325 -38.0411,39.20748 -10.36573,7.05707 -25.302,14.36286 -36.89276,18.04542 -20.66736,6.56631 -9.17546,6.22979 -211.0611,6.18061 -135.36362,-0.033 -183.49022,0.25191 -184.50263,1.09214 -1.05381,0.87459 -1.3697,4.77966 -1.3697,16.93252 0,8.68767 0.27314,16.50757 0.60699,17.37755 C 513.15596,792.8488 525.04181,793 636.95442,793 h 123.74044 l 0.71751,61.75 c 0.64323,55.35626 0.54628,62.57834 -0.93635,69.75 -7.98651,38.63193 -47.1715,68.32211 -110.82174,83.9688 C 605.4855,1019.3265 542.91795,1023.9342 481,1020.8892 Z m 193,-80.99461 c 16.55729,-7.88032 26,-22.68276 26,-40.75771 0,-23.16526 -15.64847,-41.48633 -38.56079,-45.14659 -18.77862,-2.9999 -38.95135,7.72386 -47.2532,25.11964 -11.85383,24.83866 0.21346,53.59861 26.36333,62.83167 4.83436,1.70693 7.82658,2.04681 15.95066,1.81182 9.08616,-0.26282 10.68538,-0.61545 17.5,-3.85883 z M 126,761.4463 C 81.973843,751.99962 45.320254,716.67303 24.54324,663.66266 15.465098,640.50073 7.7172538,607.89993 4.5413056,579.5 3.6802189,571.8 2.4355444,561 1.7753624,555.5 1.0500147,549.4571 0.58876527,531.848 0.60973805,511 0.63935689,481.55739 0.97344848,473.78807 2.888812,458 8.7412939,409.75883 15.857788,383.07546 31.025818,352.5 40.634899,333.13018 49.231442,320.85292 62.508612,307.53747 82.471407,287.51712 104.7122,275.32887 134,268.35925 c 7.01485,-1.66932 19.56405,-1.81952 194,-2.32201 L 514.5,265.5 V 248 230.5 l -123.44343,-0.25395 c -97.23189,-0.20004 -123.61144,-0.51854 -124.23468,-1.5 -0.4352,-0.68533 -0.79816,-29.18657 -0.80658,-63.33609 -0.0145,-58.80647 0.0904,-62.50834 1.98394,-69.999997 C 278.59647,53.482444 323.62892,23.879741 398.5,9.6234951 c 14.4128,-2.7443489 29.49134,-4.739751 55,-7.278363 26.85026,-2.67212781 88.31055,-2.40526758 116,0.5036714 49.07089,5.1551836 82.46971,12.8344975 111.92665,25.7350365 41.63927,18.235739 69.36529,47.007321 77.59645,80.52266 2.03076,8.26876 2.06015,10.33297 1.97743,138.8935 -0.0514,79.80507 -0.4667,133.21927 -1.0692,137.5 -6.02818,42.82987 -27.59143,73.74367 -64.57096,92.57109 -14.18594,7.2225 -30.90681,12.37967 -52.36037,16.14937 -4.55807,0.80092 -49.22247,1.31789 -149.5,1.73041 l -143,0.58826 -10.79979,2.27613 C 284.8026,510.38531 249.36054,546.58943 236.65252,604.07863 232.51341,622.80335 232,633.40749 232,700.17368 V 763 l -49.75,-0.0795 C 143.71582,762.8589 131.03462,762.52657 126,761.4463 Z M 382.20078,167.87474 C 424.10609,158.97637 431.06,101.65183 392.5,82.973155 c -20.50881,-9.934583 -45.12506,-2.998302 -57.54268,16.21418 -5.35237,8.281155 -7.36073,16.602845 -6.71981,27.843695 0.44726,7.84424 1.01517,10.09563 4.14296,16.4243 9.18743,18.5895 29.7685,28.6773 49.82031,24.41941 z"
       id="path827"
       inkscape:connector-curvature="0" />
    <path
       style="fill:#fecc3b"
       d="m 477,1019.307 c -36.43023,-2.1393 -86.92853,-10.8185 -103.68741,-17.8209 l -3.53099,-1.4753 8.3592,-8.99436 C 382.73836,986.06954 426.775,940.01212 476,888.66662 l 89.5,-93.35546 96.84033,-0.73192 c 53.26218,-0.40255 97.00129,-0.57096 97.19802,-0.37423 0.19672,0.19673 0.42144,28.91858 0.49936,63.82634 0.0969,43.39592 -0.20908,64.99226 -0.96739,68.2862 -3.07311,13.34893 -11.44984,27.41054 -23.13167,38.83002 -31.14524,30.4458 -87.65571,48.50643 -168.43865,53.83253 -13.55511,0.8937 -76.94916,1.1227 -90.5,0.3269 z m 187.26981,-74.77628 c 13.37943,-2.83516 26.1544,-12.54073 32.19363,-24.45857 15.01417,-29.62904 -4.93937,-65.25653 -37.96344,-67.78457 -30.97875,-2.37146 -55.71118,25.62473 -49.39492,55.9132 3.78155,18.13369 17.96994,32.3258 36.30585,36.31535 7.9699,1.7341 10.73421,1.73624 18.85888,0.0146 z M 126,761.4463 C 81.973843,751.99962 45.320254,716.67303 24.54324,663.66266 15.465098,640.50073 7.7172538,607.89993 4.5413056,579.5 3.6802189,571.8 2.4355444,561 1.7753624,555.5 1.0500147,549.4571 0.58876527,531.848 0.60973805,511 0.63935689,481.55739 0.97344848,473.78807 2.888812,458 8.7412939,409.75883 15.857788,383.07546 31.025818,352.5 40.634899,333.13018 49.231442,320.85292 62.508612,307.53747 82.471407,287.51712 104.7122,275.32887 134,268.35925 c 7.01485,-1.66932 19.56405,-1.81952 194,-2.32201 L 514.5,265.5 V 248 230.5 l -123.44343,-0.25395 c -97.23189,-0.20004 -123.61144,-0.51854 -124.23468,-1.5 -0.4352,-0.68533 -0.79816,-29.18657 -0.80658,-63.33609 -0.0145,-58.80647 0.0904,-62.50834 1.98394,-69.999997 C 278.59647,53.482444 323.62892,23.879741 398.5,9.6234951 c 14.4128,-2.7443489 29.49134,-4.739751 55,-7.278363 26.85026,-2.67212781 88.31055,-2.40526758 116,0.5036714 49.07089,5.1551836 82.46971,12.8344975 111.92665,25.7350365 41.63927,18.235739 69.36529,47.007321 77.59645,80.52266 2.03076,8.26876 2.06015,10.33297 1.97743,138.8935 -0.0514,79.80507 -0.4667,133.21927 -1.0692,137.5 -6.02818,42.82987 -27.59143,73.74367 -64.57096,92.57109 -14.18594,7.2225 -30.90681,12.37967 -52.36037,16.14937 -4.55807,0.80092 -49.22247,1.31789 -149.5,1.73041 l -143,0.58826 -10.79979,2.27613 C 284.8026,510.38531 249.36054,546.58943 236.65252,604.07863 232.51341,622.80335 232,633.40749 232,700.17368 V 763 l -49.75,-0.0795 C 143.71582,762.8589 131.03462,762.52657 126,761.4463 Z M 382.20078,167.87474 C 424.10609,158.97637 431.06,101.65183 392.5,82.973155 c -20.50881,-9.934583 -45.12506,-2.998302 -57.54268,16.21418 -5.35237,8.281155 -7.36073,16.602845 -6.71981,27.843695 0.44726,7.84424 1.01517,10.09563 4.14296,16.4243 9.18743,18.5895 29.7685,28.6773 49.82031,24.41941 z m 223.90737,585.42789 c 1.41697,-1.7756 42.49048,-44.69799 264.30535,-276.20271 l 124.91351,-130.37027 2.3162,4.55753 c 8.26269,16.25836 17.68479,49.43955 22.30459,78.54861 1.0948,6.89859 1.9468,10.23422 2.0853,8.16421 0.2115,-3.16183 0.3094,-3.0169 1.0129,1.5 0.9479,6.08589 1.2017,132.79153 0.2814,140.45806 -0.4539,3.78038 -0.8668,4.85619 -1.3436,3.5 -0.4668,-1.32812 -0.9224,-0.0278 -1.416,4.04194 -1.8559,15.30034 -8.5362,42.30704 -14.7177,59.5 -7.69978,21.41544 -21.66133,45.5721 -35.23108,60.95769 -19.92625,22.5927 -44.9194,37.35893 -75.61902,44.67653 -6.98528,1.66502 -17.20362,1.80915 -148.89185,2.10013 -134.36691,0.29689 -141.32269,0.22576 -140,-1.43172 z"
       id="path825"
       inkscape:connector-curvature="0" />
    <path
       style="fill:#6291b9"
       d="M 126,761.4463 C 81.973843,751.99962 45.320254,716.67303 24.54324,663.66266 15.465098,640.50073 7.7172538,607.89993 4.5413056,579.5 3.6802189,571.8 2.4355444,561 1.7753624,555.5 1.0500147,549.4571 0.58876527,531.848 0.60973805,511 0.63935689,481.55739 0.97344848,473.78807 2.888812,458 8.7412939,409.75883 15.857788,383.07546 31.025818,352.5 40.634899,333.13018 49.231442,320.85292 62.508612,307.53747 82.471407,287.51712 104.7122,275.32887 134,268.35925 c 7.01485,-1.66932 19.56405,-1.81952 194,-2.32201 L 514.5,265.5 V 248 230.5 l -123.44343,-0.25395 c -97.23189,-0.20004 -123.61144,-0.51854 -124.23468,-1.5 -0.4352,-0.68533 -0.79816,-29.18657 -0.80658,-63.33609 -0.0145,-58.80647 0.0904,-62.50834 1.98394,-69.999997 C 278.59647,53.482444 323.62892,23.879741 398.5,9.6234951 c 14.4128,-2.7443489 29.49134,-4.739751 55,-7.278363 26.85026,-2.67212781 88.31055,-2.40526758 116,0.5036714 49.07089,5.1551836 82.46971,12.8344975 111.92665,25.7350365 41.63927,18.235739 69.36529,47.007321 77.59645,80.52266 2.03076,8.26876 2.06015,10.33297 1.97743,138.8935 -0.0514,79.80507 -0.4667,133.21927 -1.0692,137.5 -6.02818,42.82987 -27.59143,73.74367 -64.57096,92.57109 -14.18594,7.2225 -30.90681,12.37967 -52.36037,16.14937 -4.55807,0.80092 -49.22247,1.31789 -149.5,1.73041 l -143,0.58826 -10.79979,2.27613 C 284.8026,510.38531 249.36054,546.58943 236.65252,604.07863 232.51341,622.80335 232,633.40749 232,700.17368 V 763 l -49.75,-0.0795 C 143.71582,762.8589 131.03462,762.52657 126,761.4463 Z M 382.20078,167.87474 C 424.10609,158.97637 431.06,101.65183 392.5,82.973155 c -20.50881,-9.934583 -45.12506,-2.998302 -57.54268,16.21418 -5.35237,8.281155 -7.36073,16.602845 -6.71981,27.843695 0.44726,7.84424 1.01517,10.09563 4.14296,16.4243 9.18743,18.5895 29.7685,28.6773 49.82031,24.41941 z"
       id="path823"
       inkscape:connector-curvature="0" />
    <path
       style="fill:#3673a6"
       d="M 135.51246,761.89846 C 106.89406,758.86779 76.017233,741.19185 55.709017,716.21369 32.315141,687.44031 17.257799,650.42045 8.6377904,600.48475 5.8553715,584.3662 3.0095344,559.34347 2.9846872,550.77844 2.975491,547.60841 2.6392361,546.0205 2.1428691,546.80307 0.92149105,548.72871 0.01451483,513.27404 0.73959089,491.94744 1.0845445,481.80135 1.6511286,474.625 1.9986666,476 2.3591929,477.42639 2.9346891,473.56138 3.3387587,467 4.1953756,453.09005 7.2244094,431.72237 10.62254,415.61811 20.66846,368.00895 39.249375,331.20619 66.293681,305.35166 84.95967,287.50686 106.56809,276.03901 133.5,269.68444 c 8.96135,-2.11443 9.80092,-2.12583 195.5,-2.65399 L 515.5,266.5 V 248 229.5 l -124,-0.5 -124,-0.5 V 164 c 0,-59.83523 0.13331,-64.933932 1.84327,-70.5 9.52012,-30.988721 38.38219,-55.510851 83.45562,-70.906551 C 382.52137,12.441164 422.50941,5.2364934 459.98368,3.2819007 466.86766,2.9228445 471.375,2.3457933 470,1.9995646 c -1.375,-0.3462288 7.11802,-0.9265661 18.87337,-1.28963842 23.63278,-0.72991512 63.64909,0.18489174 60.58122,1.38493792 -1.24673,0.4876764 0.30555,0.7900193 4.28628,0.8348506 9.48822,0.1068572 34.87885,2.8625436 52.75303,5.7253714 C 692.43083,22.419227 745.33149,58.023265 758.55849,111 c 1.78109,7.13361 1.87425,13.85076 1.90704,137.5 0.0314,118.4787 -0.11738,130.843 -1.67895,139.51189 C 748.18664,446.85662 711.89007,480.84054 647,492.67596 c -8.6243,1.573 -22.72775,1.78453 -153,2.29479 l -143.5,0.56206 -10.79979,2.27929 c -41.92227,8.84768 -71.68953,30.96781 -89.95406,66.84509 -8.3669,16.43522 -12.59912,29.44595 -16.37587,50.34281 -1.47083,8.1381 -1.79964,19.39172 -2.29362,78.5 l -0.57666,69 -43.5,0.12217 c -23.925,0.0672 -47.0944,-0.25848 -51.48754,-0.72371 z M 383.91337,168.45872 c 29.81053,-7.02677 44.45911,-41.96459 28.79878,-68.686932 -8.36069,-14.266438 -27.87283,-24.135906 -44.09862,-22.305601 -16.52719,1.864302 -29.95836,11.359139 -37.41728,26.451223 -3.6435,7.37213 -3.69625,7.65086 -3.69625,19.53073 0,11.79705 0.0769,12.21286 3.63647,19.66659 9.74534,20.40665 30.80971,30.52197 52.7769,25.34399 z"
       id="path821"
       inkscape:connector-curvature="0" />
    <path
       style="fill:#356c9b"
       d="m 134.29881,760.93914 c -3.41065,-0.44398 -9.71065,-1.76091 -14,-2.92651 C 111.18579,755.53623 90.052101,745.41108 85,741.10097 l -3.5,-2.98597 76.84155,-76.8075 c 42.26285,-42.24413 78.12156,-77.83038 79.68601,-79.08057 l 2.84447,-2.27306 -2.00969,6.77306 c -3.38007,11.3916 -6.73284,29.01397 -7.93466,41.7051 -0.80717,8.52371 -0.93679,29.90974 -0.44133,72.81797 l 0.70148,60.75 -45.34391,-0.1268 c -24.93916,-0.0697 -48.13446,-0.49007 -51.54511,-0.93406 z M 531,290.00031 742.5,79.087211 l 1.89208,2.206394 C 747.74349,85.201746 754.93231,101.25278 757.24889,110 L 759.5,118.5 V 250 c 0,124.34914 -0.10195,132.04379 -1.87476,141.5 -10.07896,53.76131 -45.15678,87.01213 -105.12524,99.64988 l -11,2.31814 -146,0.58646 c -155.69833,0.62543 -148.259,0.38794 -167.14434,5.33575 -3.37939,0.88537 -6.75439,1.59029 -7.5,1.56647 C 320.11004,500.93289 414.675,406.00251 531,290.00031 Z"
       id="path819"
       inkscape:connector-curvature="0" />
  </g>
</svg>
