<?xml version="1.0" encoding="UTF-8" standalone="no"?>
<svg
   xmlns:dc="http://purl.org/dc/elements/1.1/"
   xmlns:cc="http://creativecommons.org/ns#"
   xmlns:rdf="http://www.w3.org/1999/02/22-rdf-syntax-ns#"
   xmlns:svg="http://www.w3.org/2000/svg"
   xmlns="http://www.w3.org/2000/svg"
   xmlns:xlink="http://www.w3.org/1999/xlink"
   xmlns:sodipodi="http://sodipodi.sourceforge.net/DTD/sodipodi-0.dtd"
   xmlns:inkscape="http://www.inkscape.org/namespaces/inkscape"
   id="Layer_1"
   data-name="Layer 1"
   viewBox="0 0 530.9 401.46"
   version="1.1"
   sodipodi:docname="PythonSul2019-BotanicGarden.svg"
   inkscape:version="0.92.3 (2405546, 2018-03-11)">
  <metadata
     id="metadata103">
    <rdf:RDF>
      <cc:Work
         rdf:about="">
        <dc:format>image/svg+xml</dc:format>
        <dc:type
           rdf:resource="http://purl.org/dc/dcmitype/StillImage" />
        <dc:title>Python14-Logo Forte Reis Magos</dc:title>
      </cc:Work>
    </rdf:RDF>
  </metadata>
  <sodipodi:namedview
     pagecolor="#ffffff"
     bordercolor="#666666"
     borderopacity="1"
     objecttolerance="10"
     gridtolerance="10"
     guidetolerance="10"
     inkscape:pageopacity="0"
     inkscape:pageshadow="2"
     inkscape:window-width="1916"
     inkscape:window-height="1021"
     id="namedview101"
     showgrid="false"
     inkscape:zoom="1.8844256"
     inkscape:cx="193.09959"
     inkscape:cy="202.20099"
     inkscape:window-x="0"
     inkscape:window-y="32"
     inkscape:window-maximized="0"
     inkscape:current-layer="Layer_1" />
  <defs
     id="defs4">
    <linearGradient
       inkscape:collect="always"
       id="linearGradient843">
      <stop
         style="stop-color:#000000;stop-opacity:1;"
         offset="0"
         id="stop839" />
      <stop
         style="stop-color:#000000;stop-opacity:0;"
         offset="1"
         id="stop841" />
    </linearGradient>
    <style
       id="style2">.cls-1{opacity:0.5;}.cls-2{fill:#cfd1d2;}.cls-3{fill:#e5e6e6;}.cls-4{fill:#f0c881;}.cls-5{fill:#102e46;}</style>
    <linearGradient
       inkscape:collect="always"
       xlink:href="#linearGradient843"
       id="linearGradient845"
       x1="-143.20316"
       y1="312.02429"
       x2="463.46353"
       y2="312.02429"
       gradientUnits="userSpaceOnUse" />
  </defs>
  <title
     id="title6">Python14-Logo Forte Reis Magos</title>
  <path
     id="rect98"
     style="fill:#ffdd00;fill-opacity:1;stroke-width:1.06053209"
     d="m 26.35289,347.60938 v 3.56054 h 60.836912 c 0.03884,-0.14495 0.06339,-0.27342 0.107363,-0.42383 0.02015,-0.0689 0.07377,-0.10396 0.147913,-0.11718 0.222517,-0.0397 0.632912,0.11608 0.892194,0.1289 2.01973,0.10104 3.838558,0.25134 5.754008,0.41211 H 453.75 v -3.56054 z"
     inkscape:connector-curvature="0" />
  <flowRoot
     xml:space="preserve"
     id="flowRoot40"
     style="fill:black;fill-opacity:1;stroke:none;font-family:'Ostrich Sans';font-style:normal;font-weight:bold;font-size:64px;line-height:1.25;letter-spacing:0px;word-spacing:0px;-inkscape-font-specification:'Ostrich Sans Bold';font-stretch:normal;font-variant:normal"><flowRegion
       id="flowRegion42"><rect
         id="rect44"
         width="394.36996"
         height="80.682724"
         x="67.380028"
         y="276.92725" /></flowRegion><flowPara
       id="flowPara46" /></flowRoot>  <text
     xml:space="preserve"
     style="font-style:normal;font-variant:normal;font-weight:bold;font-stretch:normal;font-size:64px;line-height:1.25;font-family:'DejaVu Sans Mono';-inkscape-font-specification:'DejaVu Sans Mono Bold';letter-spacing:0px;word-spacing:0px;fill:#000000;fill-opacity:1;stroke:none"
     x="174.11011"
     y="152.67764"
     id="text3744"><tspan
       sodipodi:role="line"
       id="tspan3742"
       x="174.11011"
       y="209.30264" /></text>
  <path
     id="path102"
     style="fill:#000000;stroke-width:1.96168733"
     d="m 188.39844,-62.484375 c -1.57352,0.383896 -3.14508,0.781534 -4.71485,1.191406 2.47062,-0.348094 1.98669,-0.374184 3.56055,-0.394531 0.0392,-0.01922 0.0762,-0.03029 0.11524,-0.04883 -0.0426,-0.0089 -0.0497,-0.03443 -0.006,-0.0918 0.19315,-0.224254 0.53463,-0.238555 0.86718,-0.267578 0.11994,-0.04306 0.23892,-0.07507 0.35742,-0.111328 -0.0571,-0.09337 -0.1206,-0.184738 -0.17968,-0.277344 z m 4.33008,0.488281 c 0.0856,0.04801 0.17817,0.09082 0.25781,0.144532 0.42221,-0.02461 0.84345,-0.04736 1.26562,-0.07227 -0.50739,-0.0308 -1.01517,-0.05465 -1.52343,-0.07227 z m 154.32031,28.011719 c -0.18045,0.01036 -0.36046,0.02418 -0.54102,0.0332 0.19638,0.03849 0.38996,0.07847 0.58594,0.117188 -0.0155,-0.05013 -0.0296,-0.100226 -0.0449,-0.150391 z m 64.93164,21.685547 c -0.0794,0.168251 -0.14215,0.295029 -0.2168,0.451172 0.41557,0.01859 0.85014,0.105319 1.29688,0.255859 -0.2276,-0.229785 -0.42373,-0.40806 -0.54883,-0.470703 -0.15702,-0.07859 -0.34718,-0.157111 -0.53125,-0.236328 z m -0.12109,10.9335936 c 0.58028,0.78557227 1.14555,1.58714342 1.71289,2.3867188 -0.16788,-0.34569933 -0.34948,-0.68397606 -0.54493,-1.01562502 -0.42666,-0.348151 -0.71088,-0.72390648 -0.76757,-1.12695318 -0.0455,-0.05955 -0.0867,-0.1225786 -0.13282,-0.1816406 -0.0897,-0.01967 -0.17829,-0.04031 -0.26757,-0.0625 z M 17.876953,5.1953125 c -0.238818,0.200345 -0.485536,0.3980014 -0.720703,0.5996094 0.24597,-0.19485 0.48715,-0.3943564 0.720703,-0.5996094 z M 330.14648,15.783203 c -0.0741,0.01873 -0.14909,0.03418 -0.22265,0.05469 0.003,0.01301 0.005,0.02606 0.008,0.03906 0.10246,-0.0116 0.20378,-0.02961 0.30664,-0.03906 -0.0328,-0.01931 -0.061,-0.0362 -0.0918,-0.05469 z m 15.9961,10.744141 c -0.19464,0.0133 -0.38934,0.02577 -0.58399,0.03906 0.0481,0.04035 0.0916,0.08544 0.13672,0.128906 0.14867,-0.05635 0.29075,-0.114084 0.44727,-0.167968 z M 334.61133,42.53125 c -0.46191,0.479225 -1.4441,1.496072 -2.11328,2.191406 -0.004,0.04259 -0.004,0.082 -0.008,0.125 0.69425,-0.757934 1.52024,-1.66068 2.1211,-2.316406 z m 66.89258,1.707031 c 0.11541,0.08086 0.2277,0.16606 0.34375,0.246094 0.0572,0.01364 0.20693,0.04898 0.26367,0.0625 -0.20267,-0.102979 -0.40682,-0.204259 -0.60742,-0.308594 z M 12.314453,44.798828 c -0.250757,0.105112 -0.489266,0.22467 -0.720703,0.351563 -0.0034,0.228305 0.0083,0.458049 0.01367,0.6875 0.222716,-0.362416 0.455591,-0.714389 0.707031,-1.039063 z M 334.625,90.710938 c -0.0349,0.02435 -0.069,0.04967 -0.10352,0.07422 0.18447,0.109789 0.30968,0.184964 0.47461,0.283203 -0.002,-0.03518 0.001,-0.07536 -0.002,-0.111328 -0.1196,-0.07924 -0.24394,-0.162194 -0.36914,-0.246093 z m -1.47852,1.216796 c -0.021,0.02 -0.0415,0.04053 -0.0625,0.06055 0.23118,0.105211 -0.0994,-0.04306 1.70704,0.771485 0.0245,-0.03257 0.0554,-0.0727 0.0801,-0.105469 -0.45231,-0.177882 -1.1242,-0.471131 -1.72461,-0.726563 z M 445.54297,118.5293 c -0.19622,0.35022 -0.4181,0.65901 -0.66016,0.92773 0.20524,0.2628 0.41253,0.52299 0.62696,0.7793 z m -3.58399,3.94726 -0.002,0.14844 c 0.12119,0.0944 0.24587,0.18494 0.36524,0.28125 -0.12077,-0.14321 -0.24461,-0.28503 -0.36329,-0.42969 z m -442.9648394,2.69727 -0.3359375,0.0117 c -0.05549,0.65073 -0.110115,1.30158 -0.15625,1.95312 0.249893,-0.63084 0.3913655,-1.29358 0.4921875,-1.96484 z m 197.6972694,14.0957 c -0.0136,0.001 -0.0293,0.003 -0.043,0.004 -0.0233,0.0469 -0.0471,0.0936 -0.0703,0.14062 0.0336,8.3e-4 0.0662,0.006 0.0996,0.008 0.004,-0.0509 0.009,-0.10162 0.0137,-0.15235 z m -0.0137,0.15235 c -0.001,0.0124 -0.003,0.0247 -0.004,0.0371 0.008,-0.0115 0.0154,-0.0239 0.0234,-0.0351 -0.007,-3.9e-4 -0.0129,-0.002 -0.0195,-0.002 z m -0.0996,-0.008 c -0.009,-2.1e-4 -0.0168,-0.002 -0.0254,-0.002 -0.0949,-0.002 -0.15638,0.0244 -0.21289,0.0547 -0.051,0.0749 -0.0992,0.15175 -0.15039,0.22656 -0.01,0.10248 0.0179,0.23392 0.0625,0.37695 0.008,-0.0115 0.0154,-0.0236 0.0234,-0.0352 0.10101,-0.20699 0.2008,-0.41464 0.30273,-0.6211 z M 17.109375,141.3457 c -0.210786,0.29292 -0.423765,0.58408 -0.601563,0.89453 -0.02684,0.0468 -0.01642,0.0861 0.0098,0.1211 l 0.554688,-0.60938 c 0.0174,-0.14384 0.02678,-0.27221 0.03906,-0.40625 z m 312.580075,0.19141 c -0.0349,0.0438 -0.0706,0.087 -0.10547,0.13086 0.051,-0.0238 0.10198,-0.0467 0.15235,-0.0703 -0.017,-0.0192 -0.0302,-0.0411 -0.0469,-0.0605 z m -207.66992,7.45898 c -0.0261,5.3e-4 -0.0232,-8e-5 -0.0488,0.002 -0.44819,0.41102 -0.89084,0.82849 -1.33008,1.25 0.0525,-0.006 0.12093,-0.0121 0.17383,-0.0176 0.1662,-0.16556 0.4818,-0.47684 1.20508,-1.23438 z m -124.8515612,8.64063 c -0.276458,0.0141 -0.3515084,0.20645 -0.3496094,0.46484 0.139372,-0.0799 0.2886445,-0.14013 0.4453125,-0.17773 -0.0045,-0.0916 -0.00517,-0.18797 -0.00977,-0.2793 -0.02752,-0.002 -0.061487,-0.009 -0.085937,-0.008 z m -0.1289063,6.02734 c -0.0133,0.28905 -0.014144,0.57749 0.041016,0.86133 0.02377,0.12373 0.176823,0.17279 0.3125,0.23438 -0.103824,-0.35725 -0.2208664,-0.72531 -0.3535156,-1.09571 z m 366.9218775,2.85742 c -0.0958,0.14054 -0.20047,0.27687 -0.32227,0.40235 0.10936,0.0606 0.2311,0.12766 0.34375,0.18945 -0.008,-0.19711 -0.019,-0.39456 -0.0215,-0.5918 z m -216.29492,3.91993 c 0.0439,0.0717 0.0801,0.14308 0.11328,0.21484 0.15321,0.02 0.32054,0.0379 0.47265,0.0586 -0.20053,-0.0971 -0.38715,-0.17815 -0.58593,-0.27343 z m 206.59179,0.80664 c -0.0654,0.11419 -0.13101,0.2281 -0.19726,0.34179 0.33135,0.0123 0.70687,0.0257 0.99218,0.0371 -0.26484,-0.1265 -0.52997,-0.25254 -0.79492,-0.3789 z m 90.09766,7.71679 c -0.0449,0.005 -0.0789,0.006 -0.125,0.0117 -0.21566,0.023 -0.0916,0.0947 0.12109,0.17969 z m -189.7207,13.2793 c 0.13895,0.0531 0.2687,0.0942 0.40234,0.14063 0.12717,0.0404 0.25212,0.0873 0.37891,0.1289 0.22433,0.0683 0.44075,0.12582 0.64648,0.16602 -0.0802,-0.1179 -0.18678,-0.2512 -0.34961,-0.41797 l -0.7832,-0.0117 c -0.14707,-0.002 -0.17938,-0.006 -0.29492,-0.006 z m 13.19726,2.51172 c -0.03,0.009 -0.062,0.014 -0.0918,0.0234 0.0514,0.0134 0.0798,0.0277 0.12696,0.041 -0.0122,-0.0215 -0.0233,-0.0431 -0.0352,-0.0644 z M 17.007812,198.4668 c -0.0011,0.0181 -0.0048,0.0367 -0.0059,0.0547 0.03048,0.0226 0.06083,0.0433 0.08789,0.0606 -0.02729,-0.0386 -0.05474,-0.0766 -0.08203,-0.11523 z m 84.769528,0.64648 c -0.94771,0.16214 -1.893616,0.34623 -2.837887,0.54102 1.195777,-0.0118 2.420577,-0.0181 3.628907,-0.0274 -0.007,-0.0146 -0.0194,-0.0226 -0.0254,-0.0391 -0.26835,-0.005 -0.53599,-0.0241 -0.80469,-0.0176 0.0187,-0.151 0.0237,-0.30524 0.0391,-0.45703 z m 9.99219,0.42188 c -1.83652,-0.0115 -3.67657,0.0188 -5.51367,0.0391 -0.0488,0.008 -0.0955,0.0129 -0.14453,0.0215 -0.0371,0.003 -0.0742,1.9e-4 -0.11133,0.004 1.96763,-0.0111 3.9441,-0.0209 5.94727,-0.0254 -0.0587,-0.0116 -0.11927,-0.0282 -0.17774,-0.0391 z m 284.07031,50.96093 c -0.0448,0.0152 -0.0899,0.0317 -0.13476,0.0469 0.0584,0.0219 0.1192,0.0443 0.17773,0.0664 -0.015,-0.0378 -0.0282,-0.0755 -0.043,-0.11329 z m 33.54883,25.69532 c -0.0247,0.0254 -0.0445,0.053 -0.0703,0.0781 -0.007,0.1647 -0.0149,0.32967 -0.0254,0.50195 -0.003,0.0485 -0.01,0.0841 -0.0137,0.13086 0.0914,-0.0356 0.17844,-0.0716 0.26758,-0.10742 -0.0509,-0.20151 -0.10173,-0.40346 -0.15821,-0.60351 z M 426.5,277.83594 c 0.005,0.0266 0.01,0.0534 0.0137,0.0781 0.0184,-0.006 0.0343,-0.0131 0.0527,-0.0195 -0.0227,-0.0208 -0.0436,-0.0374 -0.0664,-0.0586 z m -251.27539,2.24218 c -0.55776,0.10573 -0.98833,0.18759 -1.5957,0.30665 0.67507,-0.0125 1.35112,-0.0812 2.03711,-0.25782 -0.14726,-0.0139 -0.29384,-0.0337 -0.44141,-0.0488 z" />
  <text
     xml:space="preserve"
     style="font-style:normal;font-variant:normal;font-weight:normal;font-stretch:normal;font-size:64px;line-height:1.25;font-family:'Ostrich Sans';-inkscape-font-specification:'Ostrich Sans';letter-spacing:0px;word-spacing:0px;fill:#000000;fill-opacity:1;stroke:none;"
     x="24.765661"
     y="372.19147"
     id="text4136"><tspan
       sodipodi:role="line"
       id="tspan4134"
       x="24.765661"
       y="428.81647" /></text>
  <text
     xml:space="preserve"
     style="font-style:normal;font-variant:normal;font-weight:normal;font-stretch:normal;font-size:37.33333206px;line-height:1.25;font-family:'Ostrich Sans';-inkscape-font-specification:'Ostrich Sans';letter-spacing:0px;word-spacing:0px;fill:#000000;fill-opacity:1;stroke:none"
     x="106.79756"
     y="394.48593"
     id="text4195"><tspan
       sodipodi:role="line"
       id="tspan4193"
       x="106.79756"
       y="394.48593"
       style="font-style:normal;font-variant:normal;font-weight:500;font-stretch:normal;font-family:Ubuntu;-inkscape-font-specification:'Ubuntu Medium'">CURITIBA | PARANÁ</tspan></text>
  <text
     xml:space="preserve"
     style="font-style:normal;font-variant:normal;font-weight:normal;font-stretch:normal;font-size:37.33333206px;line-height:1.25;font-family:'Ostrich Sans';-inkscape-font-specification:'Ostrich Sans';letter-spacing:0px;word-spacing:0px;fill:#000000;fill-opacity:1;stroke:none"
     x="312.07248"
     y="395.57886"
     id="text4199"><tspan
       sodipodi:role="line"
       id="tspan4197"
       x="312.07248"
       y="428.61011" /></text>
  <path
     inkscape:connector-curvature="0"
     id="path77"
     d="m 33.10844,221.3511 c -0.169363,-0.39254 -0.219735,-16.01842 -0.111654,-34.72423 l 0.196334,-34.01052 1.628836,-4.71726 c 7.856394,-22.75283 28.439994,-39.40177 56.711009,-45.87039 2.91869,-0.6678 5.638412,-1.43976 6.043794,-1.71543 0.572448,-0.389301 0.737058,-6.408719 0.737058,-26.954788 0,-24.621673 0.0839,-26.819413 1.211171,-31.736681 2.503292,-10.91938 6.506872,-17.728862 14.710002,-25.019521 5.92409,-5.265153 9.35596,-7.3389442 17.01803,-10.2835912 19.23225,-7.3912747 43.59176,-5.69953747 61.1212,4.2447672 9.389,5.326295 18.15794,16.25351 20.94837,26.104368 1.15988,4.094585 2.38845,3.385931 4.8519,-2.798584 1.15473,-2.899028 3.23205,-7.030433 4.61618,-9.180864 3.05883,-4.752301 9.37239,-10.95488 14.39147,-14.13858 22.04912,-13.9861255 57.50879,-12.3145385 76.73777,3.61748 6.84779,5.673674 11.15784,12.057817 15.62121,23.138486 0.46448,1.153096 1.20395,2.096557 1.64325,2.096557 0.47442,0 1.43675,-1.702633 2.36995,-4.193103 6.63116,-17.696792 20.89578,-28.5262052 42.47927,-32.2494341 8.98479,-1.549895 14.82947,-1.7689447 21.52181,-0.8065059 15.78363,2.2698283 26.37119,6.726476 35.15021,14.795877 7.83786,7.204345 12.06986,14.807797 14.35275,25.786949 0.74344,3.575402 0.91117,9.177089 0.91117,30.430923 0,20.050034 0.16981,26.23868 0.73703,26.873165 0.4054,0.45334 2.72707,1.23546 5.15935,1.738 14.69484,3.03617 29.52305,10.21333 39.50578,19.12166 8.40988,7.50473 14.3922,16.43498 18.08662,26.99924 l 1.64966,4.71726 0.17938,34.72421 0.17942,34.72419 H 273.4417 c -201.968727,0 -240.074033,-0.11314 -240.33326,-0.71365 z m 238.10261,-2.60471 c 0.52159,-0.72884 0.61739,-66.45784 0.0986,-67.65959 -1.00872,-2.33674 -8.34215,0.53569 -13.83939,5.42079 -4.45458,3.9585 -7.5786,8.62117 -9.97833,14.89283 -2.64573,6.91464 -3.01923,10.90637 -2.82735,30.21792 l 0.17449,17.55367 1.71428,0.26706 c 3.41149,0.53149 24.19965,-0.0526 24.6578,-0.69268 z m -207.340748,-0.6045 c 0.202142,-0.71618 0.246452,-9.62 0.09841,-19.78625 -0.294783,-20.22749 -0.703211,-23.41422 -4.039166,-31.51622 -7.021402,-17.05282 -18.1466,-12.95005 -23.292891,8.58998 -0.717614,3.00362 -1.006861,8.4129 -1.239275,23.17758 -0.166698,10.59274 -0.149935,19.61447 0.03732,20.04831 0.289788,0.67134 2.404779,0.7888 14.204302,0.7888 h 13.86376 z M 148.13826,200.313 c 0,-18.31868 -0.0404,-18.98366 -1.38087,-22.80005 -2.04703,-5.82754 -5.08844,-10.57961 -9.46172,-14.78361 -5.00083,-4.80721 -10.91193,-8.23155 -17.54566,-10.16424 -4.60976,-1.34304 -6.04972,-1.51916 -12.29682,-1.50415 -8.208342,0.0199 -11.653574,0.7648 -18.868439,4.0806 -5.532501,2.54259 -12.985811,8.81072 -16.109384,13.54774 -2.424319,3.67652 -4.559024,9.05526 -5.374111,13.54091 -0.652791,3.59264 -0.884281,34.96196 -0.268496,36.3884 0.324386,0.75143 4.308059,0.81954 40.83246,0.69805 l 40.47304,-0.13474 z m 60.73276,-1.04826 c 0,-19.01627 -0.0601,-20.11821 -1.33159,-24.3585 -3.4252,-11.42386 -10.24329,-19.86966 -19.01093,-23.54947 -2.6984,-1.13253 -4.08469,-1.36112 -8.25497,-1.36112 -4.39304,0 -5.49316,0.20271 -8.90964,1.64165 -9.00515,3.79285 -15.93062,13.10323 -19.19966,25.81143 -0.66225,2.57441 -0.97326,8.10206 -1.20392,21.39722 -0.17116,9.85938 -0.14054,18.52955 0.0675,19.26709 l 0.37862,1.34098 28.73228,-0.1361 28.73223,-0.1361 z m 32.43015,-5.76555 c 0,-28.18546 -0.22554,-30.65897 -3.31139,-36.31783 -2.53889,-4.65584 -5.15567,-6.13745 -10.83996,-6.13745 -5.67125,0 -8.28978,1.47928 -10.86419,6.13745 -3.43862,6.22188 -3.70444,8.61013 -4.00169,35.95545 -0.14817,13.63795 -0.1209,25.14047 0.0606,25.56112 0.27917,0.64672 2.54053,0.74317 14.64336,0.62446 l 14.31322,-0.14044 z m 60.18999,24.65513 c 0.20035,-0.70934 0.23807,-9.37729 0.0841,-19.26208 -0.30907,-19.82298 -0.63788,-22.15592 -4.24323,-30.10377 -2.47509,-5.45633 -5.28439,-9.20332 -9.71959,-12.96383 -3.71273,-3.14796 -9.13079,-5.75556 -11.37128,-5.47276 l -1.33045,0.16798 -0.15298,33.80694 c -0.084,18.59384 -0.026,34.10182 0.12889,34.46218 0.21348,0.49668 3.42086,0.65516 13.26102,0.65516 h 12.97933 z m 32.449,-0.0668 c 0.21059,-0.7461 0.24341,-11.65474 0.0726,-24.24144 -0.32825,-24.20782 -0.75769,-28.58596 -3.42574,-34.92482 -2.21987,-5.27403 -6.26495,-8.10345 -11.62006,-8.12785 -6.92252,-0.0315 -11.19126,3.97373 -13.42551,12.59693 -0.85424,3.29688 -1.05293,7.74768 -1.28136,28.70302 -0.14866,13.64062 -0.1083,25.37477 0.0897,26.07593 l 0.35995,1.27483 h 14.42367 14.42368 z m 60.64682,-18.29864 c -0.0234,-22.52626 -0.37041,-24.63811 -5.62192,-34.22574 -3.58293,-6.54121 -8.78085,-11.60657 -14.40558,-14.0381 -3.10785,-1.34348 -4.18279,-1.52936 -8.84458,-1.52936 -4.6393,0 -5.73671,0.18759 -8.72521,1.49214 -9.81648,4.28481 -17.85464,15.96425 -19.83124,28.81482 -0.68348,4.44349 -0.88546,38.21613 -0.23201,38.79698 0.21926,0.19493 13.28712,0.29317 29.0397,0.2184 l 28.64104,-0.13597 z m 84.5073,2.09656 c 0.10671,-10.9355 -0.0709,-18.54499 -0.48275,-20.69118 -2.54531,-13.26201 -13.58356,-24.55286 -27.98867,-28.6292 -10.17715,-2.87992 -20.2894,-2.13192 -30.36638,2.24615 -4.65106,2.02071 -6.41875,3.16799 -10.41749,6.76113 -3.88578,3.49167 -5.33714,5.27182 -7.51442,9.21681 -4.51435,8.17942 -4.63019,8.85837 -4.91649,28.81555 -0.17918,12.48856 -0.0589,17.95907 0.4123,18.74159 l 0.66535,1.10507 40.21988,-0.13472 40.21992,-0.13473 z m 31.08211,-2.88275 c 0,-17.57481 -0.13909,-20.75334 -1.07782,-24.62631 -1.71449,-7.07382 -4.20534,-12.20663 -7.44219,-15.33579 -2.47629,-2.39391 -3.1088,-2.73141 -5.11908,-2.73141 -2.89288,0 -4.83086,1.25804 -7.54561,4.89824 -2.46494,3.30524 -4.70219,9.25029 -6.00342,15.95296 -1.04085,5.36141 -1.61124,39.69799 -0.68733,41.37608 0.46956,0.85291 1.60169,0.91564 14.19286,0.78622 l 13.68259,-0.14064 z M 70.801472,167.09706 c 3.0042,-4.32654 7.04823,-8.1706 12.067507,-11.47089 2.369465,-1.55798 4.200983,-3.10838 4.070078,-3.44538 -0.305055,-0.78526 -18.63609,-0.52381 -19.727536,0.28139 -0.533879,0.39385 -0.738222,2.82397 -0.738222,8.77929 0,4.52909 0.176955,8.39194 0.3931,8.58411 0.944096,0.83921 1.934734,0.15233 3.935073,-2.72852 z m 77.497238,-7.0305 c 0.13894,-8.50193 0.0361,-9.87517 -0.75724,-10.14587 -0.50475,-0.17215 -5.55204,-0.14143 -11.21619,0.0683 -9.27639,0.34353 -10.29848,0.47297 -10.29848,1.30422 0,0.58429 1.4372,1.66933 3.91728,2.95747 4.88593,2.53771 10.97263,7.92693 14.06671,12.45484 3.74908,5.48641 4.0989,4.94482 4.28792,-6.639 z m 253.34649,6.94918 c 3.26615,-4.70373 8.1296,-9.08587 13.70848,-12.35172 2.73473,-1.60091 4.86901,-3.18828 4.74285,-3.52746 -0.34243,-0.92066 -20.80636,-1.72366 -21.97395,-0.86227 -0.69688,0.51413 -0.86201,2.41423 -0.86201,9.91891 0,5.10563 0.17695,9.44021 0.3931,9.63238 0.9483,0.84299 1.93974,0.14502 3.99153,-2.80984 z m 77.57514,-5.72016 c 0,-4.88365 -0.19902,-8.98696 -0.44221,-9.11843 -0.24324,-0.13128 -4.75397,-0.41139 -10.02386,-0.62212 -9.31123,-0.37229 -9.58164,-0.35371 -9.58164,0.65802 0,0.67972 1.11867,1.70134 3.22278,2.94324 4.43565,2.61793 8.95956,6.75905 12.28375,11.24433 4.25632,5.743 4.54118,5.42278 4.54118,-5.10504 z M 248.51,163.51714 c 2.23173,-3.93145 6.27013,-8.27816 10.4946,-11.29574 5.47387,-3.91006 5.31317,-4.06022 -4.34513,-4.06022 -4.53746,0 -8.66966,0.14322 -9.18263,0.31815 -0.80055,0.27308 -0.93266,1.5974 -0.93266,9.34713 0,4.96596 0.1745,9.1842 0.38795,9.37389 0.65373,0.5811 1.86503,-0.66586 3.57787,-3.68321 z m -93.64164,0.45757 c 2.31307,-4.0732 5.39567,-7.69307 9.04319,-10.61942 2.2115,-1.77427 2.89436,-2.64784 2.60099,-3.32737 -0.36139,-0.83722 -1.03079,-0.88722 -7.32228,-0.54673 -3.80849,0.2061 -7.2562,0.61195 -7.6616,0.90189 -0.77422,0.55374 -1.10008,14.148 -0.37914,15.81804 0.68678,1.59092 1.99624,0.80697 3.71884,-2.22641 z m 54.2975,-5.84489 v -8.90039 l -1.55639,-0.34724 c -2.04606,-0.45648 -13.86156,0.19514 -14.54441,0.80225 -0.31481,0.27981 1.08334,1.82606 3.43468,3.79849 4.00734,3.36157 7.31436,7.24201 9.64692,11.31965 0.70082,1.22519 1.66685,2.2276 2.14672,2.2276 0.73596,0 0.87248,-1.39268 0.87248,-8.90036 z m 92.4408,0.0531 c 0.11117,-5.87638 -0.0504,-8.79985 -0.51443,-9.2968 -1.02859,-1.10168 -18.22157,-1.0552 -18.22157,0.0492 0,0.42579 0.72969,1.18541 1.62152,1.68809 5.41371,3.05147 9.92297,7.63318 13.21105,13.42322 1.23358,2.17226 2.0218,3.00161 2.73681,2.87956 0.88905,-0.15172 1.02289,-1.15483 1.16662,-8.7433 z m 38.40066,6.35767 c 2.13674,-3.92307 6.28495,-8.78194 9.80179,-11.48085 3.52411,-2.70453 3.92715,-3.56155 1.9019,-4.04399 -2.50096,-0.59578 -13.73009,-0.36413 -14.47565,0.29861 -0.7623,0.67763 -1.05266,16.7103 -0.31446,17.36645 0.91947,0.81737 1.8131,0.19772 3.08642,-2.14022 z m 54.76344,-5.57007 c 0.11118,-5.29421 -0.0533,-8.0168 -0.51444,-8.51069 -0.80704,-0.86441 -14.38305,-1.06023 -14.97006,-0.21592 -0.19522,0.28065 1.58026,2.23424 3.94524,4.34137 2.82953,2.52096 5.20741,5.30218 6.95341,8.13279 3.87834,6.28761 4.38368,5.87463 4.58585,-3.74755 z m -356.167591,3.56382 c 1.825919,-2.85027 1.741812,-3.89031 -0.314608,-3.89031 -2.27397,0 -3.066105,0.88469 -3.066105,3.42437 0,3.58541 1.270188,3.76048 3.380713,0.46594 z m 25.153677,1.57027 c 0.196782,-0.456 0.357898,-3.05787 0.357898,-5.78197 0,-5.72125 -0.273918,-6.0139 -4.660613,-4.97905 -4.207778,0.99265 -4.560938,1.59102 -2.376468,4.02664 1.016207,1.13298 2.384029,3.00346 3.039595,4.15657 1.994613,3.50825 2.94681,4.18263 3.639588,2.57781 z m 421.721824,-1.92267 c 0.85855,-1.51347 2.34879,-3.64083 3.31159,-4.72749 0.9628,-1.08666 1.61408,-2.29191 1.44726,-2.67827 -0.30549,-0.70769 -4.60483,-1.89772 -6.85601,-1.89772 -1.14957,0 -1.21297,0.29681 -1.21297,5.67817 0,7.45055 0.70314,8.22067 3.31013,3.62531 z m 24.99251,-0.36798 c 0,-2.60886 -0.52424,-3.16997 -2.96161,-3.16997 -1.75295,0 -1.88937,0.85579 -0.51932,3.25789 2.20005,3.85727 3.48093,3.82491 3.48093,-0.088 z m -0.61179,-5.76739 c 0.74153,-0.41695 0.75538,-0.94789 0.0987,-3.792 -4.11953,-17.84346 -18.00295,-33.30956 -37.79037,-42.09845 -2.41956,-1.07468 -5.41593,-2.27284 -6.65859,-2.66257 -3.64267,-1.14244 -3.51694,0.26546 0.35572,3.98377 10.09073,9.68845 15.42361,20.55754 16.15707,32.93012 0.25529,4.30656 0.51506,5.48543 1.26577,5.74393 0.8403,0.28938 24.68113,6.23544 25.41451,6.33856 0.1623,0.0228 0.68286,-0.17671 1.15712,-0.44336 z M 50.443908,153.12763 c 6.691688,-1.59259 12.328042,-3.06672 12.525223,-3.27587 0.197228,-0.20914 0.664482,-3.21061 1.03841,-6.66993 0.799743,-7.39832 2.18704,-12.02149 5.38842,-17.9567 2.871252,-5.32312 4.979655,-8.07925 10.23937,-13.38512 4.682959,-4.72402 4.655317,-5.73524 -0.111015,-4.06523 -18.41937,6.45377 -33.970407,20.05348 -40.501872,35.41983 -2.074939,4.88163 -3.83613,11.08675 -3.42019,12.05023 0.509604,1.18049 1.697487,1.01104 14.841654,-2.11721 z m 166.019872,-0.5562 c 3.31407,-3.35877 3.10687,-4.02833 -1.17187,-3.78679 l -2.88306,0.16264 -0.17561,3.27585 c -0.22264,4.15394 0.42297,4.20708 4.23047,0.34822 z m 117.34755,2.09858 c 0.60904,-1.41078 0.39468,-4.69411 -0.34967,-5.35576 -1.03937,-0.9239 -5.73658,-0.81165 -6.15044,0.14701 -0.36117,0.83666 4.30949,5.97369 5.46824,6.01428 0.37071,0.014 0.83503,-0.3495 1.03187,-0.80551 z m -25.45906,-2.165 c 1.55159,-1.35848 2.82105,-2.74843 2.82105,-3.08877 0,-1.24251 -3.84959,-1.70466 -5.93512,-0.71252 -0.88435,0.4207 -1.14055,1.10753 -1.14055,3.05749 0,3.99769 0.44868,4.07611 4.25462,0.7438 z m -66.75628,-0.88088 c 0,-3.05469 -0.41712,-3.46297 -3.53784,-3.46297 -2.01476,0 -3.53783,0.47017 -3.53783,1.09215 0,0.83985 4.99913,5.09817 6.04379,5.14815 0.86202,0.0411 1.03188,-0.41586 1.03188,-2.77733 z m -127.9516,-3.22073 c 17.67442,-0.43183 32.73232,-0.90334 33.46199,-1.04782 l 1.32668,-0.26266 v -22.22221 c 0,-17.29099 -0.16359,-22.27939 -0.73705,-22.47982 -0.92791,-0.32425 -44.4587,0.11661 -48.649617,0.49258 -3.622714,0.32511 -7.207784,2.28108 -13.771151,7.51338 -10.644227,8.48561 -17.634476,20.93243 -18.608861,33.135 -0.509077,6.37541 -0.568317,6.33138 8.011401,5.9558 3.75724,-0.16442 21.292185,-0.65235 38.966608,-1.08419 z m 365.239,0.50652 c 2.46977,-2.19542 -0.68243,-15.86758 -5.6117,-24.33981 -4.39591,-7.55552 -13.31899,-16.12115 -21.17473,-20.32655 l -2.65339,-1.42042 -25.32568,-0.43772 c -22.75258,-0.39323 -25.3948,-0.35367 -26.00605,0.38942 -1.05744,1.28547 -0.78395,43.72715 0.28554,44.3147 0.43292,0.23787 7.74412,0.60426 16.24703,0.81418 13.93637,0.34411 56.78029,1.56769 61.4382,1.75464 1.03083,0.0414 2.29118,-0.29541 2.80078,-0.74844 z m -283.57403,-2.22127 13.56166,-0.36197 0.15376,-22.42125 c 0.12681,-18.48169 0.0127,-22.46914 -0.64576,-22.69394 -0.43973,-0.14997 -13.23544,-0.0419 -28.43491,0.24063 -25.29927,0.46994 -27.69955,0.5913 -28.39393,1.43547 -0.58878,0.71574 -0.75652,5.62129 -0.74951,21.91852 0.005,11.54804 0.20389,21.25586 0.4422,21.57301 0.23827,0.31714 0.76241,0.67091 1.16479,0.7862 0.92788,0.2659 25.17416,-0.004 42.90168,-0.47667 z m 198.45213,0.40579 c 1.09951,-0.52307 1.1402,-1.3194 1.1315,-22.14489 -0.005,-11.88124 -0.22709,-21.9078 -0.49357,-22.28122 -0.67537,-0.94639 -55.8221,-2.01508 -57.05476,-1.10568 -1.1822,0.87213 -1.21558,43.55531 -0.0348,44.42646 0.52246,0.38545 9.57586,0.72697 27.27077,1.02875 14.5688,0.24844 26.83779,0.48941 27.26448,0.53547 0.4267,0.046 1.28904,-0.16046 1.91634,-0.45889 z m -152.90256,-1.3193 c 0.57453,-0.15729 0.73706,-5.12058 0.73706,-22.51057 0,-19.10516 -0.12394,-22.35112 -0.86345,-22.60335 -0.4749,-0.16204 -7.042,-0.0957 -14.59356,0.14758 l -13.73013,0.44203 -0.15407,22.24139 c -0.12075,17.44959 0.006,22.32961 0.58965,22.65073 0.70965,0.39069 26.47976,0.0525 28.01435,-0.36772 z m 92.60273,0.18461 c 1.04358,-0.9276 1.0152,-43.5778 -0.0296,-44.31358 -1.14891,-0.8092 -27.46515,-1.38414 -28.4974,-0.62261 -1.19507,0.88163 -1.25384,43.55697 -0.0612,44.43683 0.44862,0.33099 4.11719,0.64139 8.69717,0.73594 4.35668,0.09 10.4552,0.215 13.55226,0.27796 3.75097,0.0763 5.86731,-0.0956 6.33863,-0.51454 z m -62.53116,-1.33523 c 0.56146,-0.65271 0.73704,-5.88124 0.73704,-21.94685 0,-18.38684 -0.11771,-21.19455 -0.91764,-21.90572 -0.79306,-0.70495 -2.53443,-0.775243 -12.82465,-0.51759 -6.54884,0.16404 -12.23866,0.38885 -12.64404,0.49975 -0.57446,0.15709 -0.73703,5.09961 -0.73703,22.40663 0,12.21275 0.19902,22.39017 0.44222,22.61646 0.24321,0.22629 6.01429,0.25232 12.82464,0.0576 10.45554,-0.29859 12.49711,-0.48698 13.11946,-1.21046 z m 30.10105,0.81112 c 1.04357,-0.92766 1.01519,-43.57853 -0.0296,-44.31192 -0.91385,-0.64152 -24.6317,-1.337357 -25.65578,-0.75266 -0.58312,0.33293 -0.71032,5.22262 -0.58963,22.66592 l 0.15409,22.2414 5.89638,0.2916 c 11.62302,0.57482 19.48561,0.52258 20.22462,-0.13431 z M 115.07635,99.640877 c 0.81451,-0.724021 0.9266,-3.635586 0.9266,-24.067539 0,-12.784128 -0.16112,-23.616959 -0.35791,-24.072951 -0.40259,-0.932591 -2.17145,-1.063266 -4.71344,-0.348207 -0.94024,0.264471 -3.63319,0.978851 -5.98438,1.587494 l -4.2749,1.106663 v 22.95965 c 0,12.627824 0.17696,23.11693 0.3931,23.309103 0.21618,0.19215 3.24864,0.34942 6.73874,0.34942 4.98258,0 6.54467,-0.1769 7.27219,-0.823633 z m 32.61966,-0.338304 c 1.04601,-0.764722 1.07449,-48.121654 0.0296,-49.050568 -0.74789,-0.664823 -26.56611,-0.947075 -28.4313,-0.310817 -0.83212,0.283831 -0.93271,2.965475 -0.93271,24.870548 0,20.722522 0.13127,24.617785 0.84154,24.97156 1.23316,0.614224 27.60388,0.169371 28.49298,-0.480723 z m 279.56179,0.354876 c 0.68069,-0.604378 0.7491,-47.865395 0.0709,-48.991825 -0.59953,-0.995792 -1.25666,-1.042584 -14.64036,-1.042584 -10.11255,0 -14.20958,0.175109 -14.72022,0.628965 -0.88409,0.785862 -1.01007,47.402256 -0.13143,48.640099 0.80435,1.133236 28.20398,1.845976 29.42113,0.765345 z m 17.69769,0.0913 c 0.48036,-0.514533 0.625,-7.032879 0.51441,-23.186217 l -0.15376,-22.470478 -1.47409,-0.624598 c -2.66493,-1.129182 -11.52825,-2.998582 -12.55555,-2.64818 -0.9282,0.316606 -1.00613,2.204602 -1.00613,24.365225 0,17.984954 0.17784,24.180077 0.70757,24.650977 1.05073,0.934042 13.08433,0.859292 13.96758,-0.08673 z M 183.08797,99.203365 c 5.46456,-0.131969 8.72139,-0.428326 9.28683,-0.845461 0.7438,-0.548772 0.87081,-4.001347 0.87081,-23.674832 0,-14.874479 -0.21616,-23.391493 -0.61039,-24.046235 -0.58504,-0.971743 -1.4405,-1.01381 -20.6166,-1.01381 -19.17612,0 -20.03157,0.04196 -20.6166,1.01381 -0.39452,0.655285 -0.61038,9.261464 -0.61038,24.33504 0,19.821878 0.13015,23.436829 0.86695,24.091856 0.88957,0.790753 3.88833,0.80407 31.42938,0.139657 z m 210.82412,0.08169 c 0.92506,-0.60343 0.99218,-2.580234 0.84975,-25.02765 l -0.15472,-24.372453 h -20.63734 -20.63736 l -0.15344,24.078825 c -0.0977,15.332766 0.058,24.266793 0.42866,24.59628 0.34098,0.303105 8.21983,0.65863 19.02188,0.858307 10.14187,0.187402 18.85339,0.381601 19.35894,0.431376 0.50552,0.04972 1.37115,-0.204341 1.92355,-0.564685 z M 212.50885,98.192938 c 0.59051,-0.526968 0.6656,-43.609406 0.0768,-44.132499 -0.22705,-0.201701 -3.69835,-1.13724 -7.71403,-2.078974 -5.04439,-1.18297 -7.60517,-1.561062 -8.28443,-1.223159 -0.89496,0.445207 -0.98317,2.594824 -0.98317,23.961945 0,12.910065 0.19634,23.647316 0.43614,23.860553 0.58881,0.52339 15.85017,0.164015 16.46853,-0.387866 z m 21.87002,-0.113152 c 0.58631,-0.163646 0.71065,-5.26714 0.58963,-24.201084 l -0.15344,-23.993795 -2.23868,-0.164224 c -2.5647,-0.187992 -13.70771,2.697882 -15.30308,3.963316 -0.95081,0.754174 -1.03186,2.497379 -1.03186,22.189508 0,18.01557 0.13478,21.490911 0.85895,22.13455 0.69531,0.618118 2.35195,0.717378 8.69716,0.521242 4.31103,-0.133353 8.17258,-0.335608 8.58122,-0.449599 z m 115.48659,0.186202 c 0.54766,-0.787713 0.85936,-32.562177 0.40388,-41.174119 -0.33687,-6.369731 -0.35095,-6.420705 -1.77436,-6.420705 -1.7293,0 -12.92951,2.480598 -14.43589,3.197235 -1.006,0.478586 -1.06912,1.790465 -1.06912,22.215916 0,20.120665 0.0752,21.746325 1.03187,22.241519 1.50829,0.780901 15.29529,0.728829 15.84362,-0.05985 z M 270.9305,97.185262 c 0.57039,-0.401044 0.73704,-5.940428 0.73704,-24.500252 0,-20.298182 -0.13126,-24.078814 -0.85402,-24.612088 -0.66648,-0.491665 -4.24608,-0.444948 -16.29831,0.212707 -8.49439,0.463507 -15.67218,0.967932 -15.9507,1.120953 -0.27851,0.152923 -0.50636,11.094279 -0.50636,24.313977 0,18.733048 0.16261,24.096236 0.73704,24.309807 1.30707,0.485953 31.36644,-0.304549 32.13531,-0.845104 z m 36.68425,0.168767 c 0.97903,-1.626092 0.82774,-46.918264 -0.15919,-47.646329 -0.85632,-0.631729 -30.5188,-2.481805 -31.95216,-1.992868 -0.79138,0.269937 -0.88088,3.279231 -0.74605,25.086771 l 0.15312,24.780052 10.3187,0.280883 c 22.12114,0.602152 21.71121,0.611456 22.38549,-0.508509 z M 329.31111,75.97732 329.46488,53.848842 327.837,53.102404 c -3.46472,-1.588665 -11.77329,-3.546775 -14.35386,-3.382856 l -2.60465,0.165421 -0.15361,23.525994 c -0.11196,17.188445 0.0299,23.722376 0.52712,24.254994 0.5364,0.574563 2.50556,0.698377 9.29293,0.584421 l 8.61226,-0.144618 z M 212.34253,46.986793 c -0.12473,-7.364647 -3.92449,-17.079451 -9.29862,-23.774041 -3.26005,-4.061046 -9.46576,-9.264057 -13.5062,-11.323892 -5.16984,-2.6355808 -5.77702,-1.9467067 -2.52086,2.86006 4.3843,6.472024 8.56881,20.187965 8.58111,28.126988 0.005,2.593528 0.27013,4.192609 0.75755,4.552205 0.89587,0.6609 13.89919,3.728793 15.1689,3.578807 0.70364,-0.08329 0.87088,-0.904973 0.81812,-4.020127 z m 131.55577,2.133402 5.89636,-1.383719 0.43547,-5.21545 c 0.82772,-9.912395 3.98197,-20.175343 8.39346,-27.3095 3.38844,-5.4797851 2.67608,-6.165895 -2.98854,-2.87836 -12.5395,7.277518 -20.72659,19.898371 -22.43756,34.588647 -0.56528,4.853386 -0.5906,4.848166 10.70081,2.198382 z m -234.79168,0.210646 c 2.98222,-0.737169 5.75391,-1.725694 6.15928,-2.196753 0.44615,-0.518416 0.73705,-2.490937 0.73705,-4.998052 0,-7.565892 3.09105,-18.126638 7.51626,-25.679683 1.14478,-1.95395 1.92433,-3.692269 1.73233,-3.86296 -1.43678,-1.277157 -9.3299,4.215523 -13.85485,9.641322 -5.68613,6.81812 -9.62137,16.02106 -10.48865,24.52871 l -0.39838,3.907703 h 1.5874 c 0.87303,0 4.02735,-0.603128 7.00956,-1.340287 z m 219.68919,0.402736 c 0.3734,-0.620181 0.28767,-2.3555 -0.25325,-5.126309 -2.87648,-14.734267 -10.76356,-26.129492 -22.99985,-33.230113 -6.66236,-3.8660937 -8.88987,-3.2993309 -4.73853,1.205687 5.40805,5.868799 8.85307,15.056647 9.91233,26.436127 0.6701,7.198472 0.77247,7.591681 2.09316,8.038023 0.76374,0.258116 2.11302,0.469306 2.99841,0.469306 0.8854,0 3.85316,0.689836 6.59506,1.532965 6.04425,1.858591 5.70146,1.822449 6.39267,0.674314 z m 116.33164,-2.415644 c -0.42384,-6.944895 -4.43787,-17.266528 -9.0394,-23.243778 -5.03044,-6.534424 -15.24193,-13.982386 -15.24193,-11.117021 0,0.301503 1.18455,2.719083 2.63235,5.372432 3.50691,6.427023 6.18737,15.736044 6.63402,23.039129 0.225,3.67909 0.61291,5.833446 1.11741,6.20564 1.18967,0.877642 10.32817,3.059193 12.3173,2.94039 l 1.76893,-0.105503 z m -221.46036,1.74961 c 1.91552,-0.593675 5.20742,-1.36262 7.31539,-1.708741 l 3.83266,-0.629299 0.37871,-6.80852 c 0.65083,-11.700567 3.69329,-20.153045 9.88983,-27.475626 1.32476,-1.565504 2.40867,-3.0396611 2.40867,-3.275875 0,-1.9384026 -8.31215,2.184747 -13.77068,6.830793 -9.00258,7.662619 -15.35186,19.417244 -16.67495,30.87086 l -0.37843,3.275862 h 1.75806 c 0.9669,0 3.32524,-0.485743 5.24074,-1.079454 z M 147.7255,46.897331 c 1.11228,-0.988721 1.00632,-40.9533908 -0.11069,-41.7775169 -0.59344,-0.4377917 -1.55513,-0.4569297 -3.49931,-0.069718 -9.57332,1.9070979 -14.41619,5.4899049 -19.16945,14.1817319 -1.6526,3.021879 -3.69153,7.852955 -4.53094,10.735719 -1.81201,6.222632 -2.63082,15.52256 -1.47565,16.759847 0.62892,0.67361 2.88787,0.798818 14.41217,0.798818 9.84325,0 13.86432,-0.175911 14.37395,-0.628965 z m 44.23813,0.172345 C 194.9638,45.378865 191.48632,28.200662 186.15191,18.360501 181.88569,10.490826 176.08183,6.2357308 167.66035,4.8034181 161.39797,3.7383388 153.01526,3.5677097 151.77195,4.4800388 c -0.88325,0.6481166 -0.98031,2.7331854 -0.98031,21.0591532 0,17.791881 0.11612,20.442986 0.92655,21.163447 0.80494,0.715528 3.45644,0.822597 20.19514,0.815638 10.59769,-0.0037 19.62034,-0.206291 20.0503,-0.448601 z m 201.79786,-0.08601 c 1.09808,-0.522391 1.1402,-1.307525 1.1315,-21.096593 -0.005,-11.304715 -0.2039,-20.8105641 -0.44222,-21.1241338 -0.79305,-1.0436941 -3.25478,-1.2236158 -9.52085,-0.6958458 -10.9398,0.9213986 -14.40369,2.1036525 -19.34493,6.6025626 -4.03226,3.671305 -8.35537,11.519522 -10.48571,19.03587 -1.83872,6.487398 -2.64824,15.774616 -1.48372,17.021911 0.64012,0.685604 3.45662,0.798794 19.87562,0.798794 12.05906,0 19.55136,-0.200528 20.27031,-0.542565 z m 33.23372,-0.281068 c 1.09148,-0.970251 1.1567,-2.871203 0.28873,-8.418411 -2.32567,-14.863488 -9.36236,-27.12551 -17.72898,-30.8942341 -4.01692,-1.8093819 -10.38567,-3.0745938 -11.4658,-2.2777494 -0.68533,0.5055586 -0.82859,4.0831822 -0.82859,20.6890195 0,17.553631 0.11644,20.181278 0.92657,20.901371 0.78827,0.700719 2.93799,0.823633 14.40404,0.823633 11.46604,0 13.61574,-0.122778 14.40403,-0.823633 z M 256.33694,45.942481 c 5.35097,-0.279353 10.57244,-0.50899 11.60324,-0.510334 3.79988,-0.0037 3.72736,0.407634 3.72736,-21.203316 0,-16.7835636 -0.12585,-19.6464745 -0.88875,-20.209264 -0.64146,-0.4732413 -2.07702,-0.5522631 -5.15933,-0.2840409 -5.76263,0.50145 -10.16627,2.6007589 -15.58379,7.4290459 -6.53033,5.820082 -10.41094,13.720372 -11.96411,24.356944 -0.79705,5.4584 -0.74309,10.098215 0.12633,10.871146 0.50472,0.448661 1.91274,0.557445 4.5697,0.353067 2.11211,-0.162436 8.21827,-0.523908 13.56925,-0.803248 z m 50.9819,0.352451 c 0.98932,-0.643057 1.05554,-1.27301 0.73021,-6.944846 -0.80156,-13.974613 -6.32153,-24.888996 -15.78398,-31.2091456 -5.3088,-3.5458617 -7.2341,-4.2039237 -12.57166,-4.2969257 l -4.78284,-0.083413 -0.15439,20.3210223 -0.15441,20.321007 1.33363,0.444937 c 0.73349,0.244727 7.56904,0.740292 15.19011,1.10127 7.6211,0.36099 13.96709,0.745636 14.10221,0.854766 0.43164,0.348675 0.97546,0.216371 2.09103,-0.508731 z"
     style="fill:#000000;stroke-width:0.55592507;fill-opacity:1" />
  <text
     id="text42"
     y="281.98477"
     x="242.59488"
     style="font-style:normal;font-variant:normal;font-weight:bold;font-stretch:normal;font-size:64px;line-height:1.25;font-family:Ubuntu;-inkscape-font-specification:'Ubuntu, Bold';font-variant-ligatures:normal;font-variant-caps:normal;font-variant-numeric:normal;font-feature-settings:normal;text-align:start;letter-spacing:0px;word-spacing:0px;writing-mode:lr-tb;text-anchor:start;fill:#16469e;fill-opacity:1;stroke:none;stroke-width:1;"
     xml:space="preserve"><tspan
       style="font-style:normal;font-variant:normal;font-weight:bold;font-stretch:normal;font-size:64px;font-family:Ubuntu;-inkscape-font-specification:'Ubuntu, Bold';font-variant-ligatures:normal;font-variant-caps:normal;font-variant-numeric:normal;font-feature-settings:normal;text-align:start;writing-mode:lr-tb;text-anchor:start;fill:#16469e;fill-opacity:1;stroke-width:1;"
       y="281.98477"
       x="242.59488"
       id="tspan40"
       sodipodi:role="line">12 a 14</tspan></text>
  <text
     xml:space="preserve"
     style="font-style:normal;font-variant:normal;font-weight:bold;font-stretch:normal;font-size:72.95313263px;line-height:1.25;font-family:Ubuntu;-inkscape-font-specification:'Ubuntu, Bold';font-variant-ligatures:normal;font-variant-caps:normal;font-variant-numeric:normal;font-feature-settings:normal;text-align:start;letter-spacing:0px;word-spacing:0px;writing-mode:lr-tb;text-anchor:start;fill:#ffdd00;fill-opacity:1;stroke:none;stroke-width:1.1398927"
     x="-402.62527"
     y="515.43811"
     id="text229"
     transform="rotate(-90.444634)"><tspan
       sodipodi:role="line"
       id="tspan227"
       x="-402.62527"
       y="515.43811"
       style="fill:#ffdd00;fill-opacity:1;stroke-width:1.1398927">2019</tspan></text>
  <text
     xml:space="preserve"
     style="font-style:normal;font-variant:normal;font-weight:500;font-stretch:normal;font-size:64px;line-height:1.25;font-family:Ubuntu;-inkscape-font-specification:'Ubuntu Medium';font-variant-ligatures:normal;font-variant-caps:normal;font-variant-numeric:normal;font-feature-settings:normal;text-align:start;letter-spacing:0px;word-spacing:0px;writing-mode:lr-tb;text-anchor:start;fill:#16469e;fill-opacity:1;stroke:none;stroke-width:0.74249357"
     x="21.617664"
     y="336.62198"
     id="text50"><tspan
       sodipodi:role="line"
       id="tspan48"
       x="21.617664"
       y="336.62198"
       style="font-style:normal;font-variant:normal;font-weight:500;font-stretch:normal;font-size:64px;font-family:Ubuntu;-inkscape-font-specification:'Ubuntu Medium';fill:#16469e;fill-opacity:1;stroke-width:0.74249357">DE SETEMBRO</tspan></text>
</svg>
